<?xml version="1.0" encoding="utf-8"?>
<!-- Generator: Adobe Illustrator 22.0.0, SVG Export Plug-In . SVG Version: 6.00 Build 0)  -->
<svg version="1.1" id="Layer_1" xmlns="http://www.w3.org/2000/svg" xmlns:xlink="http://www.w3.org/1999/xlink" x="0px" y="0px"
	 viewBox="0 0 55.5 43" style="enable-background:new 0 0 55.5 43;" xml:space="preserve">
<path d="M51.9,23.8c-0.2-0.8-1.4-3-1.1-3.8c0.5-1.4-0.1-3-0.9-4.2c-0.3-0.5-0.8-0.8-1.3-1.2c-0.3-0.2-0.3-1.8-0.4-2.3
	c-0.6-2.8-3.5-4.1-6.1-3.9c-1.3-3.1-4.6-4.4-7.5-2.8c-2.1-2.6-5.5-3-8.1-0.9c-2.7-2.1-6.2-1.7-8.2,1.1c-1.8-0.6-3.8-0.7-5.4,0.6
	c-0.8,0.7-1.6,1.5-2,2.5c-0.1,0.2-2.7,0.8-3.2,1.1c-1.9,1.1-3.2,3.9-2.6,6.1c0.1,0.5-1.6,1.6-1.9,2c-0.8,1.1-1.1,2.2-1.3,3.5
	c0,0.1,0,0.2,0,0.2c0,0.1,0,0.2,0,0.2c0.1,1.2,0.4,2.5,1.2,3.4c1.1,1.3,0,2.5,0.1,4.1c0.2,2.3,2.3,4.2,4.6,4.5c0.1,4.7,5.3,7,8.9,4
	c3.5,3,8.7,1.7,10.1-2.7c1,0.5,2.2,0.9,3.3,0.5c1.5-0.5,2.2-1.7,3.7-1.2c3.1,1.1,6.4-0.8,7.9-3.5c2.9,1.2,5.8,0.8,8.2-1.3
	c1.2-1.1,1.8-2.6,2-4.1C52,25.2,52,24.4,51.9,23.8z M41.7,29.8c-0.1,0-0.2-0.1-0.2-0.1l-3.5-3.6V15.6c0.6-0.2,1-0.8,1-1.5
	c0-0.9-0.7-1.6-1.6-1.6c-0.9,0-1.6,0.7-1.6,1.6c0,0.7,0.5,1.3,1.1,1.5v10.8l3.7,3.9c-1.5,3-4.7,4.1-7.8,2.6c0,0,0,0-0.1,0V19.3
	c0.6-0.2,1.1-0.8,1.1-1.5c0-0.9-0.7-1.6-1.6-1.6c-0.9,0-1.6,0.7-1.6,1.6c0,0.7,0.5,1.3,1.1,1.5v14.1c-1.4,1.5-3.1,1.7-4.8,0.5v-5.2
	L23.2,26c0.1-0.2,0.1-0.4,0.1-0.6c0-0.9-0.7-1.6-1.6-1.6c-0.9,0-1.6,0.7-1.6,1.6c0,0.9,0.7,1.6,1.6,1.6c0.3,0,0.5-0.1,0.8-0.2
	l3.4,2.4v4.7c-0.1,0.1-0.1,0.2-0.1,0.3c-0.8,4.2-5.5,5.7-8.5,2.5c0,0-0.1-0.1-0.2-0.1V23l-3.7-4.3c0.2-0.3,0.3-0.6,0.3-0.9
	c0-0.9-0.7-1.6-1.6-1.6c-0.9,0-1.6,0.7-1.6,1.6c0,0.9,0.7,1.6,1.6,1.6c0.2,0,0.3,0,0.5-0.1l3.5,4.1V37c-2.9,2.8-7.1,0.6-6.7-3.4
	c0-0.4-0.3-0.7-0.7-0.7c-3.4,0.1-4.8-3.7-3.2-6.3c0,0,0-0.1,0.1-0.2l3.7-1.2c0.3,0.3,0.7,0.6,1.2,0.6c0.9,0,1.6-0.7,1.6-1.6
	c0-0.9-0.7-1.6-1.6-1.6s-1.6,0.7-1.6,1.6c0,0,0,0,0,0.1L5,25.5c-1.1-1-1.6-2-1.7-3.6c0.1-2.1,1.2-3.5,3.1-4.4
	c0.3-0.1,0.4-0.5,0.3-0.8c-1-3.3,1-6.3,4.6-6.1c0.3,0,0.6-0.2,0.7-0.5c0.8-2.7,3.4-3.9,6-2.9v7.9l6.4,6c-0.1,0.2-0.1,0.3-0.1,0.5
	c0,0.9,0.7,1.6,1.6,1.6c0.9,0,1.6-0.7,1.6-1.6c0-0.9-0.7-1.6-1.6-1.6c-0.3,0-0.6,0.1-0.9,0.2l-6-5.6V7.2c0,0,0.1-0.1,0.1-0.1
	c1.6-2.6,4.6-3,6.8-0.9c0.1,0.1,0.3,0.2,0.5,0.2V11c-0.6,0.2-1.1,0.8-1.1,1.5c0,0.9,0.7,1.6,1.6,1.6c0.9,0,1.6-0.7,1.6-1.6
	c0-0.7-0.5-1.3-1.1-1.5V5.7c2.1-1.6,4.7-1.1,6.2,1.2c0,0,0,0,0,0.1v1.6c-0.6,0.2-1.1,0.8-1.1,1.5c0,0.9,0.7,1.6,1.6,1.6
	c0.9,0,1.6-0.7,1.6-1.6c0-0.7-0.5-1.3-1.1-1.5V7.1c2.5-1.5,5.3-0.5,6.1,2.3c0,0.1,0.1,0.1,0.1,0.2v8.3c-0.6,0.2-1.1,0.8-1.1,1.5
	c0,0.9,0.7,1.6,1.6,1.6c0.9,0,1.6-0.7,1.6-1.6c0-0.7-0.5-1.3-1.1-1.5v-8c3.1-0.4,5.1,2,4.8,5c0,0.2,0.1,0.5,0.3,0.6
	c0.8,0.3,1.4,0.8,1.9,1.6c0.9,1.3,0.3,1.9,0.1,2.9l-3.5,3.9c-0.2-0.1-0.4-0.1-0.6-0.1c-0.9,0-1.6,0.7-1.6,1.6c0,0.9,0.7,1.6,1.6,1.6
	c0.9,0,1.6-0.7,1.6-1.6c0-0.3-0.1-0.6-0.2-0.8l2.9-3.2c0.7,1.1,1.1,2.1,1.2,3.5C50.9,29.7,45.4,31.7,41.7,29.8z"/>
</svg>
