<?xml version="1.0" encoding="utf-8"?>
<!-- Generator: Adobe Illustrator 22.0.0, SVG Export Plug-In . SVG Version: 6.00 Build 0)  -->
<svg version="1.1" id="Layer_1" xmlns="http://www.w3.org/2000/svg" xmlns:xlink="http://www.w3.org/1999/xlink" x="0px" y="0px"
	 viewBox="0 0 31.5 43" style="enable-background:new 0 0 31.5 43;" xml:space="preserve">
<style type="text/css">
	.st0{fill:none;stroke:#1F140F;stroke-linecap:round;stroke-linejoin:round;stroke-miterlimit:10;}
</style>
<g>
	<path class="st0" d="M10.1,32.3c0,0,0.6,4.3,0,6.4"/>
	<path class="st0" d="M22.7,38.4c0,0-1.4-3.2-0.1-9c1.3-5.8,4.2-10,4.2-14.7C26.7,10,25.1,3.2,14.2,3.2C7.6,3.2,5.1,8,4.1,12.1h16.1
		c0.7,0,1.3,0.6,1.3,1.3v6.1c0,0.7-0.6,1.3-1.3,1.3H4c0,0,0,0-0.1,0c0.8,4.5,3,12.1,8.3,12.1c0,0,3.4,0,5.4-1.3"/>
	<path class="st0" d="M21.5,19.5c0,0.7-0.6,1.3-1.3,1.3H4c-0.7,0-1.3-0.6-1.3-1.3v-6.1c0-0.7,0.6-1.3,1.3-1.3h16.3
		c0.7,0,1.3,0.6,1.3,1.3V19.5z"/>
	<path class="st0" d="M18.7,18.9c0,0.6-0.5,1.1-1.1,1.1H4.5c-0.6,0-1.1-0.5-1.1-1.1v-5c0-0.6,0.5-1.1,1.1-1.1h13.2
		c0.6,0,1.1,0.5,1.1,1.1V18.9z"/>
	<line class="st0" x1="21.5" y1="14.3" x2="26.7" y2="12.9"/>
	<line class="st0" x1="21.5" y1="18.7" x2="26.5" y2="17.2"/>
	<path class="st0" d="M10.7,20.8c-0.1,0.9-0.4,1.1-0.6,1.6c-0.6,1.4,1.9,0.4,1.9,0.4"/>
	<path class="st0" d="M9.6,27.6c0,0,1.7,0.7,3.1,0"/>
</g>
</svg>
