<?xml version="1.0" encoding="utf-8"?>
<!-- Generator: Adobe Illustrator 22.0.0, SVG Export Plug-In . SVG Version: 6.00 Build 0)  -->
<svg version="1.1" id="Layer_1" xmlns="http://www.w3.org/2000/svg" xmlns:xlink="http://www.w3.org/1999/xlink" x="0px" y="0px"
	 viewBox="0 0 86 62" style="enable-background:new 0 0 86 62;" xml:space="preserve">
<style type="text/css">
	.st0{opacity:0;fill:#C8D4C3;}
	.st1{fill:none;stroke:#224190;stroke-linecap:round;stroke-linejoin:round;stroke-miterlimit:10;}
	.st2{fill:none;stroke:#000000;stroke-miterlimit:10;}
	.st3{fill:#224190;}
	.st4{fill:none;stroke:#224190;stroke-width:2;stroke-linecap:round;stroke-linejoin:round;}
	.st5{fill:none;stroke:#5B74A8;stroke-linecap:round;stroke-linejoin:round;stroke-miterlimit:10;}
</style>
<circle class="st0" cx="19.7" cy="20.6" r="12.3"/>
<path class="st1" d="M56.1,51.5c-3.7,2.2-8.1,3.4-12.7,3.4c-6.5,0-12.4-2.4-16.9-6.4"/>
<path class="st1" d="M30.5,7.7c3.8-2.2,8.2-3.5,12.9-3.5c7,0,13.3,2.8,17.9,7.4"/>
<circle class="st1" cx="19.7" cy="20.6" r="16.4"/>
<circle class="st2" cx="66.8" cy="39.1" r="16.4"/>
<path class="st3" d="M64.1,11.1L64.1,11.1c-0.8-2.2-3.6-2.8-5.2-1l0,0c-1.5,1.8-0.6,4.6,1.7,5l0,0C62.9,15.6,64.9,13.4,64.1,11.1z"
	/>
<path class="st3" d="M22.7,49L22.7,49c0.8,2.2,3.6,2.8,5.2,1l0,0c1.5-1.8,0.6-4.6-1.7-5h0C23.9,44.5,21.9,46.7,22.7,49z"/>
<g>
	<path class="st4" d="M63.7,44.7c0.7,0.7,1.7,1.2,2.8,1.2c2.1,0,3.8-1.7,3.8-3.8c0-1-0.4-2-1.2-2.7c-0.9-0.9-2.3-1-3.5-1.5
		c-1.3-0.5-2.2-1.5-2.2-3c0-1.9,1.5-3.4,3.4-3.4c0.9,0,1.8,0.4,2.4,1"/>
	<line class="st4" x1="66.8" y1="31.6" x2="66.8" y2="29.3"/>
	<line class="st4" x1="66.8" y1="48.8" x2="66.8" y2="46"/>
</g>
<circle class="st2" cx="66.8" cy="39.1" r="16.4"/>
<g>
	<line class="st5" x1="20.4" y1="27" x2="20.4" y2="29.7"/>
	<line class="st5" x1="20.4" y1="11.5" x2="20.4" y2="14.2"/>
	<g>
		<line class="st5" x1="17.5" y1="11.5" x2="17.5" y2="29.7"/>
		<path class="st5" d="M15,14.2h6.3c1.8,0,3.2,1.4,3.2,3.2v0c0,1.8-1.4,3.2-3.2,3.2h-3.8"/>
		<path class="st5" d="M17.5,20.6h3.8c1.8,0,3.2,1.4,3.2,3.2v0c0,1.8-1.4,3.2-3.2,3.2H15"/>
	</g>
</g>
</svg>
