<?xml version="1.0" encoding="utf-8"?>
<!-- Generator: Adobe Illustrator 22.0.0, SVG Export Plug-In . SVG Version: 6.00 Build 0)  -->
<svg version="1.1" id="Layer_1" xmlns="http://www.w3.org/2000/svg" xmlns:xlink="http://www.w3.org/1999/xlink" x="0px" y="0px"
	 viewBox="0 0 24 24" style="enable-background:new 0 0 24 24;" xml:space="preserve">
<style type="text/css">
	.st0{fill:none;stroke:#212121;stroke-width:0.5;stroke-miterlimit:10;}
</style>
<path class="st0" d="M19,4.5C19,5.9,17.9,7,16.5,7c-0.2,0-0.3,0-0.5-0.1l-1.3,2.1C15.5,9.8,16,10.8,16,12c0,0,0,0,0,0.1l1.3,0.3
	c0.4-0.8,1.3-1.3,2.2-1.3c1.4,0,2.5,1.1,2.5,2.5S20.9,16,19.5,16c-1.3,0-2.3-1-2.5-2.2l-1.3-0.3c-0.3,0.8-1,1.5-1.7,2l0.5,1.5
	c0,0,0,0,0.1,0c1.4,0,2.5,1.1,2.5,2.5S15.9,22,14.5,22S12,20.9,12,19.5c0-0.8,0.4-1.6,1-2L12.5,16c-0.2,0-0.4,0-0.5,0
	c-1.3,0-2.5-0.6-3.2-1.6L7,15.2c0,0.1,0,0.2,0,0.3C7,16.9,5.9,18,4.5,18S2,16.9,2,15.5S3.1,13,4.5,13c0.7,0,1.4,0.3,1.9,0.8L8.1,13
	C8,12.7,8,12.4,8,12c0-1,0.3-1.9,0.9-2.5l-1-1.1C7.6,8.4,7.3,8.5,7,8.5C5.6,8.5,4.5,7.4,4.5,6S5.6,3.5,7,3.5S9.5,4.6,9.5,6
	c0,0.5-0.2,1-0.4,1.4l1,1.1C10.6,8.2,11.3,8,12,8c0.5,0,1,0.1,1.4,0.3l1.2-2.1C14.3,5.8,14,5.2,14,4.5C14,3.1,15.1,2,16.5,2
	S19,3.1,19,4.5z M17.5,4.5c0-0.6-0.4-1-1-1c-0.6,0-1,0.4-1,1c0,0.6,0.4,1,1,1C17.1,5.5,17.5,5,17.5,4.5z M7,7c0.6,0,1-0.4,1-1
	S7.6,5,7,5S6,5.4,6,6S6.4,7,7,7z M12,14.5c1.4,0,2.5-1.1,2.5-2.5S13.4,9.5,12,9.5S9.5,10.6,9.5,12S10.6,14.5,12,14.5z M5.5,15.5
	c0-0.6-0.4-1-1-1s-1,0.4-1,1c0,0.6,0.4,1,1,1S5.5,16.1,5.5,15.5z M15.5,19.5c0-0.6-0.4-1-1-1s-1,0.4-1,1c0,0.6,0.4,1,1,1
	S15.5,20.1,15.5,19.5z M19.5,14.5c0.6,0,1-0.4,1-1s-0.4-1-1-1s-1,0.4-1,1S18.9,14.5,19.5,14.5z"/>
</svg>
