<?xml version="1.0" encoding="utf-8"?>
<!-- Generator: Adobe Illustrator 22.0.0, SVG Export Plug-In . SVG Version: 6.00 Build 0)  -->
<svg version="1.1" id="Layer_1" xmlns="http://www.w3.org/2000/svg" xmlns:xlink="http://www.w3.org/1999/xlink" x="0px" y="0px"
	 viewBox="0 0 32 32" style="enable-background:new 0 0 32 32;" xml:space="preserve">
<style type="text/css">
	.st0{fill:#263238;}
</style>
<g id="adaptive_responsive_design_1_">
	<g>
		<g>
			<path class="st0" d="M1.5,20C1.2,20,1,19.8,1,19.5v-16C1,2.7,1.7,2,2.5,2h27C30.3,2,31,2.7,31,3.5V5c0,0.3-0.2,0.5-0.5,0.5
				S30,5.3,30,5V3.5C30,3.2,29.8,3,29.5,3h-27C2.2,3,2,3.2,2,3.5v16C2,19.8,1.8,20,1.5,20z"/>
		</g>
		<path class="st0" d="M16,31h-5.5c-0.3,0-0.5-0.2-0.5-0.5s0.2-0.5,0.5-0.5h1c0.8,0,1.5-0.7,1.5-1.5V26c0-0.3,0.2-0.5,0.5-0.5
			S14,25.7,14,26v2.5c0,0.6-0.2,1.1-0.5,1.5H16c0.3,0,0.5,0.2,0.5,0.5S16.3,31,16,31z"/>
		<path class="st0" d="M15.5,26h-13C1.7,26,1,25.3,1,24.5v-3C1,21.2,1.2,21,1.5,21h14c0.3,0,0.5,0.2,0.5,0.5S15.8,22,15.5,22H2v2.5
			C2,24.8,2.2,25,2.5,25h13c0.3,0,0.5,0.2,0.5,0.5S15.8,26,15.5,26z"/>
	</g>
	<g>
		<g>
			<g>
				<path class="st0" d="M21.5,9h5C26.8,9,27,8.8,27,8.5S26.8,8,26.5,8h-5C21.2,8,21,8.2,21,8.5S21.2,9,21.5,9z"/>
			</g>
		</g>
		<g>
			<g>
				<path class="st0" d="M23.5,29h1c0.3,0,0.5-0.2,0.5-0.5S24.8,28,24.5,28h-1c-0.3,0-0.5,0.2-0.5,0.5S23.2,29,23.5,29z"/>
			</g>
		</g>
		<path class="st0" d="M28.5,31h-9c-1.4,0-2.5-1.1-2.5-2.5v-20C17,7.1,18.1,6,19.5,6h9C29.9,6,31,7.1,31,8.5v20
			C31,29.9,29.9,31,28.5,31z M19.5,7C18.7,7,18,7.7,18,8.5v20c0,0.8,0.7,1.5,1.5,1.5h9c0.8,0,1.5-0.7,1.5-1.5v-20
			C30,7.7,29.3,7,28.5,7H19.5z"/>
	</g>
</g>
</svg>
