<?xml version="1.0" encoding="utf-8"?>
<!-- Generator: Adobe Illustrator 22.0.0, SVG Export Plug-In . SVG Version: 6.00 Build 0)  -->
<svg version="1.1" id="_x31__1_" xmlns="http://www.w3.org/2000/svg" xmlns:xlink="http://www.w3.org/1999/xlink" x="0px" y="0px"
	 viewBox="0 0 800 600" style="enable-background:new 0 0 800 600;" xml:space="preserve">
<style type="text/css">
	.st0{display:none;fill:#063B5B;}
	.st1{display:none;opacity:0.3;fill:url(#SVGID_1_);}
	.st2{fill:none;stroke:#686868;stroke-miterlimit:10;}
	.st3{opacity:0.5;}
	.st4{fill:#FF977B;}
	.st5{fill:#5594AA;}
	.st6{opacity:0.2;}
	.st7{fill:#FFFFFF;}
	.st8{fill:#063B5B;}
	.st9{fill:#10AAC2;}
	.st10{fill:#2B5972;}
	.st11{fill:#9BA81C;}
	.st12{fill:#EAD2A9;}
	.st13{fill:#888E10;}
	.st14{fill:#D3B390;}
	.st15{fill:#A32100;}
	.st16{fill:#B22E00;}
	.st17{fill:#F7E6BB;}
	.st18{fill:#CEB48E;}
	.st19{fill:#E5CCA3;}
	.st20{fill:#23AB9F;}
	.st21{fill:#147C77;}
	.st22{opacity:0.4;fill:url(#SVGID_2_);}
	.st23{fill:#A72547;}
	.st24{opacity:0.5;fill:#FFFFFF;}
	.st25{opacity:0.3;fill:#41AAAA;}
	.st26{opacity:0.8;fill:#FFFFFF;}
	.st27{fill:#343434;}
	.st28{fill:#C24167;}
	.st29{opacity:0.3;}
	.st30{fill:#FFC969;}
	.st31{fill:#FFED97;}
	.st32{fill:#FFF9AE;}
	.st33{fill:#FF6486;}
	.st34{fill:#FF4E70;}
	.st35{opacity:0.3;fill:#A72547;}
	.st36{fill:#E9E9E9;}
	.st37{fill:#D3D3D3;}
	.st38{fill:url(#SVGID_3_);}
	.st39{fill:url(#SVGID_4_);}
	.st40{fill:url(#SVGID_5_);}
	.st41{opacity:0.4;fill:url(#SVGID_6_);}
	.st42{fill:#FFA008;}
	.st43{fill:#FFC933;}
	.st44{fill:#FFF9CC;}
	.st45{fill:#FFB806;}
	.st46{opacity:0.1;fill:#B75411;}
	.st47{fill:#515151;}
	.st48{opacity:0.1;}
	.st49{fill:#595959;}
	.st50{opacity:0.8;fill:url(#SVGID_7_);}
	.st51{fill:#39B4BC;}
	.st52{fill:#4ADADD;}
	.st53{opacity:0.4;}
	.st54{fill:#2DA2A5;}
	.st55{opacity:0.6;fill:url(#SVGID_8_);}
	.st56{fill:#6D6D6D;}
	.st57{fill:#E55151;}
	.st58{opacity:0.9;}
	.st59{fill:#BF3A3A;}
	.st60{fill:#EF735B;}
	.st61{fill:#E3E3E3;}
	.st62{fill:#EF7133;}
	.st63{opacity:0.4;fill:url(#SVGID_9_);}
	.st64{fill:#2D2D2D;}
	.st65{opacity:0.4;fill:url(#SVGID_10_);}
	.st66{opacity:0.4;fill:url(#SVGID_11_);}
	.st67{fill:#33B8BD;}
	.st68{fill:#3A3A3A;}
	.st69{fill:#40E2D2;}
	.st70{fill:#444444;}
	.st71{fill:#7F7F7F;}
	.st72{fill:#247D85;}
	.st73{opacity:0.4;fill:url(#SVGID_12_);}
	.st74{fill:#757575;}
	.st75{fill:#282828;}
	.st76{opacity:0.4;fill:url(#SVGID_13_);}
</style>
<rect class="st0" width="800" height="600"/>
<linearGradient id="SVGID_1_" gradientUnits="userSpaceOnUse" x1="400" y1="591.1494" x2="400" y2="7.6776">
	<stop  offset="0" style="stop-color:#25A0C1"/>
	<stop  offset="1" style="stop-color:#063B5B"/>
</linearGradient>
<rect class="st1" width="800" height="600"/>
<rect x="91.8" y="317.1" class="st2" width="23.8" height="112.9"/>
<rect x="110.2" y="359.5" class="st2" width="24.4" height="68"/>
<rect x="129.5" y="341.3" class="st2" width="11.6" height="35.3"/>
<rect x="125.8" y="367.9" class="st2" width="42.2" height="53.5"/>
<rect x="154.2" y="319.4" class="st2" width="20.4" height="64.6"/>
<rect x="167.3" y="357.2" class="st2" width="32.7" height="72.8"/>
<rect x="214" y="322.9" class="st2" width="19.5" height="102.9"/>
<rect x="241.2" y="365" class="st2" width="28.4" height="58.9"/>
<rect x="254.6" y="348.5" class="st2" width="2.5" height="18"/>
<rect x="207.5" y="327.4" class="st2" width="29.5" height="5.8"/>
<rect x="278.6" y="405.9" class="st2" width="47.4" height="19.9"/>
<rect x="316.7" y="379.5" class="st2" width="4" height="32.4"/>
<rect x="292.5" y="395.7" class="st2" width="20.8" height="13.8"/>
<rect x="151.4" y="317.1" class="st2" width="23.2" height="7"/>
<rect x="337.7" y="356" class="st2" width="30.4" height="65.4"/>
<rect x="366.5" y="377.4" class="st2" width="24.3" height="45"/>
<rect x="398.1" y="334.9" class="st2" width="26.2" height="92.3"/>
<rect x="433.1" y="374.4" class="st2" width="23.2" height="48"/>
<rect x="359.2" y="341.3" class="st2" width="4.7" height="19.3"/>
<rect x="344.9" y="348.5" class="st2" width="7.9" height="12.1"/>
<rect x="404.9" y="327.4" class="st2" width="15.1" height="13.8"/>
<rect x="453.8" y="383.2" class="st2" width="6.5" height="38.3"/>
<rect x="415.6" y="393.6" class="st2" width="26.7" height="28.7"/>
<rect x="471.2" y="388.7" class="st2" width="43.1" height="32.7"/>
<rect x="479.4" y="380.7" class="st2" width="20.1" height="12.6"/>
<rect x="491" y="364.4" class="st2" width="1.7" height="20.1"/>
<rect x="504.1" y="380.9" class="st2" width="4.1" height="9.7"/>
<rect x="520" y="363.3" class="st2" width="17.5" height="58.1"/>
<rect x="540.6" y="388.7" class="st2" width="19.7" height="30.7"/>
<rect x="552.1" y="370.1" class="st2" width="1" height="20.6"/>
<rect x="524.8" y="360.4" class="st2" width="8.4" height="4.6"/>
<rect x="545.7" y="383.2" class="st2" width="7.4" height="7.6"/>
<rect x="564.9" y="364.4" class="st2" width="24.9" height="57.1"/>
<rect x="569.4" y="356" class="st2" width="16.8" height="14.3"/>
<rect x="581.2" y="343.1" class="st2" width="2" height="17"/>
<rect x="584.8" y="375.9" class="st2" width="22.5" height="47.9"/>
<rect x="596" y="367.9" class="st2" width="6.9" height="9.5"/>
<rect x="612.1" y="389.6" class="st2" width="31.1" height="29.8"/>
<rect x="628" y="370.1" class="st2" width="2" height="27.3"/>
<rect x="634.7" y="376.5" class="st2" width="5.8" height="19.2"/>
<rect x="625.8" y="367.1" class="st2" width="4.2" height="3"/>
<rect x="648.9" y="345.2" class="st2" width="3.1" height="77.2"/>
<rect x="657.4" y="381.5" class="st2" width="11.6" height="40"/>
<rect x="663.3" y="386.1" class="st2" width="13.2" height="7.5"/>
<rect x="674" y="369.6" class="st2" width="18.1" height="49.8"/>
<rect x="683" y="356" class="st2" width="2.1" height="15.8"/>
<rect x="687.8" y="397.4" class="st2" width="17.1" height="22"/>
<rect x="701.7" y="350.9" class="st2" width="6.6" height="70.5"/>
<rect x="106.2" y="290.8" class="st2" width="1.7" height="29.8"/>
<rect x="167.3" y="300.5" class="st2" width="0.7" height="17.9"/>
<rect x="120.8" y="354.2" class="st2" width="4.6" height="6.4"/>
<rect x="183" y="354.5" class="st2" width="14.3" height="3.4"/>
<rect x="156.1" y="314" class="st2" width="10.2" height="4.4"/>
<g class="st3">
	<g>
		<rect x="179.8" y="188.8" class="st4" width="0.8" height="240.6"/>
	</g>
	<g>
		
			<rect x="254.2" y="140.6" transform="matrix(0.4085 -0.9128 0.9128 0.4085 -52.1159 363.7585)" class="st4" width="0.8" height="162.9"/>
	</g>
	<g>
		
			<rect x="173.7" y="400.5" transform="matrix(0.901 -0.4339 0.4339 0.901 -150.25 143.6252)" class="st4" width="131.5" height="0.8"/>
	</g>
	<g>
		
			<rect x="369.1" y="339.2" transform="matrix(0.6073 -0.7945 0.7945 0.6073 -195.1055 461.671)" class="st4" width="0.8" height="178"/>
	</g>
	<g>
		
			<rect x="343.5" y="358" transform="matrix(0.2439 -0.9698 0.9698 0.2439 8.785 727.9842)" class="st4" width="255.4" height="0.8"/>
	</g>
	<g>
		
			<rect x="500.3" y="333.4" transform="matrix(0.4045 -0.9145 0.9145 0.4045 61.7784 762.4006)" class="st4" width="232.1" height="0.8"/>
	</g>
	<g>
		
			<rect x="500.7" y="230.3" transform="matrix(0.9993 -3.710258e-02 3.710258e-02 0.9993 -8.1585 21.7533)" class="st4" width="162.6" height="0.8"/>
	</g>
	<g>
		
			<rect x="301.1" y="195.6" transform="matrix(0.6403 -0.7681 0.7681 0.6403 -14.3729 361.2088)" class="st4" width="154.7" height="0.8"/>
	</g>
	<g>
		
			<rect x="464.8" y="124" transform="matrix(0.7966 -0.6045 0.6045 0.7966 -17.5335 318.8951)" class="st4" width="0.8" height="122.9"/>
	</g>
	<g>
		
			<rect x="384.2" y="242.5" transform="matrix(0.8979 -0.4401 0.4401 0.8979 -123.0692 206.8889)" class="st4" width="0.8" height="252.7"/>
	</g>
	<g>
		<polygon class="st4" points="440.2,482.3 440.1,482.2 497.7,414.7 497.7,414.7 567.2,442.1 567.1,442.3 497.7,414.9 		"/>
	</g>
	<g>
		<polygon class="st4" points="497.8,414.8 497.6,414.8 502.2,234.5 502.4,234.5 		"/>
	</g>
	<circle class="st4" cx="497.9" cy="415.7" r="2.5"/>
	<path class="st4" d="M545.7,364.2c0,1.4-1.1,2.5-2.5,2.5c-1.4,0-2.5-1.1-2.5-2.5c0-1.4,1.1-2.5,2.5-2.5
		C544.5,361.6,545.7,362.8,545.7,364.2z"/>
	<path class="st4" d="M318.3,184.4c0,1.4-1.1,2.5-2.5,2.5c-1.4,0-2.5-1.1-2.5-2.5c0-1.4,1.1-2.5,2.5-2.5
		C317.2,181.9,318.3,183,318.3,184.4z"/>
	<circle class="st4" cx="240.9" cy="283.6" r="2.5"/>
	<circle class="st4" cx="180.5" cy="277.2" r="2.5"/>
	<circle class="st4" cx="435.6" cy="357" r="2.5"/>
	<circle class="st4" cx="431.5" cy="242.9" r="2.5"/>
	<circle class="st4" cx="465.2" cy="383.8" r="2.5"/>
	<circle class="st4" cx="603" cy="296.3" r="2.5"/>
	<circle class="st4" cx="674" cy="337.2" r="2.5"/>
	<circle class="st4" cx="552.1" cy="393" r="2.5"/>
	<g>
		
			<rect x="534.6" y="229.5" transform="matrix(0.9537 -0.3009 0.3009 0.9537 -76.674 176.5108)" class="st4" width="0.2" height="215.4"/>
	</g>
	<g>
		<polygon class="st4" points="498,415.8 497.9,415.7 663.2,227.6 663.3,227.7 		"/>
	</g>
	<g>
		<polygon class="st4" points="498,418.3 497.9,418.2 673.8,337.2 603.2,296 502.3,234.5 502.4,234.4 603.3,295.9 674.1,337.2 
			674,337.3 		"/>
	</g>
	<g>
		<polygon class="st4" points="497.9,415.8 328.9,255.4 329,255.3 498,415.7 		"/>
	</g>
	<g>
		
			<rect x="434" y="136.4" transform="matrix(0.9994 -3.511120e-02 3.511120e-02 0.9994 -10.5954 15.4319)" class="st4" width="0.2" height="345.9"/>
	</g>
	<g>
		
			<rect x="399.2" y="295.7" transform="matrix(0.4781 -0.8783 0.8783 0.4781 -15.0107 566.2448)" class="st4" width="139.5" height="0.2"/>
	</g>
	<g>
		<polygon class="st4" points="329,255.4 328.9,255.3 502.3,234.4 502.3,234.6 		"/>
	</g>
	<g>
		<polygon class="st4" points="328.9,255.4 315.7,184.1 315.8,184.2 431.6,242.8 431.5,243 315.9,184.4 329,255.4 		"/>
	</g>
	<g>
		<polygon class="st4" points="296.5,373.4 296.5,373.2 431.1,358.4 431.1,358.6 		"/>
	</g>
	<g>
		<polygon class="st4" points="298.8,372.4 298.7,372.4 328.9,256.8 329,256.8 		"/>
	</g>
	<g>
		
			<rect x="239" y="171.6" transform="matrix(0.8423 -0.539 0.539 0.8423 -113.6231 173.1267)" class="st4" width="0.2" height="218.3"/>
	</g>
	<g>
		<polygon class="st4" points="240.9,283.6 240.8,283.5 328.9,256.7 329,256.9 		"/>
	</g>
	<g>
		<polygon class="st4" points="180.3,429.5 180.2,429.4 240.8,283.5 240.9,283.6 		"/>
	</g>
	<g>
		
			<rect x="210.3" y="249.8" transform="matrix(0.1032 -0.9947 0.9947 0.1032 -90.2286 460.7462)" class="st4" width="0.2" height="61.3"/>
	</g>
</g>
<g>
	<circle class="st5" cx="567.4" cy="437.1" r="32.7"/>
	<path class="st5" d="M567.4,386.8c-27.8,0-50.3,22.5-50.3,50.3c0,27.8,22.5,50.3,50.3,50.3s50.3-22.5,50.3-50.3
		C617.7,409.3,595.2,386.8,567.4,386.8z M567.4,475.3c-21.1,0-38.2-17.1-38.2-38.2s17.1-38.2,38.2-38.2s38.2,17.1,38.2,38.2
		S588.5,475.3,567.4,475.3z"/>
	<g class="st6">
		<path class="st7" d="M594.4,489.7l-1-2.1c23.6-11.9,35.7-38.1,29.4-63.8l2.2-0.5c3.2,13,1.8,26.8-3.9,38.9
			C615.5,474,606,483.8,594.4,489.7z"/>
	</g>
	<path class="st8" d="M576.4,392.3c1-0.8,2.5-0.7,3.4,0.3c0.8,1,0.7,2.5-0.3,3.4c-1,0.8-2.5,0.7-3.4-0.3
		C575.3,394.7,575.4,393.2,576.4,392.3z"/>
	<path class="st8" d="M563.7,391.3c1-0.8,2.5-0.7,3.4,0.3c0.8,1,0.7,2.5-0.3,3.4c-1,0.8-2.5,0.7-3.4-0.3
		C562.5,393.7,562.6,392.2,563.7,391.3z"/>
	<path class="st8" d="M605.9,455.9c-7,14.3-21.6,24.1-38.5,24.1c-23.7,0-42.9-19.2-42.9-42.9c0-18.3,11.5-33.9,27.6-40.1
		c0,0-0.5-1.6-0.7-1.5c-16.7,6.4-28.6,22.6-28.6,41.6c0,24.6,19.9,44.6,44.6,44.6c17.6,0,32.8-10.2,40-25L605.9,455.9z"/>
</g>
<g>
	<circle class="st5" cx="504.1" cy="233.2" r="32.7"/>
	<path class="st5" d="M504.1,182.9c-27.8,0-50.3,22.5-50.3,50.3c0,27.8,22.5,50.3,50.3,50.3c27.8,0,50.3-22.5,50.3-50.3
		C554.5,205.4,531.9,182.9,504.1,182.9z M504.1,271.4c-21.1,0-38.2-17.1-38.2-38.2s17.1-38.2,38.2-38.2c21.1,0,38.2,17.1,38.2,38.2
		S525.2,271.4,504.1,271.4z"/>
	<g class="st6">
		<path class="st7" d="M560.6,221.5c-5.3-25.9-27.5-44.4-54-45l0.1-2.3c13.4,0.3,26.3,5.2,36.5,13.9c10,8.5,17,20.2,19.7,33
			L560.6,221.5z"/>
	</g>
	<path class="st8" d="M459.1,238.9c-1.3-0.3-2-1.7-1.7-2.9c0.3-1.3,1.7-2,2.9-1.7s2,1.7,1.7,2.9
		C461.7,238.5,460.4,239.3,459.1,238.9z"/>
	<path class="st8" d="M461.8,251.7c-1.3-0.3-2-1.7-1.7-2.9c0.3-1.3,1.7-2,2.9-1.7s2,1.7,1.7,2.9
		C464.4,251.3,463.1,252.1,461.8,251.7z"/>
	<path class="st8" d="M468.4,262.7c-1.3-0.3-2-1.7-1.7-2.9c0.3-1.3,1.7-2,2.9-1.7c1.3,0.3,2,1.7,1.7,2.9
		C471,262.3,469.7,263.1,468.4,262.7z"/>
	<path class="st8" d="M492.3,276c17.4,4.6,35.1-1.6,45.9-14.6c4-4.8,7.1-10.6,8.8-17l-1.7-0.5c-1.6,6.1-4.5,11.6-8.3,16.2
		c-10.3,12.6-27.4,18.7-44.2,14.2L492.3,276z"/>
	<path class="st8" d="M547.5,218.7c1.3,0.4,1.9,1.8,1.5,3c-0.4,1.3-1.8,1.9-3,1.5c-1.3-0.4-1.9-1.8-1.5-3
		C544.9,219,546.2,218.3,547.5,218.7z"/>
	<path class="st8" d="M541.6,207.3c1.3,0.4,1.9,1.8,1.5,3c-0.4,1.3-1.8,1.9-3,1.5c-1.3-0.4-1.9-1.8-1.5-3
		C539,207.5,540.4,206.9,541.6,207.3z"/>
	<g class="st6">
		<path class="st7" d="M468.3,281.3c-10.9-7.8-18.8-19.2-22.3-32.1c-3.5-12.7-2.7-26.3,2.4-38.3l2.1,0.9
			c-10.2,24.4-2.3,52.2,19.2,67.6L468.3,281.3z"/>
	</g>
</g>
<g>
	
		<ellipse transform="matrix(0.1961 -0.9806 0.9806 0.1961 -40.5095 328.1855)" class="st5" cx="179.9" cy="188.8" rx="41.8" ry="41.8"/>
	<path class="st5" d="M179.9,124.5c-35.5,0-64.3,28.8-64.3,64.3s28.8,64.3,64.3,64.3s64.3-28.8,64.3-64.3S215.4,124.5,179.9,124.5z
		 M179.9,237.6c-26.9,0-48.8-21.8-48.8-48.8c0-26.9,21.8-48.8,48.8-48.8s48.8,21.8,48.8,48.8C228.7,215.7,206.8,237.6,179.9,237.6z"
		/>
	<g class="st6">
		<path class="st7" d="M107.4,188.8H105c0-17,5.9-33.7,16.5-46.9c10.5-13,25.2-22.3,41.4-26l0.5,2.3
			C130.4,125.8,107.4,154.9,107.4,188.8z"/>
	</g>
	<path class="st8" d="M202.1,242c0,1.7-1.4,3.1-3.1,3.1c-1.7,0-3.1-1.4-3.1-3.1c0-1.7,1.4-3.1,3.1-3.1
		C200.8,238.9,202.1,240.3,202.1,242z"/>
	<path class="st8" d="M217.1,234.5c0,1.7-1.4,3.1-3.1,3.1c-1.7,0-3.1-1.4-3.1-3.1s1.4-3.1,3.1-3.1
		C215.7,231.4,217.1,232.8,217.1,234.5z"/>
	<circle class="st8" cx="225.4" cy="222.7" r="3.1"/>
	<path class="st8" d="M237,188.8c0-23-13.6-42.8-33.1-51.8c-7.3-3.4-15.4-5.2-23.9-5.2v2.3c8.1,0,15.8,1.8,22.7,4.9
		c18.9,8.6,32.1,27.7,32.1,49.9H237z"/>
</g>
<g>
	<circle class="st5" cx="298.4" cy="375.6" r="32.7"/>
	<path class="st5" d="M298.4,325.3c-27.8,0-50.3,22.5-50.3,50.3c0,27.8,22.5,50.3,50.3,50.3c27.8,0,50.3-22.5,50.3-50.3
		C348.7,347.8,326.2,325.3,298.4,325.3z M298.4,413.8c-21.1,0-38.2-17.1-38.2-38.2c0-21.1,17.1-38.2,38.2-38.2
		c21.1,0,38.2,17.1,38.2,38.2C336.6,396.7,319.5,413.8,298.4,413.8z"/>
	<g class="st6">
		<path class="st7" d="M241.9,375.6h-2.3c0-13.4,4.6-26.5,13-36.9c8.2-10.2,19.8-17.5,32.5-20.5l0.5,2.3
			C259.9,326.5,241.9,349.1,241.9,375.6z"/>
	</g>
	<path class="st8" d="M315.8,417.2c0,1.3-1.1,2.4-2.4,2.4s-2.4-1.1-2.4-2.4c0-1.3,1.1-2.4,2.4-2.4S315.8,415.9,315.8,417.2z"/>
	<path class="st8" d="M327.5,411.3c0,1.3-1.1,2.4-2.4,2.4s-2.4-1.1-2.4-2.4s1.1-2.4,2.4-2.4S327.5,410,327.5,411.3z"/>
	<path class="st8" d="M320.2,336.6c-15.7-8.8-34.4-7.1-48.1,2.8c-5.1,3.7-9.5,8.5-12.7,14.3l1.6,0.9c3.1-5.5,7.2-10.1,12-13.6
		c13.1-9.6,31.2-11.3,46.3-2.8L320.2,336.6z"/>
	<path class="st8" d="M330.9,343c1.3-0.1,2.5,0.8,2.6,2.1c0.1,1.3-0.8,2.5-2.1,2.6c-1.3,0.1-2.5-0.8-2.6-2.1
		C328.7,344.3,329.6,343.1,330.9,343z"/>
	<g class="st6">
		<path class="st7" d="M351.8,356.7c-3.9-11.4-11.2-21-21.1-27.9l1.3-1.9c10.3,7.2,17.9,17.2,22,29.1L351.8,356.7z"/>
	</g>
</g>
<g>
	<circle class="st9" cx="179.9" cy="432.3" r="20.1"/>
	<path class="st10" d="M179.9,397.1c-19.5,0-35.2,15.8-35.2,35.2c0,19.5,15.8,35.2,35.2,35.2c19.5,0,35.2-15.8,35.2-35.2
		C215.1,412.9,199.4,397.1,179.9,397.1z M179.9,454.8c-12.4,0-22.5-10.1-22.5-22.5c0-12.4,10.1-22.5,22.5-22.5
		c12.4,0,22.5,10.1,22.5,22.5C202.4,444.7,192.3,454.8,179.9,454.8z"/>
</g>
<g>
	<circle class="st9" cx="329" cy="255.4" r="20.1"/>
	<path class="st10" d="M329,220.1c-19.5,0-35.2,15.8-35.2,35.2c0,19.5,15.8,35.2,35.2,35.2s35.2-15.8,35.2-35.2
		C364.2,235.9,348.4,220.1,329,220.1z M329,277.8c-12.4,0-22.5-10.1-22.5-22.5s10.1-22.5,22.5-22.5s22.5,10.1,22.5,22.5
		S341.4,277.8,329,277.8z"/>
</g>
<g>
	<circle class="st9" cx="428" cy="136.5" r="20.1"/>
	<path class="st10" d="M428,101.3c-19.5,0-35.2,15.8-35.2,35.2s15.8,35.2,35.2,35.2c19.5,0,35.2-15.8,35.2-35.2
		S447.5,101.3,428,101.3z M428,159c-12.4,0-22.5-10.1-22.5-22.5s10.1-22.5,22.5-22.5c12.4,0,22.5,10.1,22.5,22.5S440.4,159,428,159z
		"/>
</g>
<g>
	<circle class="st9" cx="440.2" cy="482.2" r="20.1"/>
	<path class="st10" d="M440.2,447c-19.5,0-35.2,15.8-35.2,35.2c0,19.5,15.8,35.2,35.2,35.2c19.5,0,35.2-15.8,35.2-35.2
		C475.4,462.8,459.6,447,440.2,447z M440.2,504.7c-12.4,0-22.5-10.1-22.5-22.5c0-12.4,10.1-22.5,22.5-22.5
		c12.4,0,22.5,10.1,22.5,22.5C462.6,494.6,452.6,504.7,440.2,504.7z"/>
</g>
<g>
	<circle class="st9" cx="663.3" cy="227.6" r="20.1"/>
	<path class="st10" d="M663.3,192.4c-19.5,0-35.2,15.8-35.2,35.2c0,19.5,15.8,35.2,35.2,35.2c19.5,0,35.2-15.8,35.2-35.2
		C698.5,208.2,682.7,192.4,663.3,192.4z M663.3,250.1c-12.4,0-22.5-10.1-22.5-22.5c0-12.4,10.1-22.5,22.5-22.5
		c12.4,0,22.5,10.1,22.5,22.5C685.7,240,675.7,250.1,663.3,250.1z"/>
</g>
<g>
	<ellipse class="st11" cx="329" cy="277.4" rx="38" ry="3.5"/>
	<polygon class="st12" points="337.6,275.3 355.1,275.3 357,248 337.6,248 	"/>
	<polygon class="st13" points="338.8,278.3 355.1,275.3 336.6,275.3 	"/>
	<polygon class="st14" points="337.6,275.3 342.3,275.3 343.9,250.8 356.8,250.4 357,248 337.6,248 	"/>
	<polygon class="st15" points="360.7,248.2 323.8,248.2 323.8,238.7 349,238.7 	"/>
	<polygon class="st16" points="343.2,248 297.8,248 320.4,229.8 	"/>
	<polygon class="st17" points="338.2,278.3 302.8,278.3 300.9,248 340.1,248 	"/>
	<polygon class="st17" points="340.1,248 320.2,250.2 300.9,248 320.4,232.7 	"/>
	<g>
		<polygon class="st18" points="339.8,252.3 301.2,252.3 301.2,252.4 339.8,252.4 		"/>
		<polygon class="st18" points="339.6,255.4 301.4,255.4 301.4,255.5 339.6,255.5 		"/>
		<polygon class="st18" points="339.4,258.3 301.6,258.3 301.6,258.4 339.4,258.4 		"/>
		<polygon class="st18" points="339.2,261.4 301.8,261.4 301.8,261.5 339.2,261.5 		"/>
		<polygon class="st18" points="339,264.5 302,264.5 302,264.7 339,264.7 		"/>
		<polygon class="st18" points="338.8,267.6 302.2,267.6 302.2,267.7 338.8,267.7 		"/>
		<polygon class="st18" points="338.7,270.5 302.3,270.5 302.3,270.7 338.7,270.7 		"/>
		<polygon class="st18" points="338.5,273.6 302.5,273.6 302.5,273.7 338.5,273.7 		"/>
		<polygon class="st18" points="338.3,276.3 302.7,276.3 302.7,276.4 338.3,276.4 		"/>
	</g>
	<rect x="302.2" y="277.4" class="st7" width="36.6" height="0.9"/>
	<polygon class="st19" points="320.5,236 335.8,248.5 340.1,248 320.4,232.7 300.9,248 305.2,248.5 	"/>
	<rect x="300.3" y="248" class="st7" width="40.3" height="0.9"/>
	<g>
		<g>
			<rect x="312.5" y="256.6" class="st19" width="14.1" height="14.1"/>
		</g>
		<rect x="305.9" y="261.4" class="st19" width="7.4" height="0.7"/>
		<rect x="323.2" y="262.1" class="st19" width="7.4" height="0.7"/>
		<rect x="315.6" y="272" class="st19" width="8.1" height="0.7"/>
		<rect x="325" y="271" class="st19" width="5.1" height="0.7"/>
		<rect x="329.9" y="258.5" class="st19" width="5.1" height="0.7"/>
		<rect x="318.6" y="252.1" class="st19" width="5.1" height="0.7"/>
		<rect x="329.9" y="255" class="st19" width="0.7" height="7.7"/>
		<rect x="309.2" y="261.7" class="st19" width="0.7" height="7.7"/>
		<rect x="323" y="252.1" class="st19" width="0.7" height="5.5"/>
		<rect x="305.9" y="261.4" class="st19" width="0.7" height="3.3"/>
		<rect x="315.6" y="272" class="st19" width="0.7" height="3.3"/>
		<rect x="323" y="269.4" class="st19" width="0.7" height="3.3"/>
		<rect x="325" y="268.4" class="st19" width="0.7" height="3.3"/>
		<path class="st19" d="M336.6,258.8c0,0.6-0.5,1.1-1.1,1.1c-0.6,0-1.1-0.5-1.1-1.1c0-0.6,0.5-1.1,1.1-1.1
			C336.1,257.6,336.6,258.1,336.6,258.8z"/>
		<path class="st19" d="M331.7,271.3c0,0.6-0.5,1.1-1.1,1.1c-0.6,0-1.1-0.5-1.1-1.1c0-0.6,0.5-1.1,1.1-1.1
			C331.2,270.2,331.7,270.7,331.7,271.3z"/>
		<path class="st19" d="M317,275.3c0,0.6-0.5,1.1-1.1,1.1c-0.6,0-1.1-0.5-1.1-1.1c0-0.6,0.5-1.1,1.1-1.1
			C316.5,274.2,317,274.7,317,275.3z"/>
		<path class="st19" d="M307.3,264.7c0,0.6-0.5,1.1-1.1,1.1c-0.6,0-1.1-0.5-1.1-1.1c0-0.6,0.5-1.1,1.1-1.1
			C306.8,263.6,307.3,264.1,307.3,264.7z"/>
		<path class="st19" d="M319.6,252.4c0,0.6-0.5,1.1-1.1,1.1c-0.6,0-1.1-0.5-1.1-1.1c0-0.6,0.5-1.1,1.1-1.1
			C319.1,251.3,319.6,251.8,319.6,252.4z"/>
		<path class="st19" d="M309.6,269.1c-0.6,0-1.1,0.5-1.1,1.1c0,0.6,0.5,1.1,1.1,1.1c0.6,0,1.1-0.5,1.1-1.1
			C310.7,269.6,310.2,269.1,309.6,269.1z M309.6,271c-0.4,0-0.7-0.3-0.7-0.7c0-0.4,0.3-0.7,0.7-0.7s0.7,0.3,0.7,0.7
			C310.3,270.6,310,271,309.6,271z"/>
		<path class="st19" d="M330.2,253.2c-0.6,0-1.1,0.5-1.1,1.1c0,0.6,0.5,1.1,1.1,1.1c0.6,0,1.1-0.5,1.1-1.1
			C331.3,253.7,330.8,253.2,330.2,253.2z M330.2,255c-0.4,0-0.7-0.3-0.7-0.7c0-0.4,0.3-0.7,0.7-0.7s0.7,0.3,0.7,0.7
			C331,254.7,330.6,255,330.2,255z"/>
	</g>
	<g>
		<path class="st20" d="M330.2,252.6c-0.6,0-1.1,0.5-1.1,1.1c0,0.6,0.5,1.1,1.1,1.1c0.6,0,1.1-0.5,1.1-1.1
			C331.3,253.1,330.8,252.6,330.2,252.6z M330.2,254.5c-0.4,0-0.7-0.3-0.7-0.7c0-0.4,0.3-0.7,0.7-0.7s0.7,0.3,0.7,0.7
			C331,254.2,330.6,254.5,330.2,254.5z"/>
		<g>
			<rect x="312.5" y="256" class="st20" width="14.1" height="14.1"/>
		</g>
		<rect x="305.9" y="260.8" class="st20" width="7.4" height="0.7"/>
		<rect x="323.2" y="261.5" class="st20" width="7.4" height="0.7"/>
		<rect x="315.6" y="271.4" class="st20" width="8.1" height="0.7"/>
		<rect x="325" y="270.4" class="st20" width="5.1" height="0.7"/>
		<rect x="329.9" y="258" class="st20" width="5.1" height="0.7"/>
		<rect x="318.6" y="251.5" class="st20" width="5.1" height="0.7"/>
		<rect x="329.9" y="254.5" class="st20" width="0.7" height="7.7"/>
		<rect x="309.2" y="261.2" class="st20" width="0.7" height="7.7"/>
		<rect x="323" y="251.5" class="st20" width="0.7" height="5.5"/>
		<rect x="305.9" y="260.8" class="st20" width="0.7" height="3.3"/>
		<rect x="315.6" y="271.4" class="st20" width="0.7" height="3.3"/>
		<rect x="323" y="268.8" class="st20" width="0.7" height="3.3"/>
		<rect x="325" y="267.8" class="st20" width="0.7" height="3.3"/>
		<path class="st20" d="M336.6,258.2c0,0.6-0.5,1.1-1.1,1.1c-0.6,0-1.1-0.5-1.1-1.1c0-0.6,0.5-1.1,1.1-1.1
			C336.1,257.1,336.6,257.6,336.6,258.2z"/>
		<path class="st20" d="M331.7,270.8c0,0.6-0.5,1.1-1.1,1.1c-0.6,0-1.1-0.5-1.1-1.1s0.5-1.1,1.1-1.1
			C331.2,269.7,331.7,270.2,331.7,270.8z"/>
		<g>
			<g>
				<path class="st21" d="M336.2,257.3c0.1,0.2,0.2,0.4,0.2,0.7c0,0.6-0.5,1.1-1.1,1.1c-0.3,0-0.5-0.1-0.7-0.3
					c0.2,0.3,0.5,0.4,0.9,0.4c0.6,0,1.1-0.5,1.1-1.1C336.6,257.8,336.5,257.5,336.2,257.3z"/>
			</g>
			<g>
				<path class="st21" d="M331.2,253.6c0,0.5-0.3,0.9-0.8,1v3.3h0.2v-3.2c0.4-0.1,0.8-0.6,0.8-1c0-0.4-0.2-0.7-0.4-0.9
					C331.1,253.1,331.2,253.3,331.2,253.6z"/>
			</g>
			<g>
				<path class="st21" d="M334.3,258.5h-3.9v2.9v0.7h-0.7h-3.1v0.2h3.3h0.7v-0.7v-2.9h3.9C334.4,258.6,334.4,258.5,334.3,258.5z"/>
			</g>
		</g>
		<path class="st20" d="M317,274.7c0,0.6-0.5,1.1-1.1,1.1c-0.6,0-1.1-0.5-1.1-1.1c0-0.6,0.5-1.1,1.1-1.1
			C316.5,273.6,317,274.1,317,274.7z"/>
		<path class="st20" d="M307.3,264.1c0,0.6-0.5,1.1-1.1,1.1c-0.6,0-1.1-0.5-1.1-1.1c0-0.6,0.5-1.1,1.1-1.1
			C306.8,263,307.3,263.5,307.3,264.1z"/>
		<path class="st20" d="M319.6,251.9c0,0.6-0.5,1.1-1.1,1.1c-0.6,0-1.1-0.5-1.1-1.1c0-0.6,0.5-1.1,1.1-1.1
			C319.1,250.8,319.6,251.3,319.6,251.9z"/>
		<path class="st20" d="M309.6,268.6c-0.6,0-1.1,0.5-1.1,1.1c0,0.6,0.5,1.1,1.1,1.1c0.6,0,1.1-0.5,1.1-1.1
			C310.7,269.1,310.2,268.6,309.6,268.6z M309.6,270.4c-0.4,0-0.7-0.3-0.7-0.7s0.3-0.7,0.7-0.7s0.7,0.3,0.7,0.7
			S310,270.4,309.6,270.4z"/>
		<g>
			<circle class="st21" cx="330.6" cy="270.8" r="0.6"/>
		</g>
		<g>
			<circle class="st21" cx="318.4" cy="251.9" r="0.6"/>
		</g>
		<g>
			<g>
				<rect x="312.5" y="256" class="st21" width="7.6" height="3.9"/>
			</g>
			<g>
				<rect x="312.5" y="265.2" class="st21" width="9.9" height="4.8"/>
			</g>
			<g>
				<rect x="312.5" y="264.1" class="st21" width="14.1" height="0.5"/>
			</g>
			<g>
				<rect x="314.7" y="261.1" class="st21" width="9.4" height="0.2"/>
			</g>
			<g>
				<rect x="321.1" y="259.3" class="st21" width="5.4" height="0.5"/>
			</g>
			<g>
				<rect x="312.5" y="262.5" class="st21" width="2.3" height="0.5"/>
			</g>
			<g>
				<path class="st21" d="M323.3,257.5c0,0.3-0.2,0.5-0.5,0.5s-0.5-0.2-0.5-0.5c0-0.3,0.2-0.5,0.5-0.5S323.3,257.3,323.3,257.5z"/>
			</g>
			<g>
				<circle class="st21" cx="318.2" cy="262.9" r="0.5"/>
			</g>
			<g>
				<path class="st21" d="M325.9,257.5c0,0.4-0.3,0.7-0.7,0.7s-0.7-0.3-0.7-0.7c0-0.4,0.3-0.7,0.7-0.7S325.9,257.1,325.9,257.5z"/>
			</g>
			<g>
				<rect x="323.9" y="259.3" class="st21" width="0.5" height="10.7"/>
			</g>
			<g>
				<rect x="320.9" y="256" class="st21" width="0.5" height="3.8"/>
			</g>
			<g>
				<rect x="318.2" y="264.1" class="st21" width="0.5" height="3.4"/>
			</g>
			<g>
				<rect x="314.3" y="259.5" class="st21" width="0.5" height="3.4"/>
			</g>
			<g>
				<rect x="319.3" y="261.2" class="st21" width="0.2" height="4.7"/>
			</g>
			<g>
				<rect x="322.2" y="267.5" class="st21" width="4.4" height="0.2"/>
			</g>
			<g>
				<path class="st21" d="M316.3,262c-0.4,0-0.7,0.3-0.7,0.7s0.3,0.7,0.7,0.7c0.4,0,0.7-0.3,0.7-0.7S316.7,262,316.3,262z
					 M316.3,263.3c-0.3,0-0.5-0.2-0.5-0.5c0-0.3,0.2-0.5,0.5-0.5s0.5,0.2,0.5,0.5C316.8,263,316.5,263.3,316.3,263.3z"/>
			</g>
			<g>
				<path class="st21" d="M325.5,265.4c-0.4,0-0.7,0.3-0.7,0.7c0,0.4,0.3,0.7,0.7,0.7s0.7-0.3,0.7-0.7
					C326.2,265.7,325.9,265.4,325.5,265.4z M325.5,266.4c-0.2,0-0.3-0.1-0.3-0.3c0-0.2,0.1-0.3,0.3-0.3s0.3,0.1,0.3,0.3
					C325.8,266.3,325.6,266.4,325.5,266.4z"/>
			</g>
			<path class="st21" d="M312.5,256v14.1h14.1V256H312.5z M326.4,269.9h-13.7v-13.7h13.7V269.9z"/>
		</g>
		<g>
			<g>
				<path class="st21" d="M306.9,263.3c0.1,0.2,0.2,0.4,0.2,0.6c0,0.6-0.5,1.1-1.1,1.1c-0.3,0-0.5-0.1-0.7-0.2
					c0.2,0.3,0.5,0.4,0.9,0.4c0.6,0,1.1-0.5,1.1-1.1C307.3,263.8,307.2,263.5,306.9,263.3z"/>
			</g>
			<g>
				<path class="st21" d="M309.2,261.3h-2.9v1.6c0.1,0,0.1,0.1,0.2,0.1v-1.5h2.7V261.3z"/>
			</g>
			<g>
				<path class="st21" d="M310.3,268.8c0.1,0.2,0.2,0.4,0.2,0.6c0,0.6-0.5,1.1-1.1,1.1c-0.3,0-0.5-0.1-0.7-0.2
					c0.2,0.3,0.5,0.4,0.9,0.4c0.6,0,1.1-0.5,1.1-1.1C310.7,269.3,310.5,269,310.3,268.8z"/>
			</g>
			<g>
				<path class="st21" d="M312.5,261.3h-2.8v7.1c0.1,0,0.1,0.1,0.2,0.1v-7h2.6V261.3z"/>
			</g>
		</g>
		<g>
			<g>
				<path class="st21" d="M316.6,273.9c0.1,0.2,0.2,0.4,0.2,0.6c0,0.6-0.5,1.1-1.1,1.1c-0.3,0-0.5-0.1-0.7-0.2
					c0.2,0.3,0.5,0.4,0.9,0.4c0.6,0,1.1-0.5,1.1-1.1C317,274.4,316.9,274.1,316.6,273.9z"/>
			</g>
			<g>
				<path class="st21" d="M323.5,270.1v1.2v0.6v0.1h-7.4v1.5c0.1,0,0.1,0.1,0.2,0.1v-1.5h7.4v-0.1v-0.6v-1.4H323.5z"/>
			</g>
		</g>
		<g>
			<g>
				<path class="st21" d="M329.5,270.9h-4H325v0.2h0.7h3.9C329.5,271.1,329.5,271,329.5,270.9z"/>
			</g>
			<g>
				<path class="st21" d="M331.3,269.9c0.1,0.2,0.2,0.4,0.2,0.7c0,0.6-0.5,1.1-1.1,1.1c-0.2,0-0.5-0.1-0.6-0.2
					c0.2,0.2,0.5,0.4,0.8,0.4c0.6,0,1.1-0.5,1.1-1.1C331.7,270.4,331.5,270.1,331.3,269.9z"/>
			</g>
			<g>
				<rect x="325.5" y="270" class="st21" width="0.2" height="0.4"/>
			</g>
		</g>
		<g>
			<g>
				<path class="st21" d="M323,252h-3.7c-0.1,0.4-0.6,0.8-1,0.8c-0.3,0-0.5-0.1-0.7-0.2c0.2,0.3,0.5,0.4,0.9,0.4
					c0.5,0,0.9-0.3,1-0.8h3.5V252z"/>
			</g>
			<g>
				<polygon class="st21" points="323.7,256 323.7,252.2 323.7,251.5 323.5,251.5 323.5,252 323.5,256 				"/>
			</g>
		</g>
	</g>
	<g>
		<polygon class="st7" points="327.8,238.5 321.5,238.5 324.3,235.7 323.6,235.2 320.5,238.3 317.3,235.1 316.7,235.7 319.5,238.5 
			313.1,238.5 312,239.3 319.5,239.3 321.5,239.3 328.9,239.3 		"/>
	</g>
	<g>
		<path class="st7" d="M327.2,248C327.2,248,327.3,248,327.2,248c0-3.2-3-5.7-6.8-5.7c-3.8,0-6.8,2.5-6.8,5.6c0,0,0,0,0,0.1H327.2z"
			/>
	</g>
	<g>
		<polygon class="st19" points="340,248.9 301,248.9 301.1,249.7 339.9,249.7 		"/>
	</g>
	<g>
		<path class="st18" d="M314.7,248h4.4l-3.1-3C315.2,245.8,314.7,246.9,314.7,248z"/>
		<path class="st18" d="M326.3,248c0-1.1-0.5-2.1-1.2-3l-3.1,3H326.3z"/>
		<path class="st18" d="M316.6,244.5l3.5,3.4v-4.6C318.8,243.3,317.5,243.8,316.6,244.5z"/>
		<path class="st18" d="M320.9,243.2v4.7l3.6-3.4C323.5,243.8,322.3,243.3,320.9,243.2z"/>
	</g>
	<g>
		<polygon class="st18" points="349.5,258.2 352.6,258.5 352.8,255.4 349.7,254.9 		"/>
		<polygon class="st18" points="349.5,258.5 349.2,261.7 352.3,261.8 352.6,258.8 		"/>
		<polygon class="st18" points="348.6,258.1 348.9,254.8 345.5,254.3 345.3,257.8 		"/>
		<polygon class="st18" points="352.3,262.1 349.2,261.9 348.9,265.2 352.1,265.3 		"/>
		<polygon class="st18" points="348.9,265.5 348.7,268.5 351.8,268.5 352.1,265.6 		"/>
		<polygon class="st18" points="348.6,258.4 345.3,258.1 345,261.5 348.4,261.6 		"/>
		<polygon class="st18" points="348.1,265.5 344.7,265.5 344.5,268.5 347.8,268.5 		"/>
		<polygon class="st18" points="348.3,261.9 345,261.8 344.7,265.2 348.1,265.2 		"/>
	</g>
	<rect x="343.4" y="268.5" class="st17" width="10.2" height="0.6"/>
	<polygon class="st16" points="335.6,238.7 340.3,242.3 353.4,242.3 349,238.7 	"/>
	<linearGradient id="SVGID_2_" gradientUnits="userSpaceOnUse" x1="290.9462" y1="255.3648" x2="366.9616" y2="255.3648">
		<stop  offset="0" style="stop-color:#FFEDB8"/>
		<stop  offset="1" style="stop-color:#49007D"/>
	</linearGradient>
	<path class="st22" d="M355.1,274.9l1.7-24.5h0l0.2-2.2h3.7l-11.7-9.5h-13.3h-4.1l-11.2-9L297.8,248h2.5v0.8h0.7l0.6,9.5l0,0l0,0
		l0.8,12.3l0,0l0,0l0.3,4.2c-7.2,0.6-11.7,1.5-11.7,2.5c0,1.9,17,3.5,38,3.5c21,0,38-1.6,38-3.5C367,276.4,362.4,275.5,355.1,274.9z
		"/>
</g>
<g>
	<path class="st23" d="M451.4,466.4c0,0-4.1-1.4-11.7-1.4c-7.6,0-11.3,1.4-11.3,1.4l-5.2,15.9h33.4L451.4,466.4z"/>
	<path class="st24" d="M450.1,467.2c0,0-3.7-1.2-10.4-1.2c-6.8,0-10,1.2-10,1.2l-4.6,14.1h29.6L450.1,467.2z"/>
	<path class="st25" d="M440.2,482.2h16.4l-5.2-15.9c0,0-4-1.3-11.3-1.3V482.2z"/>
	<g>
		<g class="st3">
			<polygon class="st26" points="451.5,471.4 437,481.3 454.7,481.3 			"/>
		</g>
		<g class="st3">
			<path class="st26" d="M429.7,467.2l-4.6,14.1h0l21.7-14.8c-1.7-0.3-4.1-0.5-7.1-0.5C432.9,466,429.7,467.2,429.7,467.2z"/>
		</g>
	</g>
	<circle class="st27" cx="456.1" cy="465.9" r="0.7"/>
	<g>
		<g>
			<path class="st27" d="M456.2,461.5c-2,0-3.7,1.4-4.2,3.2l0.7,0.3c0.4-1.6,1.8-2.7,3.5-2.7c1.7,0,3.1,1.2,3.5,2.7l0.7-0.3
				C459.9,462.8,458.2,461.5,456.2,461.5z"/>
			<path class="st27" d="M456.2,459.3c-2.9,0-5.3,1.9-6.2,4.5l0.6,0.3c0.8-2.4,3-4.1,5.6-4.1c2.6,0,4.8,1.7,5.6,4.1l0.6-0.3
				C461.5,461.1,459.1,459.3,456.2,459.3z"/>
			<path class="st27" d="M456.2,456.8c-3.9,0-7.2,2.5-8.5,5.9l0.8,0.4c1.1-3.2,4.2-5.4,7.7-5.4c3.5,0,6.6,2.3,7.7,5.4l0.8-0.4
				C463.4,459.2,460.1,456.8,456.2,456.8z"/>
		</g>
	</g>
	<g>
		<path class="st27" d="M456.5,481.9l1.8-1.5l0.2,0.5c0,0-1.3,0.9-1.6,2L456.5,481.9z"/>
		<path class="st27" d="M463.2,480c0.4,1.4-6,3.3-5.6,0.1C457.9,478,462.9,479.1,463.2,480z"/>
	</g>
	<g>
		<path class="st27" d="M422.7,481.9l-1.8-1.5l-0.2,0.5c0,0,1.3,0.9,1.6,2L422.7,481.9z"/>
		<path class="st27" d="M416,480c-0.4,1.4,6,3.3,5.6,0.1C421.3,478,416.3,479.1,416,480z"/>
	</g>
	<polygon class="st27" points="456.3,482.9 455.9,482.9 456,466.4 456.2,466.4 	"/>
	<path class="st28" d="M445.9,479.6l0.4-0.9c0,0-2.7-0.5-6.4-0.5c-3.7,0-6.4,0.5-6.4,0.5l0.4,0.9c-9.5,0.7-18.2,3.4-16.8,12.8l0,0
		h22.7h0.2h22.7l0,0C464.1,483,455.5,480.3,445.9,479.6z"/>
	<g class="st29">
		<path class="st28" d="M417.1,492.4L417.1,492.4l22.7,0h0.2h22.7l0,0c0.5-3.3-0.2-5.7-1.8-7.6h-42
			C417.3,486.7,416.6,489.1,417.1,492.4z"/>
	</g>
	<g>
		<path class="st27" d="M419.7,494.5c0,0,2,7.4,3.6,7.4c1.6,0,1.1-7.4,1.1-7.4H419.7z"/>
	</g>
	<g>
		<path class="st27" d="M460,494.5c0,0-2,7.4-3.6,7.4c-1.6,0-1.1-7.4-1.1-7.4H460z"/>
	</g>
	<g>
		<path class="st30" d="M421.1,487.6c-1-1.1-1.5-2.5-0.6-3.5c0.5-0.6,3.5-0.6,5.8,0.2c2.8,1,3.2,1.9,2.6,2.6
			C427.6,488.3,422.2,488.6,421.1,487.6z"/>
		<g>
			<path class="st31" d="M422.3,485.2c-0.7,0.8-0.5,1.9,0,2.8c2,0.4,5.5-0.1,6.5-1.2c0.3-0.3,0.3-0.6,0.2-1
				c-0.3-0.1-0.6-0.3-0.9-0.4C425.8,484.7,422.8,484.6,422.3,485.2z"/>
		</g>
		<path class="st32" d="M424.2,484.7c0,0.4-0.7,0.7-1.6,0.7c-0.9,0-1.6-0.3-1.6-0.7c0-0.4,0.7-0.7,1.6-0.7
			C423.5,484,424.2,484.4,424.2,484.7z"/>
	</g>
	<g>
		<path class="st30" d="M458.6,487.6c1-1.1,1.5-2.5,0.6-3.5c-0.5-0.6-3.5-0.6-5.8,0.2c-2.8,1-3.2,1.9-2.6,2.6
			C452.1,488.3,457.5,488.6,458.6,487.6z"/>
		<g>
			<path class="st31" d="M457.4,485.2c0.7,0.8,0.5,1.9,0,2.8c-2,0.4-5.5-0.1-6.5-1.2c-0.3-0.3-0.3-0.6-0.2-1
				c0.3-0.1,0.6-0.3,0.9-0.4C453.9,484.7,456.9,484.6,457.4,485.2z"/>
		</g>
		<path class="st32" d="M455.5,484.7c0,0.4,0.7,0.7,1.6,0.7c0.9,0,1.6-0.3,1.6-0.7c0-0.4-0.7-0.7-1.6-0.7
			C456.2,484,455.5,484.4,455.5,484.7z"/>
	</g>
	<g>
		<rect x="431.7" y="486" class="st23" width="16.8" height="4.4"/>
		<rect x="432.4" y="486.4" class="st33" width="15.3" height="3.5"/>
		<rect x="432.4" y="486.4" class="st34" width="15.3" height="0.7"/>
	</g>
	<g>
		<path class="st35" d="M433.5,478.7c0,0,2.8-0.5,6.4-0.5c3.7,0,6.4,0.5,6.4,0.5l-0.4,0.9c3.8,0.3,7.5,0.9,10.5,2.1l-0.5-1.6
			c-2.9-1.1-6.3-1.6-10-1.9l0.4-0.9c0,0-2.7-0.5-6.4-0.5c-3.7,0-6.4,0.5-6.4,0.5l0.4,0.9c-3.6,0.3-7.1,0.8-10,1.9l-0.5,1.6
			c2.9-1.2,6.6-1.8,10.5-2.1L433.5,478.7z"/>
	</g>
	<path class="st36" d="M462.9,495.4h-45.9c-0.4-1.7-0.7-3.2-0.7-4.4h47.3C463.6,492.8,463.3,493.9,462.9,495.4z"/>
	<g>
		<path class="st37" d="M416.9,495.4h45.9c0.2-0.6,0.3-1.2,0.5-1.8h-46.8C416.7,494.2,416.8,494.8,416.9,495.4z"/>
	</g>
	<g>
		<linearGradient id="SVGID_3_" gradientUnits="userSpaceOnUse" x1="421.4706" y1="463.2334" x2="454.2573" y2="463.2334">
			<stop  offset="0" style="stop-color:#FFEDB8"/>
			<stop  offset="1" style="stop-color:#49007D"/>
		</linearGradient>
		<path class="st38" d="M456.2,461.5c-2,0-3.7,1.4-4.2,3.2l0.7,0.3c0.4-1.6,1.8-2.7,3.5-2.7s3.1,1.2,3.5,2.7l0.7-0.3
			C459.9,462.8,458.2,461.5,456.2,461.5z"/>
		<linearGradient id="SVGID_4_" gradientUnits="userSpaceOnUse" x1="421.4705" y1="461.6383" x2="454.2573" y2="461.6383">
			<stop  offset="0" style="stop-color:#FFEDB8"/>
			<stop  offset="1" style="stop-color:#49007D"/>
		</linearGradient>
		<path class="st39" d="M462.5,463.7c-0.9-2.6-3.3-4.5-6.2-4.5c-2.9,0-5.3,1.9-6.2,4.5l0.6,0.3c0.8-2.4,3-4.1,5.6-4.1
			c2.6,0,4.8,1.7,5.6,4.1L462.5,463.7z"/>
		<linearGradient id="SVGID_5_" gradientUnits="userSpaceOnUse" x1="421.4705" y1="459.895" x2="454.2572" y2="459.895">
			<stop  offset="0" style="stop-color:#FFEDB8"/>
			<stop  offset="1" style="stop-color:#49007D"/>
		</linearGradient>
		<path class="st40" d="M456.2,456.8c-3.9,0-7.2,2.5-8.5,5.9l0.8,0.4c1.1-3.2,4.2-5.4,7.7-5.4c3.5,0,6.6,2.3,7.7,5.4l0.8-0.4
			C463.4,459.2,460.1,456.8,456.2,456.8z"/>
		<linearGradient id="SVGID_6_" gradientUnits="userSpaceOnUse" x1="421.4705" y1="483.414" x2="454.2573" y2="483.414">
			<stop  offset="0" style="stop-color:#FFEDB8"/>
			<stop  offset="1" style="stop-color:#49007D"/>
		</linearGradient>
		<path class="st41" d="M463.6,491h-0.7c0.2-4.2-1.8-7.1-5.5-8.9c0.2-0.3,0.5-0.6,0.7-0.8c1.3,1.3,5.6-0.2,5.2-1.3
			c-0.3-0.9-5.3-2-5.6,0.1c0,0.3,0,0.6,0.1,0.8l-1.1,0.9c-0.1,0-0.1-0.1-0.2-0.1l-0.1-0.3l-0.1-14.9c0.3-0.1,0.6-0.3,0.6-0.6
			c0-0.4-0.3-0.7-0.7-0.7c-0.4,0-0.7,0.3-0.7,0.7c0,0.3,0.2,0.6,0.6,0.6l-0.1,13.6l-4.5-13.8c-5.2-1.7-17.9-1.9-23,0
			c-6.3,19.5-4.4,13.5-5,15.4c-0.3,0.1-0.5,0.2-0.8,0.3l0.1-0.1l-1.2-1c0.1-0.2,0.1-0.5,0.1-0.8c-0.3-2.1-5.3-1-5.6-0.1
			c-0.3,1.1,3.9,2.6,5.2,1.3c0.3,0.3,0.6,0.6,0.8,1c-3.5,1.9-5.3,4.7-5.1,8.7h-0.7c0,1.3,0.4,3,0.7,4.4h3c0.6,2,2,6.4,3.3,6.4
			c1.2,0,1.2-4.4,1.1-6.4h31c-0.1,2-0.1,6.4,1.1,6.4c1.2,0,2.7-4.4,3.3-6.4h3.2C463.4,493.8,463.6,492.7,463.6,491z"/>
	</g>
</g>
<g>
	<path class="st42" d="M169.1,442.5c0,0,0.5-3.3,1.3-6.1c0,0-2,0-2.6,2.7C167.1,441.7,169.1,442.5,169.1,442.5z"/>
	<rect x="170.7" y="456.3" class="st42" width="20.7" height="1.2"/>
	<path class="st43" d="M167.8,456.3h28l1-49.1C196.8,407.2,167.1,415.2,167.8,456.3z M183.4,451h-8.1c0,0-1.2-13.4,8.1-19.2V451z"/>
	<g>
		<path class="st44" d="M190.2,410.1v46.1h5.6l0.2-48.8C195,407.8,192.8,408.6,190.2,410.1z"/>
	</g>
	<rect x="182" y="438.3" class="st42" width="1.5" height="9.4"/>
	<rect x="195.8" y="407.2" class="st27" width="1" height="49.7"/>
	<g>
		<path class="st44" d="M186.7,446.5c0.7,0,1.2,0.5,1.2,1.2s-0.5,1.2-1.2,1.2c-0.7,0-1.2-0.5-1.2-1.2S186,446.5,186.7,446.5z"/>
		<path class="st44" d="M186.7,440c0.7,0,1.2,0.5,1.2,1.2c0,0.7-0.5,1.2-1.2,1.2c-0.7,0-1.2-0.5-1.2-1.2
			C185.5,440.6,186,440,186.7,440z"/>
		<path class="st44" d="M186.7,433.9c0.7,0,1.2,0.5,1.2,1.2s-0.5,1.2-1.2,1.2c-0.7,0-1.2-0.5-1.2-1.2S186,433.9,186.7,433.9z"/>
		<path class="st45" d="M186.7,447.1c0.3,0,0.6,0.3,0.6,0.6s-0.3,0.6-0.6,0.6c-0.3,0-0.6-0.3-0.6-0.6S186.4,447.1,186.7,447.1z"/>
		<path class="st45" d="M186.7,440.6c0.3,0,0.6,0.3,0.6,0.6c0,0.3-0.3,0.6-0.6,0.6c-0.3,0-0.6-0.3-0.6-0.6
			C186.1,440.9,186.4,440.6,186.7,440.6z"/>
		<path class="st45" d="M186.7,434.5c0.3,0,0.6,0.3,0.6,0.6s-0.3,0.6-0.6,0.6c-0.3,0-0.6-0.3-0.6-0.6S186.4,434.5,186.7,434.5z"/>
	</g>
	<g>
		<path class="st44" d="M189,410.9v45.4h0.6v-45.8C189.4,410.6,189.2,410.8,189,410.9z"/>
	</g>
	<path class="st46" d="M195.8,452.6h-28c0,1.2,0,2.4,0,3.7h28V452.6z"/>
	<path class="st46" d="M172.9,451h2.5c0,0-1.2-13.4,8.1-19.2V426C171.3,433.6,172.9,451,172.9,451z"/>
	<g>
		<path class="st27" d="M177.7,428.8c0,1.1-0.7,1.9-1.6,1.9h-11.4c-0.9,0-1.6-0.9-1.6-1.9v-19.6c0-1.1,0.7-1.9,1.6-1.9h11.4
			c0.9,0,1.6,0.9,1.6,1.9V428.8z"/>
		<rect x="163.8" y="409" class="st47" width="13" height="19"/>
		<path class="st7" d="M167.9,429.3c0,0.3-0.2,0.5-0.5,0.5c-0.3,0-0.5-0.2-0.5-0.5c0-0.3,0.2-0.5,0.5-0.5
			C167.7,428.8,167.9,429,167.9,429.3z"/>
		<path class="st7" d="M173.7,429.3c0,0.3-0.2,0.5-0.5,0.5c-0.3,0-0.5-0.2-0.5-0.5c0-0.3,0.2-0.5,0.5-0.5
			C173.5,428.8,173.7,429,173.7,429.3z"/>
		<path class="st7" d="M170.3,428.6c-0.4,0-0.6,0.3-0.6,0.6c0,0.4,0.3,0.6,0.6,0.6c0.4,0,0.6-0.3,0.6-0.6
			C171,428.9,170.7,428.6,170.3,428.6z M170.3,429.7c-0.2,0-0.4-0.2-0.4-0.4c0-0.2,0.2-0.4,0.4-0.4c0.2,0,0.4,0.2,0.4,0.4
			C170.8,429.5,170.6,429.7,170.3,429.7z"/>
		<rect x="164.1" y="409.5" class="st27" width="12.4" height="18"/>
		<circle class="st47" cx="173.4" cy="408.2" r="0.2"/>
		<g>
			<g class="st48">
				<polygon class="st7" points="164.1,409.5 164.1,421.6 176.5,413.2 176.5,409.5 				"/>
			</g>
			<g class="st48">
				<polygon class="st7" points="176.5,427.5 176.5,419.9 165.8,427.5 				"/>
			</g>
		</g>
		<circle class="st49" cx="174.6" cy="408.2" r="0.2"/>
		<path class="st47" d="M171.8,408.3c0,0.1-0.1,0.1-0.1,0.1h-2.8c-0.1,0-0.1-0.1-0.1-0.1v-0.2c0-0.1,0.1-0.1,0.1-0.1h2.8
			c0.1,0,0.1,0.1,0.1,0.1V408.3z"/>
		<g>
			<path class="st7" d="M171.5,420.2c0,0.7-0.6,1.2-1.2,1.2c-0.7,0-1.2-0.6-1.2-1.2c0-0.7,0.6-1.2,1.2-1.2
				C171,418.9,171.5,419.5,171.5,420.2z"/>
			<g>
				<path class="st7" d="M170.3,417.4c-1.3,0-2.3,0.9-2.6,2l0.5,0.2c0.2-1,1.1-1.7,2.2-1.7c1.1,0,1.9,0.7,2.2,1.7l0.5-0.2
					C172.6,418.3,171.6,417.4,170.3,417.4z"/>
				<path class="st7" d="M170.3,416.1c-1.8,0-3.4,1.2-3.9,2.8l0.4,0.2c0.5-1.5,1.9-2.6,3.5-2.6c1.6,0,3,1.1,3.5,2.6l0.4-0.2
					C173.7,417.2,172.1,416.1,170.3,416.1z"/>
				<path class="st7" d="M170.3,414.5c-2.5,0-4.5,1.6-5.4,3.7l0.5,0.2c0.7-2,2.6-3.4,4.9-3.4c2.2,0,4.1,1.4,4.9,3.4l0.5-0.2
					C174.8,416,172.7,414.5,170.3,414.5z"/>
			</g>
		</g>
	</g>
	<linearGradient id="SVGID_7_" gradientUnits="userSpaceOnUse" x1="163.0307" y1="432.2975" x2="196.7818" y2="432.2975">
		<stop  offset="0" style="stop-color:#FFEDB8"/>
		<stop  offset="1" style="stop-color:#49007D"/>
	</linearGradient>
	<path class="st50" d="M195.8,407.2v0.3c-0.1,0-0.1,0-0.2,0.1c0,0,0,0,0,0c-6.8,2.5-13.4,7.8-17.9,13.7v-12.2c0-1.1-0.7-1.9-1.6-1.9
		h-11.4c-0.9,0-1.6,0.9-1.6,1.9v19.6c0,1.1,0.7,1.9,1.6,1.9h7.6c-0.7,1.8-1.4,3.6-2,5.7c-0.5,0.1-1.9,0.4-2.5,2.6
		c-0.5,2,0.6,3,1.1,3.3c-0.7,3.7-1,7.7-1.1,12.1c0,0.6,0,1.2,0,1.9h2.9v1.1h20.7v-1.1h4.4v0.6h1v-49.7H195.8z M183.4,431.8v6.5H182
		v9.4h1.5v3.3h-8.1C175.3,451,174.1,437.7,183.4,431.8z"/>
</g>
<g>
	<path class="st17" d="M684.4,246.5c0,2.1-1.7,3.7-3.7,3.7h-34.9c-2.1,0-3.7-1.7-3.7-3.7v-37.7c0-2.1,1.7-3.7,3.7-3.7h34.9
		c2.1,0,3.7,1.7,3.7,3.7V246.5z"/>
	<g>
		<path class="st19" d="M642.1,246.5c0,2.1,1.7,3.7,3.7,3.7h34.9c2.1,0,3.7-1.7,3.7-3.7v0L642.1,246.5L642.1,246.5z"/>
	</g>
	<g>
		<path class="st19" d="M684.4,208.8c0-2.1-1.7-3.7-3.7-3.7h-34.9c-2.1,0-3.7,1.7-3.7,3.7v7.2h42.4V208.8z"/>
	</g>
	<path class="st19" d="M677.4,227.1h-2.6c-1.9-4.1-6.1-7-10.9-7c-6.6,0-12,5.4-12,12c0,6.6,5.4,12,12,12c4.8,0,9-2.9,10.9-7h2.6
		V227.1z"/>
	<circle class="st44" cx="663.3" cy="231.3" r="12"/>
	
		<ellipse transform="matrix(0.7071 -0.7071 0.7071 0.7071 30.6829 536.7578)" class="st17" cx="663.3" cy="231.3" rx="8.3" ry="8.3"/>
	<circle class="st51" cx="663.3" cy="231.3" r="7.5"/>
	<rect x="673.4" y="226.4" class="st44" width="3.4" height="9.9"/>
	<rect x="656.2" y="207.7" class="st27" width="14.2" height="5.4"/>
	<g>
		<path class="st52" d="M670.5,233.3c-0.7,0.2-1.5,0.2-2.2,0.2c-2.3,0-4.3-0.8-6-1.4c-0.9-0.4-1.8-0.7-2.6-0.9
			c-1.5-0.3-2.7-0.1-3.9,0.6c0-0.2,0-0.3,0-0.5c0,4.1,3.4,7.5,7.5,7.5c3.7,0,6.7-2.6,7.4-6.1C670.6,232.9,670.6,233.1,670.5,233.3z"
			/>
	</g>
	<g>
		<path class="st7" d="M659.7,231.3c0.8,0.2,1.7,0.5,2.6,0.9c1.7,0.7,3.7,1.4,6,1.4c0.7,0,1.4-0.1,2.2-0.2c0.1-0.2,0.1-0.4,0.1-0.6
			c-3.1,0.8-5.7-0.2-8.1-1.1c-1-0.4-1.9-0.7-2.7-0.9c-1.5-0.3-2.8-0.2-4,0.5c0,0,0,0.1,0,0.1c0,0.2,0,0.3,0,0.5
			C657,231.1,658.2,231,659.7,231.3z"/>
	</g>
	<g>
		<path class="st7" d="M661,233.6c-0.2,0-0.4,0.2-0.4,0.4c0,0.2,0.2,0.4,0.4,0.4c0.2,0,0.4-0.2,0.4-0.4
			C661.4,233.8,661.2,233.6,661,233.6z M661,234.3c-0.1,0-0.3-0.1-0.3-0.3c0-0.1,0.1-0.3,0.3-0.3c0.1,0,0.3,0.1,0.3,0.3
			C661.2,234.1,661.1,234.3,661,234.3z"/>
		<path class="st7" d="M663.7,232.5c-0.1,0-0.3,0.1-0.3,0.3c0,0.1,0.1,0.3,0.3,0.3s0.3-0.1,0.3-0.3
			C663.9,232.7,663.8,232.5,663.7,232.5z M663.7,233c-0.1,0-0.2-0.1-0.2-0.2c0-0.1,0.1-0.2,0.2-0.2s0.2,0.1,0.2,0.2
			C663.8,232.9,663.8,233,663.7,233z"/>
		<path class="st7" d="M659.6,231.8c-0.1,0-0.3,0.1-0.3,0.3c0,0.1,0.1,0.3,0.3,0.3s0.3-0.1,0.3-0.3
			C659.8,231.9,659.7,231.8,659.6,231.8z M659.6,232.2c-0.1,0-0.2-0.1-0.2-0.2c0-0.1,0.1-0.2,0.2-0.2c0.1,0,0.2,0.1,0.2,0.2
			C659.7,232.2,659.7,232.2,659.6,232.2z"/>
		<path class="st7" d="M665.5,236.9c-0.1,0-0.3,0.1-0.3,0.3c0,0.1,0.1,0.3,0.3,0.3c0.1,0,0.3-0.1,0.3-0.3
			C665.8,237,665.7,236.9,665.5,236.9z M665.5,237.3c-0.1,0-0.2-0.1-0.2-0.2c0-0.1,0.1-0.2,0.2-0.2c0.1,0,0.2,0.1,0.2,0.2
			C665.7,237.2,665.6,237.3,665.5,237.3z"/>
		<path class="st7" d="M668,233.7c-0.1,0-0.3,0.1-0.3,0.3c0,0.1,0.1,0.3,0.3,0.3c0.1,0,0.3-0.1,0.3-0.3
			C668.2,233.8,668.1,233.7,668,233.7z M668,234.2c-0.1,0-0.2-0.1-0.2-0.2c0-0.1,0.1-0.2,0.2-0.2c0.1,0,0.2,0.1,0.2,0.2
			C668.1,234.1,668,234.2,668,234.2z"/>
		<path class="st7" d="M664.4,234.7c-0.3,0-0.6,0.3-0.6,0.6c0,0.3,0.3,0.6,0.6,0.6c0.3,0,0.6-0.3,0.6-0.6
			C665,235,664.8,234.7,664.4,234.7z M664.4,235.7c-0.2,0-0.4-0.2-0.4-0.4c0-0.2,0.2-0.4,0.4-0.4c0.2,0,0.4,0.2,0.4,0.4
			C664.8,235.5,664.6,235.7,664.4,235.7z"/>
		<path class="st7" d="M657.8,233c-0.3,0-0.6,0.3-0.6,0.6s0.3,0.6,0.6,0.6c0.3,0,0.6-0.3,0.6-0.6S658.1,233,657.8,233z M657.8,233.9
			c-0.2,0-0.4-0.2-0.4-0.4c0-0.2,0.2-0.4,0.4-0.4s0.4,0.2,0.4,0.4C658.2,233.8,658,233.9,657.8,233.9z"/>
		<path class="st7" d="M667.6,235.5c-0.3,0-0.6,0.3-0.6,0.6c0,0.3,0.3,0.6,0.6,0.6c0.3,0,0.6-0.3,0.6-0.6
			C668.2,235.8,668,235.5,667.6,235.5z M667.6,236.5c-0.2,0-0.4-0.2-0.4-0.4c0-0.2,0.2-0.4,0.4-0.4s0.4,0.2,0.4,0.4
			C668,236.3,667.8,236.5,667.6,236.5z"/>
		<path class="st7" d="M661.4,236.9c-0.3,0-0.6,0.3-0.6,0.6c0,0.3,0.3,0.6,0.6,0.6c0.3,0,0.6-0.3,0.6-0.6
			C662,237.2,661.7,236.9,661.4,236.9z M661.4,237.9c-0.2,0-0.4-0.2-0.4-0.4c0-0.2,0.2-0.4,0.4-0.4s0.4,0.2,0.4,0.4
			C661.8,237.7,661.6,237.9,661.4,237.9z"/>
	</g>
	<rect x="644.8" y="207.3" class="st44" width="9.1" height="5.8"/>
	<path class="st44" d="M680.5,210.4c0,1.2-0.9,2.1-2.1,2.1c-1.2,0-2.1-0.9-2.1-2.1c0-1.2,0.9-2.1,2.1-2.1
		C679.5,208.3,680.5,209.2,680.5,210.4z"/>
	<g class="st53">
		<path class="st54" d="M659.2,232.4c0-3.7,3-6.6,6.6-6.6c1.3,0,2.4,0.4,3.4,1c-1.4-1.8-3.5-3-6-3c-4.1,0-7.5,3.4-7.5,7.5
			c0,4.1,3.4,7.5,7.5,7.5c0.3,0,0.5,0,0.8,0C661.3,238,659.2,235.5,659.2,232.4z"/>
	</g>
	<g>
		<path class="st19" d="M649.4,208.2c0.7,0,1.2-0.4,1.3-1h-2.6C648.2,207.8,648.7,208.2,649.4,208.2z"/>
	</g>
	<g>
		<path class="st44" d="M660.5,214.3c0,0.4-0.3,0.7-0.7,0.7c-0.4,0-0.7-0.3-0.7-0.7c0-0.4,0.3-0.7,0.7-0.7
			C660.2,213.7,660.5,214,660.5,214.3z"/>
		<path class="st44" d="M664,214.3c0,0.4-0.3,0.7-0.7,0.7c-0.4,0-0.7-0.3-0.7-0.7c0-0.4,0.3-0.7,0.7-0.7
			C663.6,213.7,664,214,664,214.3z"/>
		<path class="st44" d="M667.4,214.3c0,0.4-0.3,0.7-0.7,0.7s-0.7-0.3-0.7-0.7c0-0.4,0.3-0.7,0.7-0.7S667.4,214,667.4,214.3z"/>
	</g>
	<g>
		<path class="st17" d="M678.4,207.3c-1.7,0-3.1,1.4-3.1,3.1c0,1.7,1.4,3.1,3.1,3.1c1.7,0,3.1-1.4,3.1-3.1
			C681.4,208.7,680.1,207.3,678.4,207.3z M678.4,213c-1.4,0-2.6-1.2-2.6-2.6c0-1.4,1.2-2.6,2.6-2.6c1.4,0,2.6,1.2,2.6,2.6
			C681,211.8,679.8,213,678.4,213z"/>
	</g>
	<path class="st44" d="M643.4,217.9v10.6c0,0,3.9-7.8,10.5-10.6H643.4z"/>
	<rect x="642.1" y="216" class="st18" width="42.4" height="0.4"/>
	<rect x="646.5" y="211.9" class="st18" width="5.9" height="0.4"/>
	<rect x="642.1" y="246.2" class="st18" width="42.4" height="0.4"/>
	<g>
		<path class="st7" d="M664,211.7c0,0.4-0.3,0.7-0.7,0.7c-0.4,0-0.7-0.3-0.7-0.7c0-0.4,0.3-0.7,0.7-0.7
			C663.7,211,664,211.3,664,211.7z"/>
		<g>
			<path class="st7" d="M663.3,210.1c-0.7,0-1.3,0.5-1.5,1.2l0.3,0.1c0.1-0.6,0.6-1,1.2-1c0.6,0,1.1,0.4,1.2,1l0.3-0.1
				C664.6,210.6,664,210.1,663.3,210.1z"/>
			<path class="st7" d="M663.3,209.3c-1,0-1.9,0.7-2.2,1.6l0.2,0.1c0.3-0.9,1.1-1.5,2-1.5c0.9,0,1.7,0.6,2,1.5l0.2-0.1
				C665.2,210,664.3,209.3,663.3,209.3z"/>
			<path class="st7" d="M663.3,208.4c-1.4,0-2.6,0.9-3.1,2.1l0.3,0.1c0.4-1.1,1.5-2,2.8-2c1.3,0,2.4,0.8,2.8,2l0.3-0.1
				C665.9,209.3,664.7,208.4,663.3,208.4z"/>
		</g>
	</g>
	<g class="st6">
		<path class="st7" d="M669.6,232.3c0,2.3-1.8,4.1-4.1,4.1s-4.1-1.8-4.1-4.1s1.8-4.1,4.1-4.1S669.6,230,669.6,232.3z"/>
	</g>
	<path class="st7" d="M653.5,232c0-6,4.9-10.9,10.9-10.9c1.7,0,3.4,0.4,4.8,1.1c-1.7-1.1-3.8-1.8-6-1.8c-6,0-10.9,4.9-10.9,10.9
		c0,4.3,2.5,8,6.1,9.8C655.5,239.2,653.5,235.8,653.5,232z"/>
	<linearGradient id="SVGID_8_" gradientUnits="userSpaceOnUse" x1="642.0876" y1="227.622" x2="684.4433" y2="227.622">
		<stop  offset="0" style="stop-color:#FFEDB8"/>
		<stop  offset="1" style="stop-color:#49007D"/>
	</linearGradient>
	<path class="st55" d="M680.7,205h-34.9c-2.1,0-3.7,1.7-3.7,3.7v7.2v0.4v29.9v0.2v0v0.2h0c0.1,2,1.7,3.5,3.7,3.5h34.9
		c2,0,3.6-1.6,3.7-3.5h0v-0.2v0v-0.2v-29.9V216v-7.2C684.4,206.7,682.8,205,680.7,205z"/>
</g>
<g>
	<g>
		<polygon class="st47" points="427.9,125.1 423.3,125.1 422.7,120.4 428.4,120.4 		"/>
		<polygon class="st56" points="425.2,125.1 423.3,125.1 422.7,120.4 424.9,120.4 		"/>
		<rect x="425.2" y="125.1" class="st27" width="0.8" height="7.1"/>
		<rect x="425.4" y="132.4" class="st27" width="0.4" height="13.7"/>
		<path class="st27" d="M427.6,132.4c0,0.1-0.9,0.2-2,0.2c-1.1,0-2-0.1-2-0.2s0.9-0.2,2-0.2C426.7,132.1,427.6,132.2,427.6,132.4z"
			/>
		<ellipse class="st27" cx="425.6" cy="146.2" rx="1.5" ry="0.2"/>
		<path class="st27" d="M430.2,141.5c0,0.1-2.1,0.2-4.6,0.2s-4.6-0.1-4.6-0.2c0-0.1,2.1-0.2,4.6-0.2S430.2,141.4,430.2,141.5z"/>
		<rect x="423.9" y="125.1" class="st27" width="3.3" height="0.5"/>
		<path class="st27" d="M430,140.4l-2.4-8.1h-0.4l2.3,8.2c0.4,1.2,0.1,2.6-0.6,3.6c-0.7,1-1.9,1.7-3.2,1.7c0,0-0.1,0-0.1,0
			c0,0-0.1,0-0.1,0c-1.3,0-2.5-0.7-3.3-1.7c-0.8-1.1-1-2.4-0.6-3.7l2.4-8h-0.4l-2.3,7.9c-0.4,1.4-0.1,2.9,0.7,4.1
			c0.9,1.2,2.3,1.9,3.7,1.9c1.4,0,2.8-0.7,3.6-1.8C430.1,143.3,430.4,141.8,430,140.4z"/>
		<path class="st27" d="M428.2,140.4l-1.3-8.1h-0.4l1.3,8.2c0.2,1.2,0.1,2.6-0.3,3.6c-0.4,1-1,1.7-1.7,1.7c0,0,0,0-0.1,0
			c0,0,0,0-0.1,0c-0.7,0-1.3-0.7-1.8-1.7c-0.4-1.1-0.5-2.4-0.3-3.7l1.3-8h-0.5l-1.3,7.9c-0.2,1.4-0.1,2.9,0.4,4.1
			c0.5,1.2,1.4,1.9,2.2,1.9c0.8,0,1.7-0.7,2.2-1.8C428.2,143.3,428.4,141.8,428.2,140.4z"/>
	</g>
	<path class="st27" d="M442.4,109h-28.8c-2.2,0-4,1.9-4,4.2v6.6h32v33.7h-32v1.8c0,2.3,1.8,4.2,4,4.2h28.8c2.2,0,4-1.9,4-4.2v-42.1
		C446.4,110.9,444.6,109,442.4,109z"/>
	<rect x="409.6" y="117.9" class="st47" width="32" height="1.8"/>
	<rect x="409.6" y="153.4" class="st47" width="32" height="1.8"/>
	<path class="st27" d="M416.4,119.8h18.4c0,0-3,3-9.5,3C418.8,122.8,416.4,119.8,416.4,119.8z"/>
	<path class="st57" d="M425.7,144.2h-0.2h-13.7c0,0,0.4,7.4,7.5,9.2h6.2h0.2h6.2c7.1-1.8,7.5-9.2,7.5-9.2H425.7z"/>
	<g class="st58">
		<path class="st59" d="M434.7,144.2c0,0.2,0,0.4,0,0.5c0,4.1-5.3,7.4-11.9,7.4c-3.7,0-6.9-1-9.1-2.6c1.1,1.6,2.9,3.2,5.6,3.9h6.2
			h0.2h6.2c7.1-1.8,7.5-9.2,7.5-9.2H434.7z"/>
	</g>
	<rect x="411.3" y="144.2" class="st59" width="28.6" height="1"/>
	<path class="st60" d="M413.5,146h16.1C429.6,146,420.3,155.4,413.5,146z"/>
	<g>
		<path class="st47" d="M423.5,110.8h-13.2c-0.5,0.7-0.8,1.5-0.8,2.4v3.7h14V110.8z"/>
	</g>
	<path class="st61" d="M421.4,113.8c0,1.1-0.9,1.9-1.9,1.9c-1.1,0-1.9-0.9-1.9-1.9c0-1.1,0.9-1.9,1.9-1.9
		C420.6,111.9,421.4,112.8,421.4,113.8z"/>
	<path class="st61" d="M416.4,113.8c0,1.1-0.9,1.9-1.9,1.9c-1.1,0-1.9-0.9-1.9-1.9c0-1.1,0.9-1.9,1.9-1.9
		C415.5,111.9,416.4,112.8,416.4,113.8z"/>
	<path class="st62" d="M421,113.8c0,0.8-0.7,1.5-1.5,1.5c-0.8,0-1.5-0.7-1.5-1.5c0-0.8,0.7-1.5,1.5-1.5
		C420.4,112.3,421,113,421,113.8z"/>
	<linearGradient id="SVGID_9_" gradientUnits="userSpaceOnUse" x1="409.5758" y1="134.2248" x2="446.4455" y2="134.2248">
		<stop  offset="0" style="stop-color:#FFEDB8"/>
		<stop  offset="1" style="stop-color:#49007D"/>
	</linearGradient>
	<path class="st63" d="M442.4,109h-28.8c-2.2,0-4,1.9-4,4.2c0,8.7,0-2.2,0,6.6h6.8c0,0,1.8,2.3,6.6,2.8l0.3,2.5h0.7v0.5h1.2v6.6
		c-0.9,0-1.6,0.1-1.6,0.2h0l-2.3,7.9c-0.1,0.4-0.2,0.8-0.2,1.2c0,0,0,0,0,0c0,0,0,0,0,0c0,0.9,0.3,1.9,0.8,2.7h-10h-0.5v1h0.7
		c0.8,4.1,3.3,7.2,7.4,8.2h-9.7v1.8v0c0,2.3,1.8,4.2,4,4.2h28.8c2.2,0,4-1.9,4-4.2v-42.1C446.4,110.9,444.6,109,442.4,109z
		 M427.3,132.5l2.3,8c0.1,0.3,0.1,0.6,0.2,0.9c-0.3,0-0.8-0.1-1.4-0.1c0-0.3,0-0.7-0.1-1l-1.3-7.9
		C427,132.5,427.2,132.5,427.3,132.5z M423.8,144.1c-0.3-0.7-0.4-1.6-0.4-2.4c0.6,0,1.3,0,2,0v2.5h-1.5
		C423.8,144.2,423.8,144.2,423.8,144.1z M423.5,140.4l1.2-7.8c0.2,0,0.4,0,0.7,0v8.7c-0.7,0-1.4,0-2,0
		C423.4,141.1,423.4,140.7,423.5,140.4z M427.4,144.2h-1.6v-2.5c0.7,0,1.4,0,2,0C427.8,142.6,427.7,143.4,427.4,144.2
		C427.4,144.2,427.4,144.2,427.4,144.2z M428.9,144.2h-1c0.3-0.8,0.4-1.6,0.4-2.5c0.6,0,1.1,0,1.4-0.1
		C429.7,142.5,429.5,143.4,428.9,144.2C428.9,144.2,428.9,144.2,428.9,144.2z M426.5,132.6l1.2,7.9c0,0.3,0.1,0.6,0.1,0.9
		c-0.6,0-1.3,0-2,0v-8.7C426,132.6,426.3,132.6,426.5,132.6z M421.6,140.4l2.3-7.9c0.1,0,0.2,0,0.3,0l-1.2,7.7
		c-0.1,0.4-0.1,0.7-0.1,1.1c-0.6,0-1.1,0-1.4,0.1C421.5,141.1,421.5,140.8,421.6,140.4z M422.3,144.1c-0.5-0.7-0.8-1.6-0.8-2.5
		c0.3,0,0.8,0.1,1.4,0.1c0,0.9,0.2,1.8,0.4,2.5h-1C422.3,144.2,422.3,144.2,422.3,144.1z M441.6,153.4h-9.7c5.5-1.4,7-6.1,7.4-8.2
		h0.7v-1h-10.5c0.8-1.1,1-2.5,0.6-3.8l-2.4-8.1h0c0-0.1-0.7-0.2-1.6-0.2v-6.6h1.3v-0.5h0.6l0.3-2.6c4.5-0.7,6.6-2.8,6.6-2.8h6.8
		V153.4z"/>
</g>
<g>
	<path class="st27" d="M522,257.1c0,2.7-1.8,4.8-4,4.8h-28.5c-2.2,0-4-2.2-4-4.8v-48.9c0-2.7,1.8-4.8,4-4.8H518c2.2,0,4,2.2,4,4.8
		V257.1z"/>
	<rect x="487.5" y="208" class="st47" width="32.5" height="47.3"/>
	<path class="st7" d="M497.7,258.4c0,0.6-0.5,1.1-1.1,1.1c-0.6,0-1.1-0.5-1.1-1.1s0.5-1.1,1.1-1.1
		C497.2,257.2,497.7,257.7,497.7,258.4z"/>
	<path class="st7" d="M512,258.4c0,0.6-0.5,1.1-1.1,1.1s-1.1-0.5-1.1-1.1s0.5-1.1,1.1-1.1S512,257.7,512,258.4z"/>
	<path class="st7" d="M503.7,256.8c-0.9,0-1.6,0.7-1.6,1.6c0,0.9,0.7,1.6,1.6,1.6c0.9,0,1.6-0.7,1.6-1.6
		C505.3,257.5,504.6,256.8,503.7,256.8z M503.7,259.4c-0.6,0-1.1-0.5-1.1-1.1c0-0.6,0.5-1.1,1.1-1.1c0.6,0,1.1,0.5,1.1,1.1
		C504.8,259,504.3,259.4,503.7,259.4z"/>
	<path class="st64" d="M507.7,206.2c0,0.3-0.2,0.5-0.5,0.5H500c-0.3,0-0.5-0.2-0.5-0.5v-0.5c0-0.3,0.2-0.5,0.5-0.5h7.3
		c0.3,0,0.5,0.2,0.5,0.5V206.2z"/>
	<rect x="488.2" y="209.1" class="st27" width="30.8" height="44.9"/>
	<path class="st47" d="M512,205.9c0,0.3-0.3,0.6-0.6,0.6c-0.3,0-0.6-0.3-0.6-0.6c0-0.3,0.3-0.6,0.6-0.6
		C511.8,205.3,512,205.6,512,205.9z"/>
	<circle class="st47" cx="514.3" cy="205.9" r="0.9"/>
	<g>
		<path class="st57" d="M503.9,218.9c-5.5,0-9.9,4.4-9.9,9.9c0,5.5,4.4,9.9,9.9,9.9s9.9-4.4,9.9-9.9
			C513.8,223.3,509.4,218.9,503.9,218.9z M503.9,237.7c-4.9,0-8.9-4-8.9-8.9c0-4.9,4-8.9,8.9-8.9s8.9,4,8.9,8.9
			C512.9,233.7,508.9,237.7,503.9,237.7z"/>
	</g>
	
		<ellipse transform="matrix(0.1607 -0.987 0.987 0.1607 197.1689 689.3956)" class="st47" cx="503.9" cy="228.8" rx="7.5" ry="7.5"/>
	<g>
		<g>
			<rect x="488.2" y="213.3" class="st57" width="30.8" height="0.6"/>
		</g>
		<path class="st57" d="M517.8,211.1c0,0.6-0.5,1.1-1.1,1.1s-1.1-0.5-1.1-1.1c0-0.6,0.5-1.1,1.1-1.1S517.8,210.5,517.8,211.1z"/>
		<path class="st57" d="M513.7,211.1c0,0.6-0.5,1.1-1.1,1.1c-0.6,0-1.1-0.5-1.1-1.1c0-0.6,0.5-1.1,1.1-1.1
			C513.2,210,513.7,210.5,513.7,211.1z"/>
	</g>
	<circle class="st49" cx="514.3" cy="205.9" r="0.6"/>
	<path class="st47" d="M507.5,206.1c0,0.2-0.2,0.4-0.4,0.4h-7c-0.2,0-0.4-0.2-0.4-0.4v-0.4c0-0.2,0.2-0.4,0.4-0.4h7
		c0.2,0,0.4,0.2,0.4,0.4V206.1z"/>
	<g>
		<g class="st48">
			<polygon class="st7" points="488.2,209.1 488.2,239.4 519,218.5 519,209.1 			"/>
		</g>
		<g class="st48">
			<polygon class="st7" points="519,253.9 519,235.1 492.5,253.9 			"/>
		</g>
	</g>
	<linearGradient id="SVGID_10_" gradientUnits="userSpaceOnUse" x1="485.5345" y1="232.6626" x2="521.9996" y2="232.6626">
		<stop  offset="0" style="stop-color:#FFEDB8"/>
		<stop  offset="1" style="stop-color:#49007D"/>
	</linearGradient>
	<path class="st65" d="M518,203.4h-28.5c-2.2,0-4,2.2-4,4.8v48.9c0,2.7,1.8,4.8,4,4.8H518c2.2,0,4-2.2,4-4.8v-48.9
		C522,205.5,520.2,203.4,518,203.4z"/>
	<g>
		<path class="st47" d="M497.5,246.3c0,1.7-1.4,3.1-3.1,3.1c-1.7,0-3.1-1.4-3.1-3.1c0-1.7,1.4-3.1,3.1-3.1
			C496.2,243.3,497.5,244.6,497.5,246.3z"/>
		<path class="st47" d="M506.7,246.3c0,1.7-1.4,3.1-3.1,3.1c-1.7,0-3.1-1.4-3.1-3.1c0-1.7,1.4-3.1,3.1-3.1
			C505.3,243.3,506.7,244.6,506.7,246.3z"/>
		<path class="st47" d="M515.9,246.3c0,1.7-1.4,3.1-3.1,3.1s-3.1-1.4-3.1-3.1c0-1.7,1.4-3.1,3.1-3.1S515.9,244.6,515.9,246.3z"/>
		<g>
			<path class="st7" d="M512.8,244.3c-1.1,0-1.9,0.9-1.9,1.9c0,1.1,0.9,1.9,1.9,1.9s1.9-0.9,1.9-1.9
				C514.7,245.2,513.8,244.3,512.8,244.3z M512.8,247.3c-0.6,0-1-0.5-1-1c0-0.6,0.5-1,1-1s1,0.5,1,1
				C513.8,246.8,513.4,247.3,512.8,247.3z"/>
			<path class="st7" d="M513.3,244.4c0,0.3-0.2,0.5-0.5,0.5s-0.5-0.2-0.5-0.5c0-0.3,0.2-0.5,0.5-0.5S513.3,244.1,513.3,244.4z"/>
			<path class="st7" d="M513.3,248.1c0,0.3-0.2,0.5-0.5,0.5s-0.5-0.2-0.5-0.5c0-0.3,0.2-0.5,0.5-0.5S513.3,247.9,513.3,248.1z"/>
			<path class="st7" d="M514.5,245.3c-0.2,0.2-0.5,0.2-0.7,0c-0.2-0.2-0.2-0.5,0-0.7c0.2-0.2,0.5-0.2,0.7,0
				C514.6,244.8,514.6,245.1,514.5,245.3z"/>
			<path class="st7" d="M511.8,247.9c-0.2,0.2-0.5,0.2-0.7,0c-0.2-0.2-0.2-0.5,0-0.7c0.2-0.2,0.5-0.2,0.7,0
				C512,247.4,512,247.7,511.8,247.9z"/>
			<path class="st7" d="M514.6,246.8c-0.3,0-0.5-0.2-0.5-0.5c0-0.3,0.2-0.5,0.5-0.5c0.3,0,0.5,0.2,0.5,0.5
				C515.1,246.5,514.9,246.8,514.6,246.8z"/>
			<path class="st7" d="M510.9,246.8c-0.3,0-0.5-0.2-0.5-0.5c0-0.3,0.2-0.5,0.5-0.5c0.3,0,0.5,0.2,0.5,0.5
				C511.4,246.5,511.2,246.8,510.9,246.8z"/>
			<path class="st7" d="M513.7,247.9c-0.2-0.2-0.2-0.5,0-0.7c0.2-0.2,0.5-0.2,0.7,0c0.2,0.2,0.2,0.5,0,0.7
				C514.2,248.1,513.9,248.1,513.7,247.9z"/>
			<path class="st7" d="M511.1,245.3c-0.2-0.2-0.2-0.5,0-0.7c0.2-0.2,0.5-0.2,0.7,0c0.2,0.2,0.2,0.5,0,0.7
				C511.6,245.5,511.3,245.5,511.1,245.3z"/>
		</g>
		<g>
			<path class="st7" d="M494.5,244.1c-1.2,0-2.1,0.9-2.1,2.1c0,1.2,0.9,2.1,2.1,2.1c1.2,0,2.1-0.9,2.1-2.1
				C496.6,245.1,495.6,244.1,494.5,244.1z M494.5,248c-1,0-1.7-0.8-1.7-1.7c0-1,0.8-1.7,1.7-1.7c1,0,1.7,0.8,1.7,1.7
				C496.2,247.2,495.4,248,494.5,248z"/>
			<rect x="494.3" y="245.1" class="st7" width="0.2" height="0.7"/>
			<path class="st7" d="M494.6,245.3v0.2c0.4,0.1,0.6,0.4,0.6,0.8c0,0.4-0.4,0.8-0.8,0.8c-0.4,0-0.8-0.4-0.8-0.8
				c0-0.4,0.3-0.7,0.6-0.8v-0.2c-0.4,0.1-0.8,0.5-0.8,1c0,0.5,0.4,1,1,1c0.5,0,1-0.4,1-1C495.4,245.8,495.1,245.4,494.6,245.3z"/>
		</g>
		<path class="st7" d="M504.8,245.7v-1h0c0-0.4-0.6-0.8-1.2-0.8c-0.7,0-1.2,0.4-1.2,0.8h0v1c-0.2,0-0.4,0.2-0.4,0.4v2
			c0,0.3,0.2,0.5,0.5,0.5h2.3c0.3,0,0.5-0.2,0.5-0.5v-2C505.2,245.9,505.1,245.7,504.8,245.7z M503.9,247.8h-0.6l0.1-0.8
			c-0.1-0.1-0.1-0.1-0.1-0.2c0-0.2,0.1-0.3,0.3-0.3c0.2,0,0.3,0.1,0.3,0.3c0,0.1,0,0.2-0.1,0.2L503.9,247.8z M504.3,245.7h-1.4v-0.8
			c0-0.3,0.3-0.5,0.7-0.5s0.7,0.2,0.7,0.5V245.7z"/>
	</g>
	<g>
		<path class="st43" d="M501.4,233.5c0,0.4-0.2,0.7-0.4,0.7c-0.2,0-0.4-0.3-0.4-0.7s0.2-0.7,0.4-0.7
			C501.2,232.8,501.4,233.1,501.4,233.5z"/>
		<path class="st43" d="M507.3,233.5c0,0.4-0.2,0.7-0.4,0.7s-0.4-0.3-0.4-0.7s0.2-0.7,0.4-0.7S507.3,233.1,507.3,233.5z"/>
		<g>
			<path class="st43" d="M503.9,224.4c0,0,0.1,0,0.1,0C504,224.4,503.9,224.4,503.9,224.4z"/>
			<path class="st43" d="M502.9,224.3c0,0,0.2-0.6,1-0.6c0.8,0,1,0.6,1,0.6s-0.4,0.1-0.9,0.1c1.3,0,2.3-0.2,2.3-0.2
				s-0.6-1.4-2.4-1.4s-2.4,1.4-2.4,1.4c0.8,0.1,1.6,0.2,2.3,0.2C503.6,224.3,503.3,224.3,502.9,224.3z"/>
		</g>
		<path class="st43" d="M499.4,231v1.5c0,0.5,0.6,0.9,1.4,0.9h6.3c0.7,0,1.4-0.4,1.4-0.9V231H499.4z"/>
		<path class="st43" d="M507.1,224.2h-6.3c-0.7,0-1.4,0.4-1.4,0.9v5.6h9v-5.6C508.5,224.6,507.8,224.2,507.1,224.2z M505.9,228.3
			H502v-2.9h3.9V228.3z"/>
	</g>
</g>
<g>
	<path class="st27" d="M328.7,393.1c0,1.9-1.5,3.4-3.3,3.4h-52.2c-1.8,0-3.3-1.5-3.3-3.4v-34.8c0-1.9,1.5-3.4,3.3-3.4h52.2
		c1.8,0,3.3,1.5,3.3,3.4V393.1z"/>
	<rect x="273.5" y="358.6" class="st47" width="48.8" height="34.1"/>
	<rect x="274.3" y="359.6" class="st27" width="47.2" height="32.2"/>
	<circle class="st47" cx="297.9" cy="372.7" r="5.3"/>
	<g>
		<path class="st57" d="M297.9,365.7c-3.9,0-7,3.1-7,7c0,3.9,3.1,7,7,7c3.9,0,7-3.1,7-7C304.9,368.8,301.8,365.7,297.9,365.7z
			 M297.9,379c-3.5,0-6.3-2.8-6.3-6.3c0-3.5,2.8-6.3,6.3-6.3c3.5,0,6.3,2.8,6.3,6.3C304.2,376.2,301.4,379,297.9,379z"/>
	</g>
	<path class="st57" d="M318.2,361.1c0,0.4-0.4,0.8-0.8,0.8s-0.8-0.4-0.8-0.8c0-0.4,0.4-0.8,0.8-0.8S318.2,360.7,318.2,361.1z"/>
	<path class="st57" d="M320.9,361.1c0,0.4-0.4,0.8-0.8,0.8c-0.4,0-0.8-0.4-0.8-0.8c0-0.4,0.4-0.8,0.8-0.8
		C320.5,360.3,320.9,360.7,320.9,361.1z"/>
	<rect x="274.3" y="362.5" class="st57" width="47.2" height="0.4"/>
	<rect x="325" y="372.6" class="st7" width="0.8" height="6.2"/>
	<g>
		<g class="st48">
			<polygon class="st7" points="274.3,391.8 274.3,359.6 321.5,359.6 			"/>
		</g>
		<g class="st48">
			<polygon class="st7" points="321.5,391.8 289.5,391.8 321.5,370.2 			"/>
		</g>
	</g>
	<linearGradient id="SVGID_11_" gradientUnits="userSpaceOnUse" x1="269.8662" y1="375.7226" x2="328.7493" y2="375.7226">
		<stop  offset="0" style="stop-color:#FFEDB8"/>
		<stop  offset="1" style="stop-color:#49007D"/>
	</linearGradient>
	<path class="st66" d="M325.4,354.9h-52.2c-1.8,0-3.3,1.5-3.3,3.4v34.8c0,1.9,1.5,3.4,3.3,3.4h52.2c1.8,0,3.3-1.5,3.3-3.4v-34.8
		C328.7,356.4,327.3,354.9,325.4,354.9z"/>
	<g>
		<rect x="293.9" y="370.2" class="st43" width="0.2" height="3.3"/>
		<path class="st43" d="M294.1,369.8v3.7l0.6,0.7h7.2C301.9,374.2,300.6,369.7,294.1,369.8z M294.9,372.2V371c0,0,2.1-0.2,3,1.3
			H294.9z"/>
		<rect x="295.5" y="371.9" class="st43" width="1.5" height="0.2"/>
		<rect x="294" y="374.4" class="st43" width="7.9" height="0.2"/>
	</g>
	<g>
		<circle class="st47" cx="289.2" cy="385.1" r="2.9"/>
		<circle class="st47" cx="297.9" cy="385.1" r="2.9"/>
		<circle class="st47" cx="306.6" cy="385.1" r="2.9"/>
		<g>
			<path class="st7" d="M306.6,383.2c-1,0-1.8,0.8-1.8,1.8c0,1,0.8,1.8,1.8,1.8c1,0,1.8-0.8,1.8-1.8
				C308.4,384,307.6,383.2,306.6,383.2z M306.6,386c-0.5,0-1-0.4-1-1c0-0.5,0.4-1,1-1s1,0.4,1,1C307.6,385.5,307.1,386,306.6,386z"
				/>
			<path class="st7" d="M307.1,383.2c0,0.2-0.2,0.4-0.5,0.4s-0.5-0.2-0.5-0.4c0-0.2,0.2-0.4,0.5-0.4S307.1,383,307.1,383.2z"/>
			<path class="st7" d="M307.1,386.8c0,0.2-0.2,0.4-0.5,0.4s-0.5-0.2-0.5-0.4c0-0.2,0.2-0.4,0.5-0.4S307.1,386.5,307.1,386.8z"/>
			<path class="st7" d="M308.2,384.1c-0.2,0.2-0.5,0.2-0.7,0c-0.2-0.2-0.2-0.5,0-0.7c0.2-0.2,0.5-0.2,0.7,0
				C308.4,383.6,308.4,383.9,308.2,384.1z"/>
			<path class="st7" d="M305.7,386.6c-0.2,0.2-0.5,0.2-0.7,0c-0.2-0.2-0.2-0.5,0-0.7c0.2-0.2,0.5-0.2,0.7,0
				C305.9,386.1,305.9,386.4,305.7,386.6z"/>
			<path class="st7" d="M308.4,385.5c-0.2,0-0.4-0.2-0.4-0.5c0-0.3,0.2-0.5,0.4-0.5c0.2,0,0.4,0.2,0.4,0.5
				C308.8,385.3,308.6,385.5,308.4,385.5z"/>
			<path class="st7" d="M304.8,385.5c-0.2,0-0.4-0.2-0.4-0.5c0-0.3,0.2-0.5,0.4-0.5c0.2,0,0.4,0.2,0.4,0.5
				C305.3,385.3,305.1,385.5,304.8,385.5z"/>
			<path class="st7" d="M307.5,386.6c-0.2-0.2-0.2-0.5,0-0.7c0.2-0.2,0.5-0.2,0.7,0s0.2,0.5,0,0.7
				C308,386.8,307.7,386.8,307.5,386.6z"/>
			<path class="st7" d="M305,384.1c-0.2-0.2-0.2-0.5,0-0.7c0.2-0.2,0.5-0.2,0.7,0c0.2,0.2,0.2,0.5,0,0.7
				C305.5,384.2,305.2,384.3,305,384.1z"/>
		</g>
		<g>
			<path class="st7" d="M289.2,383c-1.1,0-2,0.9-2,2c0,1.1,0.9,2,2,2c1.1,0,2-0.9,2-2C291.2,383.9,290.3,383,289.2,383z
				 M289.2,386.6c-0.9,0-1.6-0.7-1.6-1.6s0.7-1.6,1.6-1.6s1.6,0.7,1.6,1.6S290.1,386.6,289.2,386.6z"/>
			<rect x="289.1" y="383.9" class="st7" width="0.2" height="0.6"/>
			<path class="st7" d="M289.4,384.1v0.2c0.3,0.1,0.6,0.4,0.6,0.7c0,0.4-0.3,0.8-0.8,0.8s-0.8-0.3-0.8-0.8c0-0.4,0.2-0.7,0.6-0.7
				v-0.2c-0.4,0.1-0.8,0.5-0.8,0.9c0,0.5,0.4,0.9,0.9,0.9c0.5,0,0.9-0.4,0.9-0.9C290.1,384.5,289.8,384.2,289.4,384.1z"/>
		</g>
		<path class="st7" d="M299.1,384.4v-0.9h0c0-0.4-0.5-0.8-1.2-0.8c-0.6,0-1.2,0.3-1.2,0.8h0v0.9c-0.2,0-0.3,0.2-0.3,0.4v1.9
			c0,0.2,0.2,0.4,0.4,0.4h2.2c0.2,0,0.4-0.2,0.4-0.4v-1.9C299.4,384.6,299.3,384.5,299.1,384.4z M298.2,386.4h-0.6l0.1-0.8
			c-0.1-0.1-0.1-0.1-0.1-0.2c0-0.2,0.1-0.3,0.3-0.3c0.2,0,0.3,0.1,0.3,0.3c0,0.1,0,0.2-0.1,0.2L298.2,386.4z M298.6,384.4h-1.4v-0.7
			c0-0.2,0.3-0.4,0.7-0.4c0.4,0,0.7,0.2,0.7,0.4V384.4z"/>
	</g>
</g>
<g>
	<path class="st67" d="M587.4,451c0,1.7-1.6,3-3.6,3h-33.4c-2,0-3.6-1.3-3.6-3v-30.3c0-1.7,1.6-3,3.6-3h33.4c2,0,3.6,1.3,3.6,3V451z
		"/>
	<path class="st47" d="M582.7,459.1c-0.3,1.6-1.8,2.8-3.4,2.8H555c-1.7,0-3.1-1.2-3.4-2.8l-1-5.1h33.2L582.7,459.1z"/>
	<path class="st47" d="M582.7,412.7c-0.3-1.6-1.8-2.8-3.4-2.8H555c-1.7,0-3.1,1.2-3.4,2.8l-1,5h33.2L582.7,412.7z"/>
	<rect x="587.4" y="426.2" class="st27" width="1.2" height="7.2"/>
	<rect x="587.4" y="438.6" class="st27" width="1.2" height="7.2"/>
	<rect x="550.2" y="423.8" class="st68" width="33.8" height="24"/>
	<g>
		<path class="st69" d="M584,418.4c1.2,0,2.1,1,2.1,2.1h-38.5c0,0,0.4-2.1,2.4-2.1H584z"/>
		<path class="st69" d="M549.8,452.9c-1.2,0-2.1-1-2.1-2.1l0,0h38.5c0,0-0.4,2.1-2.4,2.1H549.8z"/>
	</g>
	<rect x="551.2" y="424.8" class="st27" width="31.9" height="22.1"/>
	<g>
		<polygon class="st70" points="583.7,454 550.5,454 551.1,456.6 583.2,456.6 		"/>
	</g>
	<g>
		<polygon class="st70" points="550.5,417.7 583.7,417.7 583.4,416 550.9,416 		"/>
	</g>
	<g>
		<polygon class="st70" points="582.9,458.2 551.4,458.2 551.5,459 582.7,459 		"/>
		<path class="st70" d="M582.3,460.2H552c0.2,0.3,0.4,0.6,0.7,0.8h29C581.9,460.7,582.1,460.5,582.3,460.2z"/>
	</g>
	<g>
		<path class="st70" d="M582.2,411.5h-30.2c-0.2,0.3-0.3,0.5-0.4,0.8h30.9C582.5,412.1,582.4,411.8,582.2,411.5z"/>
		<path class="st70" d="M579.3,409.9H555c-0.7,0-1.3,0.2-1.8,0.5h27.9C580.6,410.1,579.9,409.9,579.3,409.9z"/>
		<polygon class="st70" points="582.9,413.5 551.4,413.5 551.2,414.3 583,414.3 		"/>
	</g>
	<rect x="560.4" y="460.6" class="st71" width="13.6" height="1.3"/>
	<rect x="551.2" y="425.8" class="st72" width="31.9" height="0.4"/>
	<rect x="551.2" y="445.4" class="st72" width="31.9" height="0.4"/>
	<g>
		<g class="st48">
			<polygon class="st7" points="551.2,446.9 551.2,424.8 583.1,424.8 			"/>
		</g>
		<g class="st48">
			<polygon class="st7" points="583.1,446.9 564.3,446.9 583.1,434.2 			"/>
		</g>
	</g>
	<linearGradient id="SVGID_12_" gradientUnits="userSpaceOnUse" x1="546.8665" y1="435.9312" x2="588.6041" y2="435.9312">
		<stop  offset="0" style="stop-color:#FFEDB8"/>
		<stop  offset="1" style="stop-color:#49007D"/>
	</linearGradient>
	<path class="st73" d="M588.6,433.4v-7.2h-1.2v-5.5c0-1.7-1.6-3-3.6-3h-0.1c-0.3-1.2-0.4-1.7-0.4-1.7c-0.6-3-0.7-3.4-0.9-4
		c0,0,0-0.1,0-0.1c-0.7-1.4-2-1.9-3.1-1.9H555c-1.1,0-2.4,0.6-3.1,1.9c0,0,0,0.1,0,0.1c-0.3,0.6-0.3,0.9-1.3,5.7h-0.1
		c-2,0-3.6,1.3-3.6,3V451c0,1.7,1.6,3,3.6,3h0.1l1,5.1c0.3,1.6,1.7,2.8,3.4,2.8h5.4h13.6h5.4c1.6,0,3.1-1.2,3.4-2.8l0-0.1l0,0
		c0.2-0.9,0.7-3.6,1-5.1h0.1c2,0,3.6-1.3,3.6-3v-5.1h1.2v-7.2h-1.2v-5.2H588.6z"/>
	<g>
		<g>
			<path class="st57" d="M567.1,427.8c-2.9,0-5.3,2.4-5.3,5.3c0,2.9,2.4,5.3,5.3,5.3c2.9,0,5.3-2.4,5.3-5.3
				C572.4,430.2,570.1,427.8,567.1,427.8z M567.1,437.9c-2.6,0-4.8-2.1-4.8-4.8c0-2.6,2.1-4.8,4.8-4.8c2.6,0,4.8,2.1,4.8,4.8
				C571.9,435.7,569.8,437.9,567.1,437.9z"/>
		</g>
		<path class="st47" d="M571.2,433.1c0,2.2-1.8,4-4,4c-2.2,0-4-1.8-4-4c0-2.2,1.8-4,4-4C569.4,429.1,571.2,430.9,571.2,433.1z"/>
		<g>
			<circle class="st47" cx="561.2" cy="441.8" r="2"/>
			<path class="st47" d="M569.1,441.8c0,1.1-0.9,2-2,2s-2-0.9-2-2c0-1.1,0.9-2,2-2S569.1,440.7,569.1,441.8z"/>
			<path class="st47" d="M575,441.8c0,1.1-0.9,2-2,2c-1.1,0-2-0.9-2-2c0-1.1,0.9-2,2-2C574.2,439.8,575,440.7,575,441.8z"/>
			<g>
				<path class="st7" d="M573.1,440.5c-0.7,0-1.2,0.6-1.2,1.2c0,0.7,0.6,1.2,1.2,1.2s1.2-0.6,1.2-1.2
					C574.3,441.1,573.7,440.5,573.1,440.5z M573.1,442.4c-0.4,0-0.7-0.3-0.7-0.7c0-0.4,0.3-0.7,0.7-0.7c0.4,0,0.7,0.3,0.7,0.7
					C573.7,442.1,573.4,442.4,573.1,442.4z"/>
				<path class="st7" d="M573.4,440.6c0,0.2-0.1,0.3-0.3,0.3s-0.3-0.1-0.3-0.3c0-0.2,0.1-0.3,0.3-0.3S573.4,440.4,573.4,440.6z"/>
				<path class="st7" d="M573.4,443c0,0.2-0.1,0.3-0.3,0.3s-0.3-0.1-0.3-0.3c0-0.2,0.1-0.3,0.3-0.3S573.4,442.8,573.4,443z"/>
				<path class="st7" d="M574.1,441.1c-0.1,0.1-0.3,0.1-0.4,0c-0.1-0.1-0.1-0.3,0-0.4c0.1-0.1,0.3-0.1,0.4,0
					C574.3,440.8,574.3,441,574.1,441.1z"/>
				<path class="st7" d="M572.4,442.9c-0.1,0.1-0.3,0.1-0.4,0c-0.1-0.1-0.1-0.3,0-0.4c0.1-0.1,0.3-0.1,0.4,0
					C572.5,442.5,572.6,442.7,572.4,442.9z"/>
				<path class="st7" d="M574.3,442.1c-0.2,0-0.3-0.1-0.3-0.3c0-0.2,0.1-0.3,0.3-0.3s0.3,0.1,0.3,0.3
					C574.6,442,574.4,442.1,574.3,442.1z"/>
				<path class="st7" d="M571.9,442.1c-0.2,0-0.3-0.1-0.3-0.3c0-0.2,0.1-0.3,0.3-0.3c0.2,0,0.3,0.1,0.3,0.3
					C572.2,442,572,442.1,571.9,442.1z"/>
				
					<ellipse transform="matrix(0.7071 -0.7071 0.7071 0.7071 -144.887 535.4561)" class="st7" cx="573.9" cy="442.6" rx="0.3" ry="0.3"/>
				
					<ellipse transform="matrix(0.7071 -0.7071 0.7071 0.7071 -144.1808 533.7512)" class="st7" cx="572.2" cy="440.9" rx="0.3" ry="0.3"/>
			</g>
			<g>
				<path class="st7" d="M561.2,440.4c-0.8,0-1.4,0.6-1.4,1.4s0.6,1.4,1.4,1.4c0.8,0,1.4-0.6,1.4-1.4S562,440.4,561.2,440.4z
					 M561.2,442.9c-0.6,0-1.1-0.5-1.1-1.1c0-0.6,0.5-1.1,1.1-1.1c0.6,0,1.1,0.5,1.1,1.1C562.3,442.4,561.8,442.9,561.2,442.9z"/>
				<rect x="561.1" y="441" class="st7" width="0.2" height="0.4"/>
				<path class="st7" d="M561.3,441.2v0.1c0.2,0.1,0.4,0.3,0.4,0.5c0,0.3-0.2,0.5-0.5,0.5c-0.3,0-0.5-0.2-0.5-0.5
					c0-0.2,0.2-0.4,0.4-0.5v-0.1c-0.3,0.1-0.5,0.3-0.5,0.6c0,0.3,0.3,0.6,0.6,0.6c0.3,0,0.6-0.3,0.6-0.6
					C561.8,441.5,561.6,441.2,561.3,441.2z"/>
			</g>
			<path class="st7" d="M567.9,441.4v-0.6h0c0-0.3-0.4-0.5-0.8-0.5c-0.4,0-0.8,0.2-0.8,0.5h0v0.6c-0.1,0-0.2,0.1-0.2,0.3v1.3
				c0,0.2,0.1,0.3,0.3,0.3h1.5c0.2,0,0.3-0.1,0.3-0.3v-1.3C568.2,441.5,568.1,441.4,567.9,441.4z M567.3,442.8h-0.4l0.1-0.5
				c0,0-0.1-0.1-0.1-0.2c0-0.1,0.1-0.2,0.2-0.2s0.2,0.1,0.2,0.2c0,0.1,0,0.1-0.1,0.2L567.3,442.8z M567.6,441.4h-0.9v-0.5
				c0-0.2,0.2-0.3,0.5-0.3c0.3,0,0.5,0.1,0.5,0.3V441.4z"/>
		</g>
		<g>
			<path class="st43" d="M568.8,430.1h-3.3c-0.3,0-0.5,0.2-0.5,0.5v1.4h0.8c0,0,0.2,0.3,0.8,0.3l0,0.3h0.5l0-0.3
				c0.5-0.1,0.8-0.3,0.8-0.3h0.8v3.3H565v0.2c0,0.3,0.2,0.5,0.5,0.5h3.3c0.3,0,0.5-0.2,0.5-0.5v-4.9
				C569.3,430.3,569.1,430.1,568.8,430.1z"/>
			<path class="st43" d="M565.6,434.6v0.5h2.5v-1.3c0-0.2-0.2-0.4-0.4-0.4h0v-0.6h-1.1H566h-0.7H565v0.4v1.1v0.4h0.4H565.6z
				 M568.1,433.8v0.5h-2.4v-0.5c0-0.2,0.2-0.4,0.4-0.4h1.7C567.9,433.4,568.1,433.6,568.1,433.8z M565.3,433.2h0.7v0.2h0
				c-0.2,0-0.4,0.2-0.4,0.4v0.5h-0.3V433.2z"/>
		</g>
	</g>
</g>
<g>
	<path class="st61" d="M216.4,213.2c0,2.7-2.9,4.9-6.4,4.9h-60.2c-3.6,0-6.4-2.2-6.4-4.9v-49c0-2.7,2.9-4.9,6.4-4.9H210
		c3.6,0,6.4,2.2,6.4,4.9V213.2z"/>
	<polygon class="st27" points="218.9,218.2 140.9,218.2 137.6,215.4 222.3,215.4 	"/>
	<rect x="137.6" y="212.3" class="st74" width="84.7" height="3.1"/>
	<circle class="st27" cx="179.9" cy="162.4" r="1.1"/>
	<path class="st27" d="M184,162.4c0,0.3-0.3,0.6-0.6,0.6c-0.3,0-0.6-0.3-0.6-0.6s0.3-0.6,0.6-0.6C183.8,161.9,184,162.1,184,162.4z"
		/>
	<path class="st27" d="M167.7,216h24.4v-0.2c0-0.9-0.8-1.7-1.7-1.7h-21c-0.9,0-1.7,0.8-1.7,1.7V216z"/>
	<circle class="st27" cx="205.2" cy="213.9" r="0.7"/>
	<circle class="st27" cx="208.1" cy="213.9" r="0.7"/>
	<path class="st27" d="M211.6,213.9c0,0.4-0.3,0.7-0.7,0.7c-0.4,0-0.7-0.3-0.7-0.7c0-0.4,0.3-0.7,0.7-0.7
		C211.3,213.2,211.6,213.5,211.6,213.9z"/>
	<rect x="147.7" y="164.9" class="st47" width="65" height="44.8"/>
	<rect x="149.1" y="166.3" class="st27" width="62.2" height="42.2"/>
	<rect x="149.1" y="166.3" class="st75" width="62.2" height="4.5"/>
	<circle class="st57" cx="205.2" cy="168.1" r="1.1"/>
	<g>
		<path class="st57" d="M180.2,174.5c-5.5,0-9.9,4.4-9.9,9.9c0,5.5,4.4,9.9,9.9,9.9c5.5,0,9.9-4.4,9.9-9.9
			C190.1,179,185.7,174.5,180.2,174.5z M180.2,193.4c-4.9,0-8.9-4-8.9-8.9c0-4.9,4-8.9,8.9-8.9c4.9,0,8.9,4,8.9,8.9
			C189.2,189.4,185.2,193.4,180.2,193.4z"/>
	</g>
	<circle class="st57" cx="208.9" cy="168.1" r="1.1"/>
	
		<ellipse transform="matrix(0.2298 -0.9732 0.9732 0.2298 -40.6711 317.4582)" class="st47" cx="180.2" cy="184.4" rx="7.5" ry="7.5"/>
	<rect x="149.1" y="170.1" class="st57" width="62.2" height="0.6"/>
	<rect x="149.1" y="170.1" class="st57" width="62.2" height="0.6"/>
	<linearGradient id="SVGID_13_" gradientUnits="userSpaceOnUse" x1="137.5587" y1="188.7996" x2="222.2537" y2="188.7996">
		<stop  offset="0" style="stop-color:#FFEDB8"/>
		<stop  offset="1" style="stop-color:#49007D"/>
	</linearGradient>
	<path class="st76" d="M216.4,212.3v-48.1c0-2.7-2.9-4.9-6.4-4.9h-60.2c-3.6,0-6.4,2.2-6.4,4.9v48.1h-5.8v3.1l3.3,2.8h78.1l3.3-2.8
		v-3.1H216.4z"/>
	<g>
		<path class="st47" d="M172.9,200.2c0,2.1-1.7,3.7-3.7,3.7s-3.7-1.7-3.7-3.7s1.7-3.7,3.7-3.7S172.9,198.1,172.9,200.2z"/>
		<path class="st47" d="M184,200.2c0,2.1-1.7,3.7-3.7,3.7c-2.1,0-3.7-1.7-3.7-3.7s1.7-3.7,3.7-3.7C182.3,196.4,184,198.1,184,200.2z
			"/>
		<path class="st47" d="M195,200.2c0,2.1-1.7,3.7-3.7,3.7s-3.7-1.7-3.7-3.7s1.7-3.7,3.7-3.7S195,198.1,195,200.2z"/>
		<g>
			<path class="st7" d="M191.3,197.7c-1.3,0-2.3,1-2.3,2.3c0,1.3,1,2.3,2.3,2.3c1.3,0,2.3-1,2.3-2.3
				C193.6,198.8,192.6,197.7,191.3,197.7z M191.3,201.3c-0.7,0-1.3-0.6-1.3-1.3s0.6-1.3,1.3-1.3s1.3,0.6,1.3,1.3
				S192,201.3,191.3,201.3z"/>
			<path class="st7" d="M191.9,197.8c0,0.3-0.3,0.6-0.6,0.6s-0.6-0.3-0.6-0.6c0-0.3,0.3-0.6,0.6-0.6S191.9,197.5,191.9,197.8z"/>
			<path class="st7" d="M191.9,202.3c0,0.3-0.3,0.6-0.6,0.6s-0.6-0.3-0.6-0.6c0-0.3,0.3-0.6,0.6-0.6S191.9,202,191.9,202.3z"/>
			<path class="st7" d="M193.3,198.9c-0.2,0.2-0.6,0.2-0.8,0c-0.2-0.2-0.3-0.6,0-0.8c0.2-0.2,0.6-0.2,0.8,0
				C193.5,198.3,193.6,198.7,193.3,198.9z"/>
			<path class="st7" d="M190.1,202.1c-0.2,0.2-0.6,0.2-0.8,0c-0.2-0.2-0.3-0.6,0-0.8c0.2-0.2,0.6-0.2,0.8,0
				C190.3,201.5,190.4,201.9,190.1,202.1z"/>
			<path class="st7" d="M193.6,200.7c-0.3,0-0.6-0.3-0.6-0.6s0.3-0.6,0.6-0.6s0.6,0.3,0.6,0.6S193.9,200.7,193.6,200.7z"/>
			<path class="st7" d="M189,200.7c-0.3,0-0.6-0.3-0.6-0.6s0.3-0.6,0.6-0.6c0.3,0,0.6,0.3,0.6,0.6S189.4,200.7,189,200.7z"/>
			
				<ellipse transform="matrix(0.7071 -0.7071 0.7071 0.7071 -86.0949 195.4621)" class="st7" cx="192.9" cy="201.7" rx="0.6" ry="0.6"/>
			<path class="st7" d="M189.3,198.9c-0.2-0.2-0.2-0.6,0-0.8c0.2-0.2,0.6-0.3,0.8,0s0.2,0.6,0,0.8
				C189.9,199.1,189.5,199.1,189.3,198.9z"/>
		</g>
		<g>
			<path class="st7" d="M169.2,197.5c-1.4,0-2.5,1.1-2.5,2.5s1.1,2.5,2.5,2.5s2.5-1.1,2.5-2.5S170.6,197.5,169.2,197.5z
				 M169.2,202.1c-1.2,0-2.1-0.9-2.1-2.1c0-1.2,0.9-2.1,2.1-2.1c1.2,0,2.1,0.9,2.1,2.1C171.2,201.2,170.3,202.1,169.2,202.1z"/>
			<rect x="169" y="198.7" class="st7" width="0.3" height="0.8"/>
			<path class="st7" d="M169.4,198.9v0.2c0.4,0.1,0.7,0.5,0.7,0.9c0,0.5-0.4,1-1,1s-1-0.4-1-1c0-0.5,0.3-0.8,0.7-0.9v-0.2
				c-0.5,0.1-1,0.6-1,1.2c0,0.7,0.5,1.2,1.2,1.2s1.2-0.5,1.2-1.2C170.3,199.5,169.9,199,169.4,198.9z"/>
		</g>
		<path class="st7" d="M181.7,199.3v-1.2h0c0-0.5-0.7-1-1.5-1c-0.8,0-1.5,0.4-1.5,1h0v1.2c-0.2,0.1-0.4,0.3-0.4,0.5v2.4
			c0,0.3,0.2,0.6,0.6,0.6h2.8c0.3,0,0.6-0.2,0.6-0.6v-2.4C182.2,199.6,182,199.4,181.7,199.3z M180.6,201.9h-0.8l0.1-1
			c-0.1-0.1-0.1-0.2-0.1-0.3c0-0.2,0.2-0.4,0.4-0.4c0.2,0,0.4,0.2,0.4,0.4c0,0.1-0.1,0.2-0.1,0.3L180.6,201.9z M181.1,199.3h-1.7
			v-0.9c0-0.3,0.4-0.6,0.9-0.6c0.5,0,0.9,0.3,0.9,0.6V199.3z"/>
	</g>
	<g>
		<rect x="176.6" y="188.3" class="st43" width="7.3" height="0.3"/>
		<polygon class="st43" points="180.2,179.6 175.1,183.7 175.8,183.7 180.2,180.3 184.6,183.7 185.4,183.7 		"/>
		<path class="st43" d="M184.1,183.6l-3.9-3l-3.9,3l0,0l0.4,4.5h7L184.1,183.6L184.1,183.6z M181.3,186.5h-2.1v-2.1h2.1V186.5z"/>
	</g>
	<g class="st48">
		<polygon class="st7" points="149.1,208.4 149.1,166.3 211.3,166.3 		"/>
	</g>
</g>
</svg>
