<?xml version="1.0" encoding="utf-8"?>
<!-- Generator: Adobe Illustrator 22.0.0, SVG Export Plug-In . SVG Version: 6.00 Build 0)  -->
<svg version="1.1" id="Object" xmlns="http://www.w3.org/2000/svg" xmlns:xlink="http://www.w3.org/1999/xlink" x="0px" y="0px"
	 viewBox="0 0 491.7 490.4" style="enable-background:new 0 0 491.7 490.4;" xml:space="preserve">
<style type="text/css">
	.st0{fill:#CDCDCD;}
	.st1{fill:#60A4C2;}
	.st2{fill:#9900A6;}
	.st3{fill:#EEBD3A;}
	.st4{fill:#CACACA;}
	.st5{fill:#C84B2A;}
	.st6{fill:#A9C732;}
	.st7{fill:#828282;}
	.st8{fill:#BDC2C5;}
	.st9{fill:#979797;}
	.st10{fill:#505050;}
	.st11{fill:#636363;}
	.st12{fill:#999999;}
	.st13{fill:#FFFFFF;}
</style>
<g>
	<g>
		<rect x="333.3" y="72.3" class="st0" width="46.4" height="2"/>
	</g>
	<g>
		<rect x="169.1" y="304" class="st1" width="50.6" height="2.8"/>
	</g>
	<g>
		<polygon class="st2" points="191.8,289.8 116.1,289.8 97.2,272.9 99.1,270.8 117.2,287 191.8,287 		"/>
	</g>
	<g>
		
			<rect x="149.5" y="105.4" transform="matrix(0.6174 -0.7867 0.7867 0.6174 -75.2472 183.4056)" class="st3" width="2.8" height="127.3"/>
	</g>
	<g>
		
			<rect x="160.2" y="133.9" transform="matrix(0.6145 -0.7889 0.7889 0.6145 -86.6531 199.6042)" class="st4" width="1.4" height="109.1"/>
	</g>
	<g>
		<polygon class="st5" points="293.4,200.3 292.4,199.3 304.1,186.7 304.1,161.1 305.5,161.1 305.5,187.2 		"/>
	</g>
	<g>
		<polygon class="st0" points="295.2,209.1 293.1,207.2 309.8,189.2 309.8,109.8 303,109.8 303,106.9 312.6,106.9 312.6,190.3 		"/>
	</g>
	<g>
		<rect x="310.1" y="235.1" class="st0" width="47.1" height="2.8"/>
	</g>
	<g>
		<rect x="317.2" y="243.6" class="st0" width="77.5" height="2.8"/>
	</g>
	<g>
		<path class="st0" d="M361.3,242.1c-3.3,0-6-2.7-6-6c0-3.3,2.7-6,6-6s6,2.7,6,6C367.3,239.4,364.6,242.1,361.3,242.1z M361.3,232.8
			c-1.9,0-3.4,1.5-3.4,3.4c0,1.9,1.5,3.4,3.4,3.4c1.9,0,3.4-1.5,3.4-3.4C364.7,234.3,363.2,232.8,361.3,232.8z"/>
	</g>
	<g>
		<path class="st0" d="M477.7,244.3c-3.3,0-6-2.7-6-6c0-3.3,2.7-6,6-6s6,2.7,6,6C483.7,241.6,481,244.3,477.7,244.3z M477.7,234.9
			c-1.9,0-3.4,1.5-3.4,3.4c0,1.9,1.5,3.4,3.4,3.4c1.9,0,3.4-1.5,3.4-3.4C481.1,236.4,479.5,234.9,477.7,234.9z"/>
	</g>
	<g>
		<path class="st0" d="M129.9,406.4c-3.3,0-6-2.7-6-6s2.7-6,6-6c3.3,0,6,2.7,6,6S133.2,406.4,129.9,406.4z M129.9,397
			c-1.9,0-3.4,1.5-3.4,3.4c0,1.9,1.5,3.4,3.4,3.4c1.9,0,3.4-1.5,3.4-3.4C133.2,398.5,131.7,397,129.9,397z"/>
	</g>
	<g>
		<path class="st0" d="M233.9,474.4c-3.3,0-6-2.7-6-6s2.7-6,6-6s6,2.7,6,6S237.2,474.4,233.9,474.4z M233.9,465
			c-1.9,0-3.4,1.5-3.4,3.4c0,1.9,1.5,3.4,3.4,3.4s3.4-1.5,3.4-3.4C237.3,466.5,235.8,465,233.9,465z"/>
	</g>
	<g>
		<path class="st0" d="M327.3,46.5c-3.3,0-6-2.7-6-6c0-3.3,2.7-6,6-6s6,2.7,6,6C333.3,43.8,330.7,46.5,327.3,46.5z M327.3,37.1
			c-1.9,0-3.4,1.5-3.4,3.4s1.5,3.4,3.4,3.4c1.9,0,3.4-1.5,3.4-3.4S329.2,37.1,327.3,37.1z"/>
	</g>
	<g>
		<path class="st3" d="M98,133.1c-3.3,0-6-2.7-6-6c0-3.3,2.7-6,6-6c3.3,0,6,2.7,6,6C104,130.4,101.3,133.1,98,133.1z M98,123.7
			c-1.9,0-3.4,1.5-3.4,3.4s1.5,3.4,3.4,3.4c1.9,0,3.4-1.5,3.4-3.4S99.8,123.7,98,123.7z"/>
	</g>
	<g>
		<path class="st0" d="M137.6,246.8c-3.3,0-6-2.7-6-6s2.7-6,6-6c3.3,0,6,2.7,6,6S140.9,246.8,137.6,246.8z M137.6,237.4
			c-1.9,0-3.4,1.5-3.4,3.4c0,1.9,1.5,3.4,3.4,3.4c1.9,0,3.4-1.5,3.4-3.4C141,239,139.5,237.4,137.6,237.4z"/>
	</g>
	<g>
		<path class="st0" d="M186.7,354.7c-3.3,0-6-2.7-6-6c0-3.3,2.7-6,6-6c3.3,0,6,2.7,6,6C192.7,352,190,354.7,186.7,354.7z
			 M186.7,345.3c-1.9,0-3.4,1.5-3.4,3.4c0,1.9,1.5,3.4,3.4,3.4c1.9,0,3.4-1.5,3.4-3.4C190.1,346.8,188.6,345.3,186.7,345.3z"/>
	</g>
	<g>
		<path class="st0" d="M343.6,351.2c-3.3,0-6-2.7-6-6c0-3.3,2.7-6,6-6s6,2.7,6,6C349.6,348.5,346.9,351.2,343.6,351.2z M343.6,341.8
			c-1.9,0-3.4,1.5-3.4,3.4c0,1.9,1.5,3.4,3.4,3.4s3.4-1.5,3.4-3.4C347,343.3,345.5,341.8,343.6,341.8z"/>
	</g>
	<g>
		<path class="st0" d="M186.7,43.9c-3.3,0-6-2.7-6-6c0-3.3,2.7-6,6-6c3.3,0,6,2.7,6,6C192.7,41.2,190,43.9,186.7,43.9z M186.7,34.5
			c-1.9,0-3.4,1.5-3.4,3.4c0,1.9,1.5,3.4,3.4,3.4c1.9,0,3.4-1.5,3.4-3.4C190.1,36.1,188.6,34.5,186.7,34.5z"/>
	</g>
	<g>
		<rect x="316.2" y="274.8" class="st1" width="70.3" height="1.4"/>
	</g>
	<g>
		<rect x="318.8" y="268" class="st3" width="58.8" height="2.8"/>
	</g>
	<g>
		<rect x="172.9" y="236.5" class="st0" width="47.1" height="1.4"/>
	</g>
	<g>
		<rect x="171.5" y="249.9" class="st0" width="47.1" height="1.4"/>
	</g>
	<g>
		<rect x="149.6" y="259.5" class="st0" width="56.5" height="1.4"/>
	</g>
	<g>
		<polygon class="st0" points="57.5,176.8 39.7,159.8 39.7,148.1 42.3,148.1 42.3,158.7 59.3,174.9 		"/>
	</g>
	<g>
		<polygon class="st0" points="304.5,208.2 302.4,206.3 348.5,156.6 398.6,156.6 398.6,159.4 349.7,159.4 		"/>
	</g>
	<g>
		<polygon class="st0" points="287.5,241.7 285.4,239.8 331.5,190.1 350.9,190.1 350.9,192.9 332.7,192.9 		"/>
	</g>
	<g>
		<polygon class="st0" points="304.9,214.3 303.9,213.4 349.7,163.9 399.5,163.9 399.5,165.3 350.3,165.3 		"/>
	</g>
	<g>
		<rect x="161.3" y="244.6" class="st0" width="30.3" height="2.6"/>
	</g>
	<g>
		<rect x="134.4" y="266.2" class="st0" width="52" height="2.6"/>
	</g>
	<g>
		<rect x="185.2" y="41.5" class="st0" width="2.6" height="46"/>
	</g>
	<g>
		<polygon class="st6" points="455.8,391.8 415.2,391.8 362.8,357.6 364.3,355.4 416,389.1 455.8,389.1 		"/>
	</g>
	<g>
		<polygon class="st0" points="193.3,94.6 190.6,94.6 190.6,60.3 210.8,39.1 212.7,41 193.3,61.3 		"/>
	</g>
	<g>
		<rect x="61.2" y="329.8" class="st0" width="34.7" height="1.4"/>
	</g>
	<g>
		<polygon class="st0" points="271.4,428.7 269.4,426.7 285,410.4 318.2,410.4 318.2,413.2 286.2,413.2 		"/>
	</g>
	<g>
		<rect x="294.5" y="403.3" class="st4" width="25.1" height="1.4"/>
	</g>
	<g>
		<polygon class="st0" points="196.5,388.5 193.6,388.5 193.6,310.3 214.2,310.3 214.2,313.1 196.5,313.1 		"/>
	</g>
	<g>
		<rect x="185.1" y="353.1" class="st0" width="2.8" height="38.9"/>
	</g>
	<g>
		<rect x="194.5" y="415.3" class="st0" width="2.8" height="41.9"/>
	</g>
	<g>
		
			<rect x="316.1" y="271.5" transform="matrix(0.5457 -0.838 0.838 0.5457 -111.6456 403.9633)" class="st0" width="1.4" height="66.8"/>
	</g>
	<g>
		<rect x="270.4" y="321.3" class="st4" width="1.4" height="54.5"/>
	</g>
	<g>
		<rect x="263.1" y="321.1" class="st0" width="2.8" height="34"/>
	</g>
	<g>
		<polygon class="st3" points="204.6,204.4 110.3,130.3 110.3,77.8 111.8,77.8 111.8,129.6 205.4,203.3 		"/>
	</g>
	<g>
		<rect x="228.2" y="152.6" class="st0" width="2.8" height="51.7"/>
	</g>
	<g>
		<polygon class="st0" points="133.4,199.7 102.7,199.7 52.2,157 54.1,154.8 103.7,196.8 133.4,196.8 		"/>
	</g>
	<g>
		<polygon class="st0" points="420.5,184.1 401.7,184.1 351.3,141.4 353.1,139.2 402.8,181.2 420.5,181.2 		"/>
	</g>
	<g>
		<polygon class="st0" points="435,178.4 404.5,178.4 404.3,178.2 354.3,135.9 355.2,134.8 405,177 435,177 		"/>
	</g>
	<g>
		
			<rect x="381.4" y="119.5" transform="matrix(0.6459 -0.7634 0.7634 0.6459 19.0238 345.6034)" class="st0" width="1.4" height="65.5"/>
	</g>
	<g>
		<rect x="418" y="382.1" class="st0" width="26.1" height="2.6"/>
	</g>
	<g>
		<rect x="261.2" y="54.7" class="st0" width="2.8" height="134.9"/>
	</g>
	<g>
		<rect x="216.7" y="169.6" class="st4" width="1.4" height="40.3"/>
	</g>
	<g>
		<rect x="220.5" y="178.4" class="st0" width="2.6" height="31.5"/>
	</g>
	<g>
		<rect x="333" y="77.9" class="st0" width="27.2" height="1"/>
	</g>
	<g>
		<rect x="34.5" y="252.9" class="st0" width="38.2" height="1.4"/>
	</g>
	<g>
		<path class="st0" d="M110,206.8c0.1,1.9-1.5,3.5-3.4,3.6c-1.9,0.1-3.5-1.5-3.6-3.4c-0.1-1.9,1.5-3.5,3.4-3.6
			C108.4,203.4,110,204.9,110,206.8z"/>
	</g>
	<g>
		
			<rect x="92.2" y="181" transform="matrix(0.6204 -0.7843 0.7843 0.6204 -118.5385 147.3146)" class="st0" width="1.4" height="30.2"/>
	</g>
	<g>
		
			<rect x="104" y="177.7" transform="matrix(0.6308 -0.7759 0.7759 0.6308 -127.5975 161.043)" class="st0" width="2.8" height="73.8"/>
	</g>
	<g>
		<path class="st7" d="M46.8,148.1c0,3-2.4,5.4-5.4,5.4c-3,0-5.4-2.4-5.4-5.4c0-3,2.4-5.4,5.4-5.4C44.4,142.7,46.8,145.1,46.8,148.1
			z"/>
	</g>
	<g>
		<path class="st1" d="M174,305.8c0,3.1-2.5,5.5-5.5,5.5c-3.1,0-5.5-2.5-5.5-5.5c0-3.1,2.5-5.5,5.5-5.5
			C171.5,300.3,174,302.8,174,305.8z"/>
	</g>
	<g>
		<g>
			<g>
				<path class="st8" d="M300.5,107.9c0,2.8-2.2,5-5,5c-2.8,0-5-2.2-5-5c0-2.8,2.2-5,5-5C298.3,102.9,300.5,105.2,300.5,107.9z"/>
			</g>
		</g>
		<g>
			<g>
				<path class="st8" d="M295.5,115.4c-4.1,0-7.4-3.3-7.4-7.4c0-4.1,3.3-7.4,7.4-7.4c4.1,0,7.4,3.3,7.4,7.4
					C303,112,299.6,115.4,295.5,115.4z M295.5,101.6c-3.5,0-6.3,2.8-6.3,6.3c0,3.5,2.8,6.3,6.3,6.3c3.5,0,6.3-2.8,6.3-6.3
					C301.9,104.5,299,101.6,295.5,101.6z"/>
			</g>
		</g>
	</g>
	<g>
		<g>
			<g>
				<path class="st8" d="M300.4,373.1c0,2.8-2.2,5-5,5c-2.8,0-5-2.2-5-5c0-2.8,2.2-5,5-5C298.2,368.1,300.4,370.3,300.4,373.1z"/>
			</g>
		</g>
		<g>
			<g>
				<path class="st8" d="M295.4,380.5c-4.1,0-7.4-3.3-7.4-7.4c0-4.1,3.3-7.4,7.4-7.4c4.1,0,7.4,3.3,7.4,7.4
					C302.8,377.2,299.5,380.5,295.4,380.5z M295.4,366.8c-3.5,0-6.3,2.8-6.3,6.3c0,3.5,2.8,6.3,6.3,6.3c3.5,0,6.3-2.8,6.3-6.3
					C301.7,369.6,298.9,366.8,295.4,366.8z"/>
			</g>
		</g>
	</g>
	<g>
		<g>
			<g>
				<path class="st2" d="M98,266.6c0,2.8-2.2,5-5,5c-2.8,0-5-2.2-5-5c0-2.8,2.2-5,5-5C95.8,261.6,98,263.8,98,266.6z"/>
			</g>
		</g>
		<g>
			<g>
				<path class="st2" d="M93,274c-4.1,0-7.4-3.3-7.4-7.4c0-4.1,3.3-7.4,7.4-7.4c4.1,0,7.4,3.3,7.4,7.4C100.5,270.7,97.1,274,93,274z
					 M93,260.3c-3.5,0-6.3,2.8-6.3,6.3c0,3.5,2.8,6.3,6.3,6.3c3.5,0,6.3-2.8,6.3-6.3C99.3,263.1,96.5,260.3,93,260.3z"/>
			</g>
		</g>
	</g>
	<g>
		<g>
			<polygon class="st9" points="208.9,200.9 115.6,128 115.6,66 121.9,66 122,124.9 212.9,195.9 			"/>
		</g>
		<g>
			<g>
				<path class="st9" d="M276.7,190.5h-6.4v-39.5c0-10.7,8.7-19.5,19.5-19.5h6.8v6.4h-6.8c-7.2,0-13.1,5.9-13.1,13.1V190.5z"/>
			</g>
		</g>
		<g>
			<g>
				<rect x="313.5" y="221.6" class="st9" width="27.6" height="6.4"/>
			</g>
			<g>
				<path class="st9" d="M355.7,228h-17.3v-6.4h17.3c7.2,0,13.1-5.9,13.1-13.1v-21.7h6.4v21.7C375.1,219.3,366.4,228,355.7,228z"/>
			</g>
		</g>
		<g>
			<g>
				<rect x="250.6" y="143.9" class="st9" width="6.4" height="41.6"/>
			</g>
			<g>
				<path class="st9" d="M257,146.7h-6.4v-39.3c0-7.2-5.9-13.1-13.1-13.1h-6.4V88h6.4c10.7,0,19.5,8.7,19.5,19.5V146.7z"/>
			</g>
		</g>
		<g>
			<g>
				<rect x="177.7" y="292.9" class="st9" width="19.9" height="6.4"/>
			</g>
			<g>
				<path class="st9" d="M145.9,319.4h-6.4v-7.1c0-10.7,8.7-19.5,19.5-19.5h21.6v6.4H159c-7.2,0-13.1,5.9-13.1,13.1V319.4z"/>
			</g>
		</g>
		<g>
			<g>
				<path class="st9" d="M126.4,346h-2.6v-6.4h2.6c7.2,0,13.1-5.9,13.1-13.1v-15h6.4v15C145.9,337.2,137.2,346,126.4,346z"/>
			</g>
		</g>
		<g>
			<g>
				<g>
					<path class="st9" d="M207.6,369.2h-6.4c0-10.7,8.7-19.5,19.5-19.5h9.7v6.4h-9.7C213.5,356.1,207.6,361.9,207.6,369.2z"/>
				</g>
			</g>
			<g>
				<g>
					<path class="st9" d="M233.3,356.1h-9.5v-6.4h9.5c7.2,0,13.1-5.9,13.1-13.1v-16h6.4v16C252.7,347.3,244,356.1,233.3,356.1z"/>
				</g>
			</g>
		</g>
		<g>
			
				<ellipse transform="matrix(0.9999 -1.514593e-02 1.514593e-02 0.9999 -2.0019 4.5337)" class="st9" cx="298.3" cy="134.4" rx="8.3" ry="8.3"/>
		</g>
		<g>
			<g>
				<polygon class="st9" points="342.2,284.6 354,284.7 345.1,296.1 				"/>
			</g>
			<g>
				<g>
					<polygon class="st10" points="407.6,348.4 395.8,348.4 404.6,336.9 					"/>
				</g>
				<g>
					<path class="st10" d="M400.6,346.6l-8.5-5.6l3.5-5.3l8.5,5.6L400.6,346.6z M383.3,335.1l-8.8-5.9l3.5-5.3l8.8,5.9L383.3,335.1z
						 M365.6,323.4l-8.8-5.9l3.5-5.3l8.8,5.9L365.6,323.4z M347.9,311.6l-8.8-5.9l3.5-5.3l8.8,5.9L347.9,311.6z M330.2,299.9
						l-8.8-5.9l3.5-5.3l8.8,5.9L330.2,299.9z"/>
				</g>
			</g>
			<g>
				
					<rect x="380.8" y="267.9" transform="matrix(0.5499 -0.8352 0.8352 0.5499 -88.7246 461.6938)" class="st9" width="6.4" height="90.5"/>
			</g>
		</g>
		<g>
			<g>
				<g>
					<path class="st10" d="M179.3,284.2h-10.6v-6.4h10.6V284.2z M158.1,284.2h-10.6v-6.4h10.6V284.2z M136.8,284.2h-5.9
						c-1.9,0-3.7-0.3-5.5-0.8l1.8-6.1c1.2,0.4,2.5,0.5,3.7,0.5h5.9V284.2z M115.2,276.2c-2.4-3.3-3.7-7.3-3.7-11.5v-0.4h6.4v0.4
						c0,2.8,0.9,5.5,2.5,7.7L115.2,276.2z M117.8,253.7h-6.4v-10.6h6.4V253.7z"/>
				</g>
			</g>
			<g>
				<g>
					<path class="st10" d="M31.9,227.3h-3.1c-10.7,0-19.5-8.7-19.5-19.5v-8.5h6.4v8.5c0,7.2,5.9,13.1,13.1,13.1h3.1V227.3z"/>
				</g>
			</g>
			<g>
				<g>
					<path class="st10" d="M31.9,227.3h-3.1c-10.7,0-19.5-8.7-19.5-19.5v-8.5h6.4v8.5c0,7.2,5.9,13.1,13.1,13.1h3.1V227.3z"/>
				</g>
			</g>
			<g>
				<g>
					<path class="st10" d="M15.7,200H9.4v-3.1c0-10.7,8.7-19.5,19.5-19.5H31v6.4h-2.1c-7.2,0-13.1,5.9-13.1,13.1V200z"/>
				</g>
			</g>
			<g>
				<g>
					<path class="st10" d="M15.7,200H9.4v-3.1c0-10.7,8.7-19.5,19.5-19.5H31v6.4h-2.1c-7.2,0-13.1,5.9-13.1,13.1V200z"/>
				</g>
			</g>
			<g>
				<polygon class="st10" points="41.4,180.5 29.3,189.9 29.3,171.2 				"/>
			</g>
			<g>
				<g>
					<path class="st10" d="M117.8,243.4h-6.4v-3.1c0-7.2-5.9-13.1-13.1-13.1H31v-6.4h67.3c10.7,0,19.5,8.7,19.5,19.5V243.4z"/>
				</g>
			</g>
		</g>
		<g>
			<rect x="319.2" y="252.1" class="st9" width="63.7" height="6.4"/>
		</g>
	</g>
	<g>
		<path class="st6" d="M364,362.3c-3,0-5.4-2.4-5.4-5.4c0-3,2.4-5.4,5.4-5.4c3,0,5.4,2.4,5.4,5.4C369.4,359.9,367,362.3,364,362.3z"
			/>
	</g>
	<g>
		<path class="st0" d="M157.9,250.7c-3,0-5.4-2.4-5.4-5.4c0-3,2.4-5.4,5.4-5.4c3,0,5.4,2.4,5.4,5.4
			C163.3,248.3,160.9,250.7,157.9,250.7z"/>
	</g>
	<g>
		<polygon class="st0" points="296.7,365.7 294.1,365.7 294.1,322.7 271.5,307.8 272.9,305.6 296.7,321.3 		"/>
	</g>
	<g>
		
			<rect x="310" y="288.4" transform="matrix(0.5523 -0.8336 0.8336 0.5523 -129.9126 404.1306)" class="st0" width="2.6" height="69.2"/>
	</g>
	<g>
		<path class="st0" d="M382.6,436.1c-3.3,0-6-2.7-6-6s2.7-6,6-6s6,2.7,6,6S385.9,436.1,382.6,436.1z M382.6,426.7
			c-1.9,0-3.4,1.5-3.4,3.4c0,1.9,1.5,3.4,3.4,3.4s3.4-1.5,3.4-3.4C385.9,428.2,384.4,426.7,382.6,426.7z"/>
	</g>
	<g>
		
			<rect x="370.5" y="413.3" transform="matrix(0.564 -0.8258 0.8258 0.564 -186.4554 491.136)" class="st0" width="2.6" height="17.6"/>
	</g>
	<g>
		<g>
			<g>
				<path class="st6" d="M221.2,35.1c0,2.8-2.2,5-5,5c-2.8,0-5-2.2-5-5c0-2.8,2.2-5,5-5C219,30.1,221.2,32.3,221.2,35.1z"/>
			</g>
		</g>
		<g>
			<g>
				<path class="st6" d="M216.2,42.5c-4.1,0-7.4-3.3-7.4-7.4c0-4.1,3.3-7.4,7.4-7.4c4.1,0,7.4,3.3,7.4,7.4
					C223.6,39.2,220.3,42.5,216.2,42.5z M216.2,28.8c-3.5,0-6.3,2.8-6.3,6.3c0,3.5,2.8,6.3,6.3,6.3c3.5,0,6.3-2.8,6.3-6.3
					C222.5,31.6,219.7,28.8,216.2,28.8z"/>
			</g>
		</g>
	</g>
	<g>
		<g>
			<g>
				<path class="st8" d="M270.3,433.2c0,2.8-2.2,5-5,5c-2.8,0-5-2.2-5-5c0-2.8,2.2-5,5-5C268,428.2,270.3,430.4,270.3,433.2z"/>
			</g>
		</g>
		<g>
			<g>
				<path class="st8" d="M265.3,440.6c-4.1,0-7.4-3.3-7.4-7.4c0-4.1,3.3-7.4,7.4-7.4c4.1,0,7.4,3.3,7.4,7.4
					C272.7,437.3,269.4,440.6,265.3,440.6z M265.3,426.9c-3.5,0-6.3,2.8-6.3,6.3c0,3.5,2.8,6.3,6.3,6.3c3.5,0,6.3-2.8,6.3-6.3
					C271.6,429.7,268.8,426.9,265.3,426.9z"/>
			</g>
		</g>
	</g>
	<g>
		<polygon class="st0" points="230.3,466.3 213.9,450.7 213.9,432.6 216.8,432.6 216.8,449.5 232.2,464.3 		"/>
	</g>
	<g>
		<path class="st5" d="M308.2,158.9c0.1,1.9-1.5,3.5-3.4,3.6c-1.9,0.1-3.5-1.5-3.6-3.4c-0.1-1.9,1.5-3.5,3.4-3.6
			C306.5,155.4,308.1,157,308.2,158.9z"/>
	</g>
	<g>
		<path class="st1" d="M393.1,275.4c0.1,1.9-1.5,3.5-3.4,3.6c-1.9,0.1-3.5-1.5-3.6-3.4c-0.1-1.9,1.5-3.5,3.4-3.6
			C391.5,272,393.1,273.5,393.1,275.4z"/>
	</g>
	<g>
		<path class="st1" d="M220.9,167.3c0.1,1.9-1.5,3.5-3.4,3.6c-1.9,0.1-3.5-1.5-3.6-3.4c-0.1-1.9,1.5-3.5,3.4-3.6
			C219.2,163.8,220.8,165.3,220.9,167.3z"/>
	</g>
	<g>
		<path class="st7" d="M438.9,177.5c0.1,1.9-1.5,3.5-3.4,3.6c-1.9,0.1-3.5-1.5-3.6-3.4c-0.1-1.9,1.5-3.5,3.4-3.6
			C437.2,174.1,438.8,175.6,438.9,177.5z"/>
	</g>
	<g>
		<path class="st7" d="M119.7,153.2c0.1,1.9-1.5,3.5-3.4,3.6c-1.9,0.1-3.5-1.5-3.6-3.4c-0.1-1.9,1.5-3.5,3.4-3.6
			C118.1,149.8,119.7,151.3,119.7,153.2z"/>
	</g>
	<g>
		<path class="st7" d="M150.7,260.2c0.1,1.9-1.5,3.5-3.4,3.6c-1.9,0.1-3.5-1.5-3.6-3.4c-0.1-1.9,1.5-3.5,3.4-3.6
			C149.1,256.8,150.7,258.3,150.7,260.2z"/>
	</g>
	<g>
		<path class="st7" d="M275.1,373.3c0.1,1.9-1.5,3.5-3.4,3.6c-1.9,0.1-3.5-1.5-3.6-3.4c-0.1-1.9,1.5-3.5,3.4-3.6
			C273.5,369.9,275.1,371.4,275.1,373.3z"/>
	</g>
	<g>
		<rect x="201.9" y="396.2" class="st4" width="1.4" height="54.5"/>
	</g>
	<g>
		<path class="st7" d="M206.7,448.2c0.1,1.9-1.5,3.5-3.4,3.6c-1.9,0.1-3.5-1.5-3.6-3.4c-0.1-1.9,1.5-3.5,3.4-3.6
			C205,444.7,206.6,446.3,206.7,448.2z"/>
	</g>
	<g>
		<path class="st7" d="M298.3,403.9c0.1,1.9-1.5,3.5-3.4,3.6c-1.9,0.1-3.5-1.5-3.6-3.4c-0.1-1.9,1.5-3.5,3.4-3.6
			C296.7,400.5,298.3,402,298.3,403.9z"/>
	</g>
	<g>
		<path class="st0" d="M347.3,327.6c-1.9,0.5-3.8-0.7-4.2-2.5c-0.5-1.9,0.7-3.8,2.5-4.2c1.9-0.5,3.8,0.7,4.2,2.5
			C350.3,325.3,349.2,327.2,347.3,327.6z"/>
	</g>
	<g>
		<path class="st11" d="M65.4,330.2c0.1,1.9-1.5,3.5-3.4,3.6c-1.9,0.1-3.5-1.5-3.6-3.4c-0.1-1.9,1.5-3.5,3.4-3.6
			C63.7,326.8,65.3,328.3,65.4,330.2z"/>
	</g>
	<g>
		
			<rect x="110.9" y="360.1" transform="matrix(0.7171 -0.697 0.697 0.7171 -234.3253 186.2338)" class="st0" width="2.6" height="43.3"/>
	</g>
	<g>
		<path class="st8" d="M139.2,198c0,3.1-2.5,5.5-5.5,5.5c-3.1,0-5.5-2.5-5.5-5.5c0-3.1,2.5-5.5,5.5-5.5
			C136.7,192.4,139.2,194.9,139.2,198z"/>
	</g>
	<g>
		
			<ellipse transform="matrix(0.7071 -0.7071 0.7071 0.7071 -269.6007 273.9687)" class="st8" cx="195.9" cy="462.4" rx="5.5" ry="5.5"/>
	</g>
	<g>
		<polygon class="st4" points="167,386.8 130.4,386.8 130.2,386.6 103.4,360.5 104.4,359.4 131,385.4 167,385.4 		"/>
	</g>
	<g>
		<path class="st7" d="M170.4,385.9c0.1,1.9-1.5,3.5-3.4,3.6c-1.9,0.1-3.5-1.5-3.6-3.4c-0.1-1.9,1.5-3.5,3.4-3.6
			C168.7,382.4,170.3,384,170.4,385.9z"/>
	</g>
	<g>
		<path class="st0" d="M69,253.9c-0.1-1.9,1.5-3.5,3.4-3.6c1.9-0.1,3.5,1.5,3.6,3.4c0.1,1.9-1.5,3.5-3.4,3.6
			C70.7,257.4,69.1,255.8,69,253.9z"/>
	</g>
	<g>
		<rect x="417.9" y="298.7" class="st0" width="52.6" height="1.4"/>
	</g>
	<g>
		<path class="st0" d="M466.9,299.7c-0.1-1.9,1.5-3.5,3.4-3.6c1.9-0.1,3.5,1.5,3.6,3.4c0.1,1.9-1.5,3.5-3.4,3.6
			C468.5,303.1,466.9,301.6,466.9,299.7z"/>
	</g>
	<g>
		<rect x="413.5" y="302.2" class="st0" width="38.2" height="1.4"/>
	</g>
	<g>
		<rect x="283.2" y="38.6" class="st0" width="39.4" height="1.4"/>
	</g>
	<g>
		<path class="st2" d="M286.9,39c0.1,1.9-1.5,3.5-3.4,3.6c-1.9,0.1-3.5-1.5-3.6-3.4c-0.1-1.9,1.5-3.5,3.4-3.6
			C285.3,35.6,286.9,37.1,286.9,39z"/>
	</g>
	<g>
		<rect x="297.6" y="42.2" class="st0" width="26.1" height="1.4"/>
	</g>
	<g>
		<path class="st0" d="M235,149.4c0,3-2.4,5.4-5.4,5.4c-3,0-5.4-2.4-5.4-5.4c0-3,2.4-5.4,5.4-5.4C232.6,144,235,146.4,235,149.4z"/>
	</g>
	<g>
		<rect x="433.4" y="236.9" class="st0" width="40.4" height="2.6"/>
	</g>
	<g>
		
			<rect x="111.8" y="360.6" transform="matrix(0.7071 -0.7071 0.7071 0.7071 -231.7257 189.2086)" class="st0" width="1.4" height="27.4"/>
	</g>
	<g>
		
			<rect x="160.3" y="143.2" transform="matrix(0.6148 -0.7887 0.7887 0.6148 -91.9163 202.1789)" class="st0" width="1.4" height="104"/>
	</g>
	<g>
		
			<rect x="59.9" y="161.2" transform="matrix(0.6849 -0.7287 0.7287 0.6849 -104.2303 97.5313)" class="st0" width="1.4" height="16.2"/>
	</g>
	<g>
		<rect x="274.9" y="308.6" class="st0" width="1.4" height="35.9"/>
	</g>
	<g>
		<rect x="302.6" y="397.5" class="st0" width="15.6" height="1.4"/>
	</g>
	<g>
		
			<rect x="311.2" y="297.9" transform="matrix(0.5363 -0.844 0.844 0.5363 -114.375 405.5583)" class="st0" width="1.4" height="18"/>
	</g>
	<g>
		<rect x="429" y="242.3" class="st0" width="35.9" height="1.4"/>
	</g>
	<g>
		<path class="st0" d="M443.2,132.4c-3.3,0-6-2.7-6-6c0-3.3,2.7-6,6-6c3.3,0,6,2.7,6,6C449.2,129.7,446.5,132.4,443.2,132.4z
			 M443.2,123c-1.9,0-3.4,1.5-3.4,3.4c0,1.9,1.5,3.4,3.4,3.4c1.9,0,3.4-1.5,3.4-3.4C446.6,124.5,445.1,123,443.2,123z"/>
	</g>
	<g>
		<rect x="401.8" y="125.1" class="st0" width="37.6" height="2.6"/>
	</g>
	<g>
		<rect x="397.3" y="130.4" class="st0" width="33" height="1.4"/>
	</g>
	<g>
		<path class="st0" d="M102.7,436.3c-3.3,0-6-2.7-6-6s2.7-6,6-6c3.3,0,6,2.7,6,6S106,436.3,102.7,436.3z M102.7,426.9
			c-1.9,0-3.4,1.5-3.4,3.4c0,1.9,1.5,3.4,3.4,3.4c1.9,0,3.4-1.5,3.4-3.4C106.1,428.4,104.6,426.9,102.7,426.9z"/>
	</g>
	<g>
		<rect x="106.5" y="428.9" class="st0" width="40.4" height="2.6"/>
	</g>
	<g>
		<rect x="115.6" y="436" class="st0" width="35.9" height="1.4"/>
	</g>
	<g>
		<rect x="180.1" y="54.2" class="st0" width="1.4" height="30.2"/>
	</g>
	<g>
		<rect x="197.1" y="63.4" class="st0" width="1.4" height="30.2"/>
	</g>
	<g>
		<rect x="175.1" y="64.3" class="st0" width="1.4" height="32.4"/>
	</g>
	<g>
		<polygon class="st0" points="461.6,273.5 455.2,273.5 447.3,268 448.1,266.9 455.7,272.1 461.6,272.1 		"/>
	</g>
	<g>
		<polygon class="st0" points="461.1,278.4 452.3,278.4 431.5,263.6 432.3,262.5 452.7,277 461.1,277 		"/>
	</g>
	<g>
		<g>
			<g>
				<path class="st1" d="M363.7,192c0,2.8-2.2,5-5,5c-2.8,0-5-2.2-5-5c0-2.8,2.2-5,5-5C361.4,187,363.7,189.2,363.7,192z"/>
			</g>
		</g>
		<g>
			<g>
				<path class="st1" d="M358.7,199.4c-4.1,0-7.4-3.3-7.4-7.4c0-4.1,3.3-7.4,7.4-7.4c4.1,0,7.4,3.3,7.4,7.4
					C366.1,196.1,362.8,199.4,358.7,199.4z M358.7,185.7c-3.5,0-6.3,2.8-6.3,6.3c0,3.5,2.8,6.3,6.3,6.3c3.5,0,6.3-2.8,6.3-6.3
					C365,188.5,362.1,185.7,358.7,185.7z"/>
			</g>
		</g>
	</g>
	<g>
		<g>
			<g>
				<path class="st8" d="M391.5,73.3c0,2.8-2.2,5-5,5c-2.8,0-5-2.2-5-5c0-2.8,2.2-5,5-5C389.3,68.3,391.5,70.6,391.5,73.3z"/>
			</g>
		</g>
		<g>
			<g>
				<path class="st8" d="M386.5,80.7c-4.1,0-7.4-3.3-7.4-7.4c0-4.1,3.3-7.4,7.4-7.4c4.1,0,7.4,3.3,7.4,7.4
					C393.9,77.4,390.6,80.7,386.5,80.7z M386.5,67c-3.5,0-6.3,2.8-6.3,6.3c0,3.5,2.8,6.3,6.3,6.3c3.5,0,6.3-2.8,6.3-6.3
					C392.8,69.8,390,67,386.5,67z"/>
			</g>
		</g>
	</g>
	<g>
		<g>
			<g>
				<g>
					<path class="st12" d="M322.9,54.5h-3.5v-1.7h-0.8v1.7H313v-1.7h-0.8v1.7h-3.5c-0.4,0-0.7,0.3-0.7,0.7v9.2
						c0,0.4,0.3,0.7,0.7,0.7h14.2c0.4,0,0.7-0.3,0.7-0.7v-9.2C323.7,54.8,323.4,54.5,322.9,54.5z M310.8,58.1c0-0.7,0.6-1.4,1.4-1.4
						c0.7,0,1.4,0.6,1.4,1.4c0,0.7-0.6,1.4-1.4,1.4C311.4,59.5,310.8,58.9,310.8,58.1z M320.4,63.3h-9.1v-1h9.1V63.3z M319.5,59.5
						c-0.7,0-1.4-0.6-1.4-1.4c0-0.7,0.6-1.4,1.4-1.4c0.7,0,1.4,0.6,1.4,1.4C320.8,58.9,320.2,59.5,319.5,59.5z"/>
				</g>
				<g>
					<g>
						<polygon class="st12" points="305.9,74 305.9,74 303.1,74 303.1,74 303.1,66.1 303.1,66.1 305.9,66.1 305.9,66.1 						"/>
					</g>
					<g>
						<polygon class="st12" points="305.9,82.5 305.9,82.5 303.1,82.5 303.1,82.5 303.1,74.6 303.1,74.6 305.9,74.6 305.9,74.6 
													"/>
					</g>
					<g>
						<path class="st12" d="M304.5,82.7c-1.7,0-3.1,1.4-3.1,3.1c0,1.4,0.9,2.6,2.1,3v-1.1c-0.7-0.4-1.2-1.1-1.2-1.9
							c0-1.2,1-2.1,2.2-2.1c1.2,0,2.2,1,2.2,2.1c0,0.8-0.5,1.5-1.2,1.9v1.1c1.2-0.4,2.1-1.6,2.1-3C307.7,84.1,306.2,82.7,304.5,82.7
							z"/>
					</g>
				</g>
				<g>
					<g>
						<polygon class="st12" points="328.6,74 328.6,74 325.8,74 325.8,74 325.8,66.1 325.8,66.1 328.6,66.1 328.6,66.1 						"/>
					</g>
					<g>
						<polygon class="st12" points="328.6,82.5 328.6,82.5 325.8,82.5 325.8,82.5 325.8,74.6 325.8,74.6 328.6,74.6 328.6,74.6 
													"/>
					</g>
					<g>
						<path class="st12" d="M327.2,82.7c-1.7,0-3.1,1.4-3.1,3.1c0,1.4,0.9,2.6,2.1,3v-1.1c-0.7-0.4-1.2-1.1-1.2-1.9
							c0-1.2,1-2.1,2.1-2.1c1.2,0,2.2,1,2.2,2.1c0,0.8-0.5,1.5-1.2,1.9v1.1c1.2-0.4,2.1-1.6,2.1-3C330.4,84.1,329,82.7,327.2,82.7z"
							/>
					</g>
				</g>
				<g>
					<path class="st12" d="M324.5,65.6h-17.3c-0.4,0-0.7,0.3-0.7,0.7v13.1c0,0.4,0.3,0.7,0.7,0.7h17.3c0.4,0,0.7-0.3,0.7-0.7V66.4
						C325.2,66,324.9,65.6,324.5,65.6z M321.7,75.8c0,0.6-0.5,1.1-1.1,1.1h-3.4l2.3-2.3c0.3-0.3,0.3-0.7,0-1c-0.3-0.3-0.7-0.3-1,0
						l-3.3,3.3H311c-0.6,0-1.1-0.5-1.1-1.1V72c0-0.6,0.5-1.1,1.1-1.1h9.6c0.6,0,1.1,0.5,1.1,1.1V75.8z"/>
				</g>
			</g>
			<g>
				<g>
					<g>
						<rect x="310.1" y="81" class="st12" width="4.7" height="7.3"/>
					</g>
				</g>
				<g>
					<g>
						<rect x="310.1" y="89" class="st12" width="4.7" height="3.4"/>
					</g>
				</g>
				<g>
					<path class="st12" d="M315.5,94.4c0,0.8-0.6,1.5-1.3,1.5h-5.3c-0.7,0-1.3-0.7-1.3-1.5l0,0c0-0.9,0.6-1.5,1.3-1.5h5.3
						C314.9,92.9,315.5,93.6,315.5,94.4L315.5,94.4z"/>
				</g>
				<g>
					<g>
						<rect x="317" y="81" class="st12" width="4.7" height="7.3"/>
					</g>
				</g>
				<g>
					<g>
						<rect x="317" y="89" class="st12" width="4.7" height="3.4"/>
					</g>
				</g>
				<g>
					<path class="st12" d="M316.2,94.4c0,0.8,0.6,1.5,1.3,1.5h5.3c0.7,0,1.3-0.7,1.3-1.5l0,0c0-0.9-0.6-1.5-1.3-1.5h-5.3
						C316.8,92.9,316.2,93.6,316.2,94.4L316.2,94.4z"/>
				</g>
			</g>
		</g>
		<g>
			<g>
				<path class="st8" d="M71.6,288.3c0-4-3.9-7.4-9.2-8.4c0.2,0.8,0.3,1.7,0.3,2.5c0,1.8-0.5,3.5-1.5,5.2c-0.9,1.5-2.2,2.9-3.9,4
					c-1.9,1.4-4.2,2.3-6.8,2.9c2.2,1.5,5.3,2.4,8.6,2.4c0.5,0,1,0,1.4-0.1l8.5,3.9l-3.8-5C69.1,294.4,71.6,291.6,71.6,288.3z"/>
			</g>
			<g>
				<path class="st8" d="M61.1,282.4c0-6.1-7.1-11.1-15.9-11.1s-15.9,5-15.9,11.1c0,4.7,4.1,8.7,9.9,10.3l-2.6,7l9.6-6.2
					C54.5,293.1,61.1,288.3,61.1,282.4z"/>
			</g>
		</g>
		<g>
			<path class="st8" d="M276,393c0.1-0.8-0.1-2.1-1-3c-0.4-0.5-1.2-1-2.5-1h-5.8c0-0.8,0-2.1,0-3.3c0.1-1.7-0.9-3.7-1.8-4.8
				c-0.5-0.6-1-0.9-1.5-0.9c-0.2,0-0.3,0-0.5,0c-1.1,0-2.3,0.4-2.6,1.4c-0.1,0.4,0,0.8,0.1,1.3c0.1,0.6,0.3,1.3,0.1,2.4
				c-0.3,1.8-3,6.1-3.9,6.9c-0.3,0.2-0.6,0.4-1,0.5c-0.3-0.7-0.9-1.1-1.6-1.1h-6.3c-0.8,0-1.4,0.6-1.3,1.4l-0.1,12.5
				c0,0,0,0.1,0,0.1c0.1,0.8,0.9,1.5,1.7,1.5h8.1c0.8,0,1.4-0.7,1.3-1.5l-0.1-0.4c0.3,0,0.5,0.1,0.7,0.2c0.7,0.3,4.2,1.6,5.8,1.6
				h7.2c0.5,0,2.1-0.1,2.6-1.5c0.2-0.7,0.1-1.3-0.1-1.8c0-0.1,0-0.1,0-0.1c0,0,0,0,0,0c0.9-0.2,1.5-0.8,1.6-1.7
				c0.2-1.1-0.1-1.8-0.5-2.3c1-0.4,1.5-1.3,1.4-2.5c-0.1-0.9-0.6-1.6-1.2-2.1C275.6,394.1,275.9,393.6,276,393z"/>
		</g>
		<g>
			<g>
				<path class="st11" d="M171,216.2c-0.3,0-0.5,0-0.8,0c0-0.2,0-0.4,0-0.6c0-4.9-4-8.9-8.9-8.9c-4.6,0-8.4,3.5-8.8,8
					c1.6,1.2,2.6,3.1,2.6,5.3c0,0,0,0,0.1,0c3.1,0,5.6,2.4,5.6,5.3c0,1.8-1,3.4-2.4,4.4h12.7l0,0c3.9,0,7.1-3.1,7.1-6.8
					C178.2,219.3,175,216.2,171,216.2z"/>
			</g>
			<g>
				<path class="st11" d="M159.9,225.4c0-2.4-2.1-4.4-4.6-4.4c-0.2,0-0.3,0-0.5,0l-0.6,0.1l0-0.6c0-0.1,0-0.3,0-0.4
					c0-3.2-2.6-5.8-5.8-5.8c-1.5,0-2.9,0.6-4,1.6c-1.1,1-1.7,2.3-1.8,3.8l0,0.5l-0.5-0.1c-0.2,0-0.4,0-0.6,0c-2.7,0-4.8,2.2-4.8,4.8
					c0,2.7,2.2,4.8,4.8,4.8h0.1h13.7h0.1C157.8,229.8,159.9,227.8,159.9,225.4z"/>
			</g>
		</g>
		<g>
			<g>
				<path class="st0" d="M230,326.9h-0.7v-0.6c0-0.1-0.1-0.2-0.2-0.2h-3.5c-0.1,0-0.2,0.1-0.2,0.2v0.6h-2.7l-1.1-1.7
					c0-0.1-0.1-0.3-0.3-0.3h-1.6h-1.5h-1.6c-0.2,0-0.3,0.1-0.3,0.3l-1.1,1.7h-7.3c-0.8,0-1.4,0.6-1.4,1.4V342c0,0.8,0.6,1.4,1.4,1.4
					H230c0.8,0,1.4-0.6,1.4-1.4v-13.7C231.4,327.5,230.8,326.9,230,326.9z M218.9,341.1c-3.3,0-6-2.7-6-6c0-3.3,2.7-6,6-6
					c3.3,0,6,2.7,6,6C224.9,338.4,222.2,341.1,218.9,341.1z"/>
			</g>
			<g>
				<path class="st0" d="M218.9,331.2c-2.2,0-4,1.8-4,4c0,2.2,1.8,4,4,4c2.2,0,4-1.8,4-4C222.9,332.9,221.1,331.2,218.9,331.2z"/>
			</g>
		</g>
		<g>
			<path class="st12" d="M420.9,296.8c0,6.5-11.7,14.6-11.7,14.6s-11.7-8.2-11.7-14.6s8.5-7.5,11.7-2
				C412.2,289.5,420.9,290.4,420.9,296.8z"/>
		</g>
		<g>
			<path class="st11" d="M174,435.2l-1.3,0c0,0,0,13.5,0,17.9c-1.1-0.3-2.6-0.2-4,0.4c-2.6,1-4.2,3.1-3.6,4.7c0.6,1.6,3.2,2,5.8,1
				c2.2-0.8,3.7-2.4,3.7-3.8l0,0v-13.8c1.7,0.7,3.6,3.2,3.6,6c0,2.8-0.7,4-1.1,4.3c-0.6,0.5,0,0.8,0.4,0.5c0.7-0.5,2.3-1.7,2.3-6
				c0-4.3-2.6-6-4.4-8C173.9,436.5,174,435.2,174,435.2z"/>
		</g>
		<g>
			<path class="st2" d="M267.1,42.6l0.4-3c2.6-1.5,4.8-3.2,6.8-5.6c6-7.2,5.4-13.2,5.4-13.2l1.8-2.2l-2.4,1.5c0,0-5.8-1.5-13.8,3.3
				c-2.7,1.6-4.7,3.5-6.5,5.9l-3.1-0.1c0,0-4.3,0.8-9,6.3c0,0,4.8-0.9,7.2,0.9c-0.4,0.6-0.8,1.2-1.2,1.9c0,0-0.2,1.1,1.8,3.5
				c2,2.3,3.2,2.3,3.2,2.3c0.7-0.3,1.4-0.6,2-0.9c1.4,2.7-0.2,7.3-0.2,7.3C265.7,46.8,267.1,42.6,267.1,42.6z M270.5,28.2
				c-0.7-0.8-0.6-2.1,0.2-2.8c0.8-0.7,2.1-0.6,2.8,0.2c0.7,0.8,0.6,2.1-0.2,2.8C272.5,29.1,271.2,29,270.5,28.2z"/>
		</g>
		<g>
			<g>
				<path class="st1" d="M69.1,390.4c-3.1,0-5.7,3.8-5.7,8.5c0,0.2,0,0.5,0,0.7h7.9c0.2-2.5,0.9-4.7,1.8-6.6
					C72.1,391.4,70.7,390.4,69.1,390.4z"/>
			</g>
			<g>
				<path class="st1" d="M69.1,383.1c-2,0-3.6,1.5-3.6,3.4c0,1.9,1.6,3.4,3.6,3.4c2,0,3.6-1.5,3.6-3.4
					C72.7,384.6,71,383.1,69.1,383.1z"/>
			</g>
			<g>
				<path class="st1" d="M87.9,393.4c-1.5-3.1-3.9-5.1-6.7-5.1c-2.6,0-4.9,1.8-6.4,4.6c-1,1.8-1.6,4-1.8,6.4c0,0.5-0.1,1-0.1,1.5
					c0,0.3,0,0.7,0,1h16.6c0-0.3,0-0.7,0-1c0-0.2,0-0.5,0-0.7C89.4,397.7,88.8,395.3,87.9,393.4z"/>
			</g>
			<g>
				<path class="st1" d="M81.2,377.6c-2.9,0-5.3,2.3-5.3,5c0,2.8,2.4,5,5.3,5c2.9,0,5.3-2.3,5.3-5C86.5,379.9,84.2,377.6,81.2,377.6
					z"/>
			</g>
		</g>
		<g>
			<path class="st0" d="M134.8,361.8c0,7.9,6.4,14.4,14.4,14.4c2.7,0,5.4-0.8,7.7-2.2l1.7,3l2.7-5.2l2.7-5.2l-5.8-0.3l-5.8-0.3
				l1.6,2.8c-1.4,1-3.1,1.5-4.8,1.5c-4.7,0-8.6-3.8-8.6-8.6c0-4.7,3.8-8.6,8.6-8.6c2.4,0,4.8,1,6.4,2.9c1.1,1.2,2.9,1.3,4.1,0.2
				c0.6-0.6,1-1.4,1-2.2c0-0.7-0.2-1.4-0.7-1.9c-2.7-3.1-6.6-4.8-10.7-4.8C141.3,347.4,134.8,353.9,134.8,361.8z"/>
		</g>
	</g>
	<g>
		<path class="st5" d="M31.2,259.8c-3.3,0-6-2.7-6-6c0-3.3,2.7-6,6-6s6,2.7,6,6C37.2,257.1,34.5,259.8,31.2,259.8z M31.2,250.5
			c-1.9,0-3.4,1.5-3.4,3.4c0,1.9,1.5,3.4,3.4,3.4c1.9,0,3.4-1.5,3.4-3.4C34.6,252,33.1,250.5,31.2,250.5z"/>
	</g>
	<g>
		<path class="st0" d="M445.5,270.2c-1.6-1-2.1-3.2-1-4.8c1-1.6,3.2-2.1,4.8-1c1.6,1,2.1,3.2,1,4.8
			C449.3,270.8,447.1,271.2,445.5,270.2z"/>
	</g>
	<g>
		<g>
			
				<ellipse transform="matrix(1.784840e-02 -0.9998 0.9998 1.784840e-02 -200.6898 605.2861)" class="st5" cx="207.7" cy="404.8" rx="30.4" ry="30.4"/>
		</g>
		<g>
			<path class="st3" d="M162.9,430.6c1.1,10.2-6.3,19.5-16.6,20.6c-10.2,1.1-19.4-6.3-20.6-16.6c-1.1-10.2,6.3-19.5,16.6-20.6
				C152.6,412.9,161.8,420.3,162.9,430.6z"/>
		</g>
		<g>
			<path class="st2" d="M380.9,396.8c2.5,18.2-10.2,35.1-28.5,37.6c-18.2,2.5-35.1-10.2-37.6-28.5c-2.5-18.2,10.2-35.1,28.5-37.6
				C361.6,365.9,378.4,378.6,380.9,396.8z"/>
		</g>
		<g>
			<path class="st6" d="M444.2,242.4c0,16-13,29-29,29c-16,0-29-13-29-29c0-16,13-29,29-29C431.2,213.3,444.2,226.3,444.2,242.4z"/>
		</g>
		<g>
			<path class="st1" d="M90.8,180.8c0,10.4-8.4,18.8-18.8,18.8c-10.4,0-18.8-8.4-18.8-18.8c0-10.4,8.4-18.8,18.8-18.8
				C82.4,162,90.8,170.4,90.8,180.8z"/>
		</g>
		<g>
			
				<ellipse transform="matrix(0.3537 -0.9354 0.9354 0.3537 -74.3302 399.7724)" class="st1" cx="252.1" cy="253.7" rx="71.1" ry="71.1"/>
		</g>
		<g>
			<path class="st6" d="M119.7,341.4c0,14.5-11.7,26.2-26.2,26.2c-14.5,0-26.2-11.7-26.2-26.2c0-14.5,11.7-26.2,26.2-26.2
				C108,315.2,119.7,326.9,119.7,341.4z"/>
		</g>
		<g>
			<path class="st3" d="M416,135.7c0,25.4-20.6,46-46,46c-25.4,0-46-20.6-46-46c0-25.4,20.6-46,46-46
				C395.4,89.6,416,110.2,416,135.7z"/>
		</g>
		<g>
			<path class="st5" d="M228.3,110.4c0,21.4-17.4,38.8-38.8,38.8c-21.4,0-38.8-17.4-38.8-38.8c0-21.4,17.4-38.8,38.8-38.8
				C211,71.6,228.3,89,228.3,110.4z"/>
		</g>
	</g>
	<g>
		<g>
			<g>
				<path class="st13" d="M373.9,128.6l2.7-1.7c-0.3-1.4-0.7-2.8-1.3-4.1l-3.2,0.2c-0.3-0.6-0.7-1.1-1-1.6l1.5-2.8
					c-0.9-1.1-2-2-3.2-2.9l-2.7,1.8c-0.5-0.3-1.1-0.6-1.7-0.9l-0.1-3.2c-1.3-0.5-2.7-0.8-4.2-0.9l-1.4,2.9c-0.5,0-0.9,0-1.4,0.1
					c-0.2,0-0.3,0-0.5,0.1l-1.7-2.7c-1.4,0.3-2.8,0.7-4.1,1.3l0.2,3.2c-0.6,0.3-1.1,0.7-1.6,1l-2.8-1.5c-1.1,0.9-2,2-2.9,3.2
					l1.8,2.7c-0.3,0.5-0.6,1.1-0.9,1.7l-3.2,0.1c-0.5,1.3-0.7,2.7-0.9,4.2l2.9,1.4c0,0.5,0,0.9,0.1,1.4c0,0.2,0,0.3,0.1,0.5
					l-2.7,1.7c0.3,1.4,0.7,2.8,1.3,4.1l3.2-0.2c0.3,0.6,0.7,1.1,1,1.6l-1.5,2.8c0.9,1.1,2,2,3.2,2.9l2.7-1.8
					c0.5,0.3,1.1,0.6,1.7,0.9l0.1,3.2c1.3,0.5,2.7,0.8,4.2,0.9l1.4-2.9c0.5,0,0.9,0,1.4-0.1c0.2,0,0.3,0,0.5-0.1l1.7,2.7
					c1.4-0.3,2.8-0.7,4.1-1.3l-0.2-3.2c0.6-0.3,1.1-0.7,1.6-1l2.8,1.5c1.1-0.9,2-2,2.9-3.2l-1.8-2.7c0.3-0.5,0.6-1.1,0.9-1.7
					l3.2-0.1c0.5-1.3,0.7-2.7,0.9-4.2l-2.9-1.4c0-0.5,0-0.9-0.1-1.4C373.9,128.9,373.9,128.8,373.9,128.6z M366.4,129.8
					c0.4,4-2.6,7.6-6.7,8c-4,0.4-7.6-2.6-8-6.7c-0.4-4,2.6-7.6,6.7-8C362.5,122.7,366.1,125.7,366.4,129.8z"/>
			</g>
			<g>
				<path class="st13" d="M395.2,136.7c-0.4-0.5-0.9-0.9-1.4-1.3l0.6-2.3c-0.8-0.6-1.7-1.1-2.7-1.4l-1.6,1.8
					c-0.6-0.2-1.2-0.3-1.9-0.4l-0.7-2.3c-1-0.1-2,0-3,0.1l-0.5,2.4c-0.6,0.1-1.2,0.3-1.8,0.6l-1.7-1.7c-0.5,0.2-0.9,0.5-1.3,0.7
					c-0.4,0.3-0.8,0.6-1.2,0.9l0.7,2.3c-0.5,0.4-0.9,0.9-1.3,1.4l-2.3-0.6c-0.6,0.8-1.1,1.7-1.4,2.7l1.8,1.6
					c-0.2,0.6-0.3,1.2-0.4,1.9l-2.3,0.7c-0.1,1,0,2,0.1,3l2.4,0.5c0.1,0.6,0.3,1.2,0.6,1.8l-1.7,1.7c0.2,0.5,0.5,0.9,0.7,1.3
					c0.3,0.4,0.6,0.9,0.9,1.2l2.3-0.7c0.4,0.5,0.9,0.9,1.4,1.3l-0.6,2.4c0.8,0.6,1.7,1.1,2.7,1.4l1.6-1.8c0.6,0.2,1.2,0.3,1.9,0.4
					l0.7,2.3c1,0.1,2,0,3-0.1l0.5-2.4c0.6-0.1,1.2-0.3,1.8-0.6l1.7,1.7c0.5-0.2,0.9-0.5,1.3-0.7c0.4-0.3,0.8-0.6,1.2-0.9l-0.7-2.3
					c0.5-0.4,0.9-0.9,1.3-1.4l2.4,0.6c0.6-0.8,1.1-1.7,1.4-2.7l-1.8-1.6c0.2-0.6,0.3-1.2,0.4-1.9l2.3-0.7c0.1-1,0-2-0.1-3l-2.4-0.5
					c-0.1-0.6-0.3-1.2-0.6-1.8l1.7-1.7c-0.2-0.5-0.5-0.9-0.7-1.3c-0.3-0.4-0.6-0.8-0.9-1.2L395.2,136.7z M390.9,142.2
					c1.5,2.5,0.8,5.7-1.7,7.3c-2.5,1.5-5.7,0.8-7.3-1.7c-1.5-2.5-0.8-5.7,1.7-7.3C386.1,138.9,389.4,139.7,390.9,142.2z"/>
			</g>
		</g>
		<g>
			<g>
				<g>
					<path class="st13" d="M292.5,214.4h-82.9c-1.7,0-3.1,1.3-3.1,2.9v57.8c0,1.6,1.4,2.9,3.1,2.9h82.9c1.7,0,3.1-1.3,3.1-2.9v-57.8
						C295.6,215.7,294.2,214.4,292.5,214.4z M287,268.4c0,1.2-1.1,2.2-2.5,2.2h-66.9c-1.4,0-2.5-1-2.5-2.2V224
						c0-1.2,1.1-2.2,2.5-2.2h66.9c1.4,0,2.5,1,2.5,2.2V268.4z"/>
				</g>
				<g>
					<path class="st13" d="M200.7,280.3v3.8c0,2.1,1.6,3.8,3.5,3.8H298c1.9,0,3.5-1.7,3.5-3.8v-3.8H200.7z M258,284.7h-13.9
						c-0.5,0-0.9-0.4-0.9-1c0-0.5,0.4-1,0.9-1H258c0.5,0,0.9,0.4,0.9,1C259,284.3,258.5,284.7,258,284.7z"/>
				</g>
			</g>
		</g>
		<g>
			<g>
				<path class="st13" d="M397.4,234.1v16.5c0,1.2,1,2.1,2.2,2.1h30.7c1.2,0,2.2-0.9,2.2-2.1v-16.5l-17.5,9.4L397.4,234.1z"/>
			</g>
			<g>
				<path class="st13" d="M430.3,230.9h-30.7c-1.2,0-2.2,1-2.2,2.2v0.4l17.5,8.7l17.5-8.7v-0.4C432.4,231.9,431.5,230.9,430.3,230.9
					z"/>
			</g>
		</g>
		<g>
			<g>
				<path class="st13" d="M367.2,415.5l1.2,0.7c1,0.6,2.4,0,3.2-1.4c0.8-1.3,0.6-2.9-0.3-3.4l-1.2-0.7c-0.4,1.1-0.8,2-1.3,2.8
					C368.2,414.3,367.7,415,367.2,415.5z"/>
			</g>
			<g>
				<path class="st13" d="M326.6,388.1c-4.4,7.4-2,16.9,5.4,21.3c6.6,3.9,14.8,2.4,19.7-3.1l13.8,8.2c1-1,2-2.5,2.8-4.8l-13.8-8.2
					c2.6-6.9-0.1-14.9-6.6-18.8C340.5,378.3,330.9,380.7,326.6,388.1z M349.3,401.6c-3.1,5.2-9.8,6.9-15,3.8
					c-5.2-3.1-6.9-9.8-3.8-15c3.1-5.2,9.8-6.9,15-3.8C350.7,389.7,352.4,396.4,349.3,401.6z"/>
			</g>
		</g>
		<g>
			<g>
				<rect x="166.2" y="95.6" class="st13" width="47.7" height="2.9"/>
			</g>
			<g>
				<rect x="166.2" y="101.2" class="st13" width="47.7" height="2.9"/>
			</g>
			<g>
				<rect x="166.2" y="106.7" class="st13" width="47.7" height="2.9"/>
			</g>
			<g>
				<rect x="166.2" y="112.2" class="st13" width="47.7" height="2.9"/>
			</g>
			<g>
				<rect x="166.2" y="117.8" class="st13" width="47.7" height="2.9"/>
			</g>
			<g>
				<rect x="166.2" y="123.3" class="st13" width="23.7" height="2.9"/>
			</g>
		</g>
		<g>
			<path class="st13" d="M220.9,397.2h-1v-3.2c0-6.8-5.5-12.3-12.3-12.3c-6.8,0-12.3,5.5-12.3,12.3v3.2h-1c-2.1,0-3.7,1.7-3.7,3.7
				v17.7c0,2.1,1.7,3.7,3.7,3.7h26.6c2.1,0,3.7-1.7,3.7-3.7v-17.7C224.7,398.8,223,397.2,220.9,397.2z M200.8,393.9
				c0-3.8,3.1-6.9,6.9-6.9c3.8,0,6.9,3.1,6.9,6.9v3.2h-13.8V393.9z"/>
		</g>
		<g>
			<polygon class="st13" points="144.8,420.5 148.5,427.9 156.6,429.1 150.7,434.9 152.1,443 144.8,439.1 137.6,443 139,434.9 
				133.1,429.1 141.2,427.9 			"/>
		</g>
		<g>
			<path class="st13" d="M78.3,178.5l-2.1,0c-1.2-1.7-2.5-3.1-4.3-4.2c-5.4-3.5-9.4-2.6-9.4-2.6l-1.6-1l1.2,1.5c0,0-0.6,4.1,3.3,9.2
				c1.3,1.7,2.7,2.9,4.5,4l0.2,2.1c0,0,0.8,2.9,5,5.6c0,0-1-3.2,0.1-5c0.4,0.2,0.9,0.4,1.4,0.7c0,0,0.8,0,2.2-1.5
				c1.4-1.6,1.4-2.3,1.4-2.3c-0.3-0.5-0.5-0.9-0.8-1.3c1.7-1.1,5-0.4,5-0.4C81.3,179.1,78.3,178.5,78.3,178.5z M68.2,177.3
				c-0.5,0.6-1.4,0.6-2,0.1c-0.6-0.5-0.6-1.4-0.1-2c0.5-0.6,1.4-0.6,2-0.1C68.7,175.9,68.7,176.8,68.2,177.3z"/>
		</g>
		<g>
			<g>
				<path class="st13" d="M94.8,346.9c-2.4,0-4.3,2-4.3,4.4c0,2.4,2,4.3,4.4,4.3c2.4,0,4.3-2,4.3-4.4
					C99.2,348.8,97.2,346.9,94.8,346.9z"/>
			</g>
			<g>
				<path class="st13" d="M94.6,336.9c-4.8,0.1-9.1,2.5-11.8,6.4l4.5,3.9c1.8-2.4,4.4-3.9,7.4-4c3.1,0,5.9,1.6,7.7,4.1l4.4-3.9
					C104,339.3,99.6,336.8,94.6,336.9z"/>
			</g>
			<g>
				<path class="st13" d="M94.5,326.9c-7.6,0.1-14.4,4.1-18.8,10.2l4.5,3.9c3.4-4.7,8.5-7.8,14.4-7.8c6-0.1,11.4,3,14.9,7.8l4.4-3.9
					C109.3,330.8,102.3,326.8,94.5,326.9z"/>
			</g>
		</g>
	</g>
</g>
</svg>
