<?xml version="1.0" encoding="UTF-8" standalone="no"?>
<svg
   version="1.1"
   id="Layer_1"
   x="0px"
   y="0px"
   width="154"
   height="154"
   viewBox="834 47 154 154"
   xml:space="preserve"
   sodipodi:docname="NFT Standards dGoods Gevelopers.svg"
   inkscape:version="1.1 (c68e22c387, 2021-05-23)"
   xmlns:inkscape="http://www.inkscape.org/namespaces/inkscape"
   xmlns:sodipodi="http://sodipodi.sourceforge.net/DTD/sodipodi-0.dtd"
   xmlns="http://www.w3.org/2000/svg"
   xmlns:svg="http://www.w3.org/2000/svg"><defs
   id="defs479" /><sodipodi:namedview
   id="namedview477"
   pagecolor="#ffffff"
   bordercolor="#666666"
   borderopacity="1.0"
   inkscape:pageshadow="2"
   inkscape:pageopacity="0.0"
   inkscape:pagecheckerboard="0"
   showgrid="false"
   inkscape:showpageshadow="false"
   inkscape:zoom="0.4642387"
   inkscape:cx="951.01938"
   inkscape:cy="52.774575"
   inkscape:window-width="1920"
   inkscape:window-height="1009"
   inkscape:window-x="-8"
   inkscape:window-y="-8"
   inkscape:window-maximized="1"
   inkscape:current-layer="Layer_1" />
<style
   type="text/css"
   id="style2">
	.st0{fill:#FFFFFF;}
	.st1{fill:#EB0029;}
	.st2{fill:#F3BA2F;}
	.st3{fill:#0D61FF;}
	.st4{fill:#EF61AD;}
	.st5{fill:#5F5F5F;}
	.st6{fill:#C8C8C8;}
	.st7{fill:#C3C3C3;}
	.st8{fill:#323232;}
	.st9{fill:#E7E7E7;}
	.st10{fill:#919191;}
	.st11{fill:#464646;}
	.st12{fill:#F9C5E0;}
	.st13{fill:#F8BADB;}
	.st14{fill:#737373;}
	.st15{fill:#959595;}
	.st16{fill:#E6007A;}
	.st17{fill:#808080;}
	.st18{fill:#7B7B7B;}
	.st19{fill:#404040;}
	.st20{fill:#C1C1C1;}
	.st21{fill:#FEFEFE;}
	.st22{fill:#FDFDFD;}
	.st23{fill:#2FAB66;}
	.st24{fill:#F8B133;}
	.st25{fill:#0F6FB6;}
	.st26{fill:#A1185B;}
	.st27{fill:#E10613;}
	.st28{fill:#524998;}
	.st29{fill:#E9C56F;}
	.st30{fill:#AE637D;}
	.st31{fill:#A3225E;}
	.st32{fill:#AF6E82;}
	.st33{fill:#F6B43E;}
	.st34{fill:#EFBE59;}
	.st35{fill:#8592B7;}
	.st36{fill:#ECC266;}
	.st37{fill:#508BBF;}
	.st38{fill:#1C74B8;}
	.st39{fill:#A42C61;}
	.st40{fill:#5BB679;}
	.st41{fill:#76BE88;}
	.st42{fill:#D5D6A5;}
	.st43{fill:#E1CD87;}
	.st44{fill:#6598C2;}
	.st45{fill:#5990C1;}
	.st46{fill:#7E8AB4;}
	.st47{fill:#56509B;}
	.st48{fill:#5B579F;}
	.st49{fill:#3AAD6A;}
	.st50{fill:#DF633B;}
	.st51{fill:#DE7348;}
	.st52{fill:#A3B9C1;}
	.st53{fill:#EDC161;}
	.st54{fill:#4885BD;}
	.st55{fill:#6ABA80;}
	.st56{fill:#9CB0BF;}
	.st57{fill:#8DC698;}
	.st58{fill:#DE6B41;}
	.st59{fill:#DDCF8F;}
	.st60{fill:#2978B9;}
	.st61{fill:#6F75AC;}
	.st62{fill:#70BC84;}
	.st63{fill:#747DAF;}
	.st64{fill:#95B9C6;}
	.st65{fill:#BDBAAF;}
	.st66{fill:#64B97D;}
	.st67{fill:#AA5374;}
	.st68{fill:#AC5A78;}
	.st69{fill:#7983B1;}
	.st70{fill:#605FA2;}
	.st71{fill:#D99C6D;}
	.st72{fill:#85ADC6;}
	.st73{fill:#B69399;}
	.st74{fill:#D8A678;}
	.st75{fill:#8BB2C6;}
	.st76{fill:#93C99C;}
	.st77{fill:#7DA8C5;}
	.st78{fill:#B79C9D;}
	.st79{fill:#ABD3AF;}
	.st80{fill:#D8D49C;}
	.st81{fill:#DBD296;}
	.st82{fill:#B8A5A3;}
	.st83{fill:#AAC1C3;}
	.st84{fill:#B4CDC4;}
	.st85{fill:#DE5A35;}
	.st86{fill:#9EC1C7;}
	.st87{fill:#E11C19;}
	.st88{fill:#34AC68;}
	.st89{fill:#BBAFA9;}
	.st90{fill:#A4D0AA;}
	.st91{fill:#F4B645;}
	.st92{fill:#DC7D4F;}
	.st93{fill:#9ECDA5;}
	.st94{fill:#98CBA0;}
	.st95{fill:#D99465;}
	.st96{fill:#D6AD80;}
	.st97{fill:#5E93C1;}
	.st98{fill:#E21116;}
	.st99{fill:#96A9BD;}
	.st100{fill:#DF5330;}
	.st101{fill:#D4B489;}
	.st102{fill:#B38B93;}
	.st103{fill:#A5C6C7;}
	.st104{fill:#AFC7C3;}
	.st105{fill:#A94C70;}
	.st106{fill:#E1261C;}
	.st107{fill:#D1C199;}
	.st108{fill:#E02F1E;}
	.st109{fill:#D3BB92;}
	.st110{fill:#DE3721;}
	.st111{fill:#0A0A0A;}
	.st112{fill:#050505;}
	.st113{fill:#3B3B3B;}
	.st114{fill:#2C2C2C;}
	.st115{fill:#1C1C1C;}
	.st116{fill:#060606;}
	.st117{fill:#070707;}
	.st118{fill:#080808;}
	.st119{fill:#0D0D0D;}
	.st120{fill:#EA1C24;}
	.st121{fill:#111111;}
	.st122{fill:#4A4A4A;}
	.st123{fill:#101010;}
	.st124{fill:#040404;}
	.st125{fill:#1B1B1B;}
	.st126{fill:#141414;}
	.st127{fill:#0B0B0B;}
	.st128{fill:#0C0C0C;}
	.st129{fill:#575757;}
	.st130{fill:#3F3F3F;}
	.st131{fill:#4F4F4F;}
	.st132{fill:#222222;}
	.st133{fill:#3A3A3A;}
	.st134{fill:#131313;}
	.st135{fill:#252525;}
	.st136{fill:#191919;}
	.st137{fill:#212121;}
	.st138{fill:#1E1E1E;}
	.st139{fill:#545454;}
	.st140{fill:#2D2D2D;}
	.st141{fill:#090909;}
	.st142{fill:#676767;}
	.st143{fill:#272727;}
	.st144{fill:#333333;}
	.st145{fill:#232323;}
	.st146{fill:#181818;}
	.st147{fill:#4D4D4D;}
	.st148{fill:#606060;}
	.st149{fill:#363636;}
	.st150{fill:#757575;}
	.st151{fill:#ABABAB;}
	.st152{fill:#3E3E3E;}
	.st153{fill:#282828;}
	.st154{fill:#5E5E5E;}
	.st155{fill:#686868;}
	.st156{fill:#6B6B6B;}
	.st157{fill:#555555;}
	.st158{fill:#424242;}
	.st159{fill:#888888;}
	.st160{fill:#4B4B4B;}
	.st161{fill:#636363;}
	.st162{fill:#565656;}
	.st163{fill:#585858;}
	.st164{fill:#343434;}
	.st165{fill:#777777;}
	.st166{fill:#7D7D7D;}
	.st167{fill:#535353;}
	.st168{fill:#727272;}
	.st169{fill:#A4A4A4;}
	.st170{fill:#9A9A9A;}
	.st171{fill:#4A9EA1;}
	.st172{fill:#63D3D7;}
	.st173{fill-opacity:0.25;}
	.st174{fill-opacity:4.000000e-002;}
	.st175{fill-opacity:0.13;}
	.st176{fill:#0090FF;}
	.st177{fill:#FF009E;}
	.st178{fill:#8C00F1;}
	.st179{fill:#008298;}
	.st180{fill:#98005E;}
	.st181{fill:#580098;}
	.st182{fill:#988400;}
	.st183{fill:#FFE001;}
	.st184{fill:#00BEDD;}
	.st185{fill:#FFE000;}
	.st186{fill:#3088F9;}
	.st187{fill:#F5A114;}
	.st188{fill:#F6B51A;}
	.st189{fill:#F38E10;}
	.st190{fill:#F38C10;}
	.st191{fill:#F49813;}
	.st192{fill:#F38F11;}
	.st193{fill:#F5AF19;}
	.st194{fill:#F49312;}
	.st195{fill:#F49212;}
	.st196{fill:#F5AA18;}
	.st197{fill:#F5A717;}
	.st198{fill:#F5A617;}
	.st199{fill:#F6B019;}
	.st200{fill:#F5AB18;}
	.st201{fill:#F49B14;}
	.st202{fill:#F5A518;}
	.st203{fill:#F49C15;}
	.st204{fill:#F5A917;}
	.st205{fill:#F49413;}
	.st206{fill:#F49313;}
	.st207{fill:#F5A216;}
	.st208{fill:#F49B15;}
	.st209{fill:#F6B11B;}
	.st210{fill:#F58C07;}
	.st211{fill:#F5AA19;}
	.st212{fill:#F49615;}
	.st213{fill:#F59A16;}
	.st214{fill:#F78C0F;}
	.st215{fill:#F69F0D;}
	.st216{fill:#F6A71B;}
	.st217{fill:#F9B214;}
	.st218{fill:#F49E15;}
	.st219{fill:#F68A02;}
	.st220{fill:#F7920B;}
	.st221{fill:#F78B03;}
	.st222{fill:#F5A316;}
	.st223{fill:#F9A413;}
	.st224{fill:#F9A20C;}
	.st225{fill:#F9B517;}
	.st226{fill:#F49513;}
	.st227{fill:#FACF73;}
	.st228{fill:#F69305;}
	.st229{fill:#F49E16;}
	.st230{fill:#FF060A;}
	.st231{fill:#00D8FF;}
	.st232{fill:none;stroke:#00D8FF;stroke-width:1.3427;}
	.st233{fill:#B3B3B3;}
	.st234{fill:#A6120D;}
	.st235{fill:#DD1B16;}
	.st236{fill:#F2F2F2;}
	.st237{fill:none;}
	.st238{fill:#4DBA87;}
	.st239{fill:#435466;}
</style>
















<g
   id="XMLID_74_"
   transform="matrix(2.9937224,0,0,2.9937289,-6691.5039,-181.50294)">
	<path
   id="XMLID_287_"
   class="st187"
   d="m 2536,99.4 c 0.2,0.1 0.4,0.3 0.7,0.4 0.5,0.3 1.1,0.7 1.2,-0.4 0,-6.5 0,-13 0,-19.5 0,-0.5 0,-1 0.1,-1.6 0,-0.3 0.3,-0.6 0.4,-0.9 0.5,-0.5 1.1,-0.5 1.7,-0.2 0.7,0.4 1,0.9 1,1.7 0,2 0,3.9 0,5.9 0,4.6 0,9.3 0,13.9 0,1.3 0,1.3 1.2,0.7 0.5,-0.2 0.9,-0.5 1.4,-0.7 0.1,0.1 0.1,0.2 0.1,0.3 0,0.1 -0.1,0.3 -0.3,0.4 -0.4,0.3 -0.8,0.7 -1.3,0.9 -1.7,0.7 -1.9,1.8 -0.7,3.2 v 0.1 c -0.3,0.3 -0.5,0.7 -0.5,1.2 0,5.6 0,11.1 0,16.7 0,1 0.3,0.9 1,0.5 0.6,-0.3 1.1,-0.7 1.8,-0.8 0.1,0.1 0.1,0.2 0.1,0.3 -0.3,0.5 -0.9,0.5 -1.2,1 -0.3,0.2 -0.6,0.3 -0.9,0.4 -1,0.4 -1.2,0.8 -1,1.8 0.2,0.6 0.5,0.8 1.1,0.5 0.6,-0.3 1.2,-0.7 2,-0.9 0.3,-0.1 0.6,-0.3 0.9,0 -1.5,1.1 -3.3,1.9 -5,2.7 -0.4,0.2 -1,0.1 -1.3,-0.3 l 0.1,-0.1 c 0.5,0 0.9,0 1.4,0 -0.4,0 -0.9,0 -1.3,0 -0.2,0 -0.4,-0.1 -0.6,-0.2 -0.3,-0.4 -0.5,-0.8 -0.8,-1.2 -0.9,-1 -0.9,-1.3 0.1,-2.2 0.1,-0.1 0.2,-0.2 0.3,-0.3 0.2,-0.2 0.3,-0.5 0.4,-0.7 0.1,-5.8 0.1,-11.7 0,-17.5 -0.3,-0.9 -1.4,-0.9 -1.9,-1.5 -0.4,-1.1 0.1,-2.3 -0.3,-3.4 -0.3,-0.2 0,-0.3 0.1,-0.2 z" />
	<path
   id="XMLID_286_"
   class="st188"
   d="m 2522.2,117.8 c -1.3,-0.5 -2.5,-1.3 -3.7,-2 -0.6,-0.3 -0.8,-0.9 -0.8,-1.6 0,-7.2 0,-14.3 0,-21.5 0,-1.6 1.2,-2.4 2.6,-1.6 1.7,0.9 3.5,1.7 5,2.8 -0.8,0.4 -1.3,-0.3 -1.9,-0.5 -1,-0.3 -1,-0.3 -1,0.7 0,0.9 0.3,1.4 1.1,1.8 0.7,0.4 0.7,0.5 0.4,1 -0.5,0 -0.9,-0.2 -1.3,-0.4 -1,-0.5 -1.2,-0.4 -1.2,0.7 0,1.1 0,2.3 0,3.4 0,3.6 0,7.2 0,10.8 0,1.1 0.1,2.1 1.3,2.6 0.2,0.1 0.3,0.2 0.3,0.4 -0.8,0.7 -0.5,1.6 -0.6,2.5 0,0.2 0,0.6 -0.2,0.9 z" />
	<path
   id="XMLID_285_"
   class="st189"
   d="m 2561,92.9 c -0.1,0.5 -0.5,0.7 -0.9,0.9 -1.2,0.6 -2.3,1.4 -3.6,1.8 -0.7,0.2 -1.3,0.6 -1.7,-0.4 -0.5,-1.3 -0.3,-2.1 0.6,-2.5 0.5,-0.3 0.9,-0.4 0.3,-1.1 -0.5,-0.6 -0.6,-1.4 -0.5,-2.3 0.1,-0.8 0.6,-1.1 1.3,-0.7 0.8,0.5 1.6,0.8 2.4,1.3 0.9,0.3 1.9,0.5 2.3,1.5 -0.2,0.5 -0.2,1 -0.2,1.5 z" />
	<path
   id="XMLID_284_"
   class="st190"
   d="m 2558.3,103.6 c 0.7,-0.5 1.3,-0.7 2.1,-0.2 -0.3,0.2 -0.7,0.1 -1.1,0.1 0.4,0 0.8,-0.1 1.2,0.1 v 0 c 0.3,0.5 0.5,1.1 0.5,1.7 0,3.3 0,6.6 0,9.9 0,0.2 -0.1,0.4 -0.2,0.6 0,0.1 -0.1,0.2 -0.1,0.3 -0.6,0.4 -1.2,1 -1.8,0.7 -0.6,-0.2 -0.3,-1.1 -0.3,-1.6 0,-0.5 -0.1,-0.9 -0.2,-1.3 -0.1,-2.2 -0.2,-4.4 0.1,-6.6 0,-1.3 -0.2,-2.5 -0.2,-3.7 z" />
	<path
   id="XMLID_283_"
   class="st191"
   d="m 2552.5,97.8 c -1.9,1.2 -3.8,2.2 -5.9,3.1 -0.9,-0.1 -1.5,-0.8 -1.3,-1.8 0.1,-0.6 0.4,-1.2 0.8,-1.7 2,-1.2 4.1,-2.4 6.3,-3.4 0.1,0.7 -0.5,0.9 -1,1.1 -0.5,0.3 -0.8,0.7 -0.8,1.2 -0.1,1.1 0.1,1.4 1.2,1.1 0.3,0.2 0.5,0.2 0.7,0.4 z" />
	<path
   id="XMLID_282_"
   class="st192"
   d="m 2558.3,103.6 c 0.7,1.1 0.5,2.3 0.4,3.4 -0.3,2.3 -0.1,4.6 -0.2,6.9 -0.4,-0.1 -0.5,0.9 -1,0.2 0.4,-0.3 0.4,-0.7 0.4,-1.2 0,-1.3 0,-2.5 0,-3.8 0,-1.4 0,-1.4 -1.3,-0.9 -0.5,0.1 -0.9,0.6 -1.5,0.5 -1.2,-1.4 -0.9,-2.6 0.8,-3.9 0.8,-0.4 1.6,-0.9 2.4,-1.2 z" />
	<path
   id="XMLID_281_"
   class="st193"
   d="m 2524.1,96.8 c 0,-0.6 -0.6,-0.6 -0.9,-0.9 -0.8,-0.6 -1.3,-2 -0.9,-2.9 0.2,-0.4 0.4,-0.4 0.7,-0.2 0.8,0.4 1.6,0.6 2.4,0.9 1.4,0.6 2.7,1.3 4,2.1 -0.4,0.3 -0.7,0.1 -1.1,-0.1 -0.8,-0.4 -0.9,-0.3 -1,0.6 -0.1,0.8 0.5,1.4 0.4,2.2 -0.4,0.2 -0.7,0 -1,-0.1 -0.9,-0.4 -2,-0.7 -2.6,-1.6 z" />
	<path
   id="XMLID_280_"
   class="st194"
   d="m 2552.5,97.8 c -0.4,-0.1 -0.7,0.1 -1,0.3 -0.6,0.5 -0.9,0.2 -1.1,-0.4 -0.4,-1.1 0.1,-2.1 1.1,-2.6 0.4,-0.2 0.8,-0.5 1,-0.9 1,-0.7 2,-1.2 3.1,-1.7 0.1,0.2 0.1,0.3 0,0.5 -0.6,0.1 -1,0.3 -0.6,1 0.1,0.1 0,0.3 0,0.4 0,1.5 0.1,1.5 1.5,1.4 -1.3,0.7 -2.6,1.4 -4,2 z" />
	<path
   id="XMLID_279_"
   class="st191"
   d="m 2550.7,89.2 c -1.2,-0.6 -2.3,-1.1 -3.4,-1.9 -0.2,-0.3 -0.5,-0.4 -0.8,-0.5 -1.3,-0.5 -1.3,-1.3 -1.1,-2.6 0.1,-0.8 0.8,-1.1 1.5,-0.7 0.6,0.3 1.1,0.6 1.7,0.8 1.5,0.6 2.9,1.4 4.2,2.3 -0.6,0.4 -1,-0.1 -1.5,-0.3 -0.3,-0.1 -0.6,-0.4 -0.9,-0.2 -0.3,0.2 -0.3,0.6 -0.2,1 0.1,0.4 0.1,0.9 0.4,1.3 0.3,0.2 0.4,0.5 0.1,0.8 z" />
	<path
   id="XMLID_278_"
   class="st195"
   d="m 2556,104.9 c -0.1,0.7 -0.9,0.8 -1.1,1.4 -0.3,0.9 0,1.6 0.3,2.4 -0.4,0.8 -1.3,0.8 -1.9,1.3 -0.1,0.1 -0.2,0.1 -0.3,0.2 -0.7,0.3 -1.4,0.9 -2.2,0.8 -0.2,0 -0.5,0 -0.5,-0.2 -0.1,-0.2 0.1,-0.3 0.3,-0.3 0,0 0.1,0 0.1,-0.1 -0.8,-0.8 -0.8,-1.4 -0.1,-2.2 0.3,-0.4 0.7,-0.6 1.2,-0.9 1.2,-1 2.6,-1.8 4.2,-2.4 z" />
	<path
   id="XMLID_277_"
   class="st196"
   d="m 2531.8,123.2 c -1.2,-0.6 -2.3,-1.1 -3.4,-1.9 -0.9,-0.8 -1.8,-1.5 -1.5,-2.9 0.1,-0.4 0.1,-0.8 0.6,-1 0.4,-0.1 0.8,0.1 1.2,0.1 1.2,0.4 2.3,1.1 3.4,1.7 0.2,0.1 0.5,0.3 0.4,0.6 -0.8,0.5 -1,1 -0.7,2.2 0.1,0.4 0.4,0.8 0,1.2 z" />
	<path
   id="XMLID_276_"
   class="st197"
   d="m 2531.8,123.2 c -0.2,-0.8 -0.5,-1.5 -0.4,-2.4 0,-0.8 0.2,-1.3 1.1,-1 1.4,0.1 2.5,0.8 3.4,1.9 -0.2,0.4 -0.6,0.7 -0.6,1.2 -0.1,1.1 0.2,1.7 1.1,2.3 0.6,0.3 1.2,0.5 1.6,1.2 0.2,0 0.3,0 0.4,0.2 0.1,0 0.1,0.1 0.1,0.1 0,0 0,0.1 -0.1,0.1 l -0.1,0.1 c -2.2,-1.2 -4.3,-2.5 -6.5,-3.7 z" />
	<path
   id="XMLID_275_"
   class="st194"
   d="m 2552.6,116.6 c 1.2,-0.7 2.4,-1.4 3.8,-1.9 0.1,0.6 -0.5,0.9 -0.8,1.3 -0.3,0.4 -0.6,0.7 -0.6,1.2 -0.1,0.8 0.3,1.1 1.1,0.8 0.4,-0.1 0.8,-0.4 1.2,-0.1 -1,0.7 -2.1,1.3 -3.3,1.7 -0.8,0.3 -1.6,0.8 -2.4,1.1 -1.2,-0.7 -0.8,-1.8 -0.8,-2.7 0.4,-0.7 1.3,-0.9 1.8,-1.4 z" />
	<path
   id="XMLID_274_"
   class="st195"
   d="m 2555.6,92.9 c 0,-0.2 0,-0.3 0,-0.5 0.3,-0.4 0,-0.6 -0.3,-0.8 -1,-0.5 -1.9,-1.1 -2.9,-1.7 -0.3,-0.4 -0.4,-1 -0.7,-1.4 -0.4,-0.5 -0.6,-1.1 -0.1,-1.5 0.4,-0.4 1.2,-0.5 1.7,-0.2 0.8,0.4 1.6,0.7 2.3,1.1 1.1,0.5 2.3,1 3.2,1.9 -0.8,-0.4 -1.5,-0.7 -2.3,-1.1 -0.9,-0.4 -1.1,-0.2 -1.2,0.7 -0.1,0.8 0.2,1.6 0.5,1.9 0.8,1.1 0,1.2 -0.2,1.6 z" />
	<path
   id="XMLID_273_"
   class="st191"
   d="m 2552.6,116.6 c -0.4,0.7 -1.2,0.8 -1.7,1.3 -0.1,0.3 -0.2,0.5 -0.5,0.6 -0.6,0.1 -0.8,0.6 -0.9,1.2 -0.2,0.9 0.2,1.3 1.1,1.5 0.1,0.1 0.1,0.1 0.2,0.2 -1.3,0.8 -2.6,1.5 -4,2.1 -0.8,0.3 -1.1,-0.1 -1.2,-0.8 -0.2,-1.5 0.2,-2.3 1.6,-3 0.6,-0.3 1.3,-0.6 1.8,-1 1.2,-0.9 2.4,-1.6 3.6,-2.1 z" />
	<path
   id="XMLID_272_"
   class="st192"
   d="m 2557.3,117.9 c -0.4,-0.1 -0.7,0.1 -1.1,0.3 -1,0.5 -1.4,0.2 -1.5,-0.9 0,-0.6 0.3,-1 0.7,-1.5 0.4,-0.4 0.7,-0.8 1,-1.2 0.3,-0.3 0.6,-0.5 1.1,-0.6 0.4,0.4 0.6,-0.5 1,-0.2 0.5,0.9 0,1.8 0.3,2.8 0.8,0 1.3,-0.4 1.8,-0.9 0.1,-0.1 0.2,-0.1 0.3,0 -1,1.2 -2.4,1.6 -3.6,2.2 z" />
	<path
   id="XMLID_271_"
   class="st198"
   d="m 2536,99.4 c -0.6,0.3 0.2,0.5 0.1,0.9 -0.2,0.8 -0.1,1.8 -0.1,2.6 -0.1,0.1 -0.2,0.1 -0.3,0.1 -1.2,-0.3 -2.2,-1 -3.3,-1.6 -0.3,-0.2 -0.6,-0.4 -0.6,-0.8 0,-0.6 0,-1.2 0.1,-1.8 0.1,-0.8 0.5,-1.2 1.3,-0.9 0.1,0.1 0.3,0.2 0.4,0.2 0.6,0.3 1.2,0.8 1.9,1 0.3,0.1 0.5,0.2 0.5,0.3 z" />
	<path
   id="XMLID_270_"
   class="st199"
   d="m 2528.8,117.7 c -0.4,0.1 -0.7,-0.2 -1.1,-0.2 -0.6,-0.1 -1.2,-0.4 -1.7,-0.8 -0.4,-0.3 -0.8,-0.4 -1.2,0 -0.5,0.4 -0.2,0.7 0,1.1 0.3,0.6 0.6,1 1.2,1.2 0.7,0.2 1.1,0.9 1.6,1.3 0.1,0.1 0,0.3 -0.1,0.4 -1.8,-0.9 -3.6,-1.9 -5.2,-2.9 0,-0.9 0,-1.7 0,-2.6 0,-0.7 0.5,-0.6 0.9,-0.7 0.4,-0.2 0.7,0.1 1.1,0.3 0.3,0.3 0.7,0.5 1.1,0.6 1,0.4 1.9,1.1 2.9,1.6 0.2,0.1 0.5,0.3 0.5,0.7 z" />
	<path
   id="XMLID_269_"
   class="st200"
   d="m 2527.6,98.6 c -0.5,-0.9 -0.8,-1.8 -0.6,-2.9 0.1,-0.6 0.4,-0.8 1,-0.5 0.4,0.2 0.7,0.7 1.3,0.5 0.9,0.3 1.6,0.7 2.3,1.2 -0.2,0.3 -0.5,0.2 -0.8,0.2 -0.7,-0.1 -1,0.3 -0.9,0.9 0.1,0.7 0.1,1.4 1,1.6 0.4,0.1 0.7,0.4 0.4,0.9 -1.3,-0.1 -2.6,-0.7 -3.7,-1.9 z" />
	<path
   id="XMLID_267_"
   class="st201"
   d="m 2549,118.5 c -0.3,0.6 -1,0.8 -1.5,1 -1.4,0.7 -1.9,1.7 -1.6,3.2 0.1,0.6 0.5,0.6 0.9,0.6 -0.7,0.5 -1.4,0.8 -2.2,1 -0.3,0.1 -0.6,0.1 -0.8,0.2 -0.7,-0.1 -0.7,-0.6 -0.7,-1.1 0,-0.5 -0.1,-1 -0.6,-1.2 0.2,-0.6 0.9,-0.5 1.3,-0.8 0.3,-0.3 0.8,-0.4 1,-0.8 1.4,-0.7 2.8,-1.5 4.2,-2.1 z" />
	<path
   id="XMLID_266_"
   class="st202"
   d="m 2537.9,100.1 c -0.5,0.8 -0.9,0.3 -1.3,-0.2 0.7,0.1 0.9,-0.1 0.9,-0.9 0,-6.5 0,-12.9 0,-19.4 0,-0.8 -0.1,-1.6 0.8,-2 -0.1,0.2 -0.1,0.4 -0.2,0.6 -0.2,0.4 -0.1,0.8 -0.1,1.1 0,6.5 0,13 0,19.6 0,0.4 0.1,0.8 -0.1,1.2 z" />
	<path
   id="XMLID_265_"
   class="st193"
   d="m 2527.4,120.7 c -0.3,-0.8 -1,-1.2 -1.7,-1.4 -1.1,-0.4 -1.2,-1.4 -1.6,-2.1 -0.2,-0.4 0.9,-1.2 1.3,-1 0.8,0.4 1.5,0.9 2.2,1.4 -0.6,0.7 -0.6,2 0,2.7 0.3,0.3 0.7,0.6 0.8,1.1 -0.3,-0.2 -0.7,-0.4 -1,-0.7 z" />
	<path
   id="XMLID_264_"
   class="st203"
   d="m 2546.1,97.5 c -0.1,0.4 -0.2,0.8 -0.4,1.1 -0.5,0.9 -0.1,1.8 0.9,2.3 -0.1,0.2 -0.2,0.2 -0.4,0.2 -0.5,0.2 -0.9,0.4 -1.4,0.7 -0.3,0.1 -0.6,0.4 -0.9,0.5 -0.4,0.2 -0.7,0.1 -0.9,-0.3 -0.2,-1 -0.2,-1.9 0.4,-2.8 0.1,-0.1 0.1,-0.1 0.2,-0.2 0.5,-0.5 1.2,-0.6 1.7,-1.1 0.2,-0.2 0.5,-0.3 0.8,-0.4 z" />
	<path
   id="XMLID_263_"
   class="st204"
   d="m 2531.4,100.7 c 0.1,-0.7 -0.6,-0.6 -1,-0.9 -0.4,-0.3 -0.9,-1.8 -0.7,-2.3 0.3,-0.7 0.9,-0.6 1.5,-0.4 0.1,0 0.3,0 0.4,0 0.6,0.2 1.1,0.4 1.6,0.9 -0.8,0.1 -1.1,0.5 -1,1.3 0.1,0.6 0.1,1.2 -0.2,1.7 -0.3,0.1 -0.5,0 -0.6,-0.3 z" />
	<path
   id="XMLID_262_"
   class="st205"
   d="m 2555.6,88.1 c -0.8,-0.2 -1.6,-0.3 -2.2,-0.9 -0.5,-0.5 -1.1,0.3 -1.7,0 -0.2,0.5 -0.1,1 0.3,1.4 0.4,0.4 0.5,0.9 0.4,1.4 -0.6,-0.2 -1.1,-0.5 -1.7,-0.9 -0.1,-0.7 -1,-1.1 -0.8,-2 0,-0.1 -0.1,-0.2 0,-0.3 0.1,-0.4 0.1,-0.9 0.4,-1.2 0.3,-0.3 0.8,0.1 1.1,0.2 0.5,0.3 0.9,0.6 1.5,0.6 1,0.6 1.9,1 2.7,1.7 z" />
	<path
   id="XMLID_261_"
   class="st206"
   d="m 2534.4,85.6 c 0,0.3 -0.1,0.5 -0.4,0.6 -0.5,0.4 -1.2,0.6 -1.7,1.1 v 0 c -0.2,0.1 -0.5,0.1 -0.7,0 -0.5,-1.5 -0.3,-2.8 0.6,-3.6 0.3,-0.1 0.7,0 1,0 0.3,0.1 0.6,0.2 0.8,0.5 0.2,0.5 0,1 0.4,1.4 z" />
	<path
   id="XMLID_260_"
   class="st207"
   d="m 2530,84.7 c 0.5,-0.3 1.1,-0.7 1.7,-0.9 0.1,0.5 -0.3,0.6 -0.6,0.9 -0.6,0.3 -0.8,0.8 -0.7,1.5 0.1,0.6 0.2,1.3 -0.1,1.9 -0.4,0.3 -0.7,0.6 -1.2,0.6 -0.6,-0.1 -0.8,-0.5 -0.8,-1 0,-0.6 -0.1,-1.2 0,-1.7 0.4,-0.6 1.1,-0.8 1.7,-1.3 z" />
	<path
   id="XMLID_259_"
   class="st208"
   d="m 2548.7,84.3 c -0.6,0 -1.1,-0.4 -1.6,-0.6 -0.9,-0.3 -1.4,-0.1 -1.4,0.9 0,0.9 0,1.9 1.2,2.2 0.3,0.1 0.5,0.2 0.5,0.6 -1,-0.4 -2,-0.9 -2.8,-1.7 -0.2,-0.6 -0.1,-1.2 -0.2,-1.7 0.7,-1 1.4,-1.3 2.4,-0.7 0.6,0.2 1.4,0.5 1.9,1 z" />
	<path
   id="XMLID_258_"
   class="st209"
   d="m 2526.4,89.8 c -0.8,-0.1 -1.1,-0.7 -1.2,-1.4 -0.1,-0.7 0.2,-1.3 0.9,-1.6 0.6,-0.3 1.3,-0.7 2,-1 0,0.1 0.1,0.2 0,0.3 -1.1,0.9 -0.8,2 -0.6,3.2 -0.2,0.5 -0.8,0.1 -1.1,0.5 z" />
	<path
   id="XMLID_257_"
   class="st210"
   d="m 2560.9,115.8 c -0.1,0 -0.2,0 -0.3,0 0,-0.1 0,-0.3 0,-0.4 0.2,-0.4 0.1,-0.8 0.1,-1.2 0,-3.1 0,-6.1 0,-9.2 0,-0.3 -0.1,-0.7 0.1,-1 0.5,0.2 0.4,0.7 0.4,1.1 0,3.2 0,6.4 0,9.5 0.1,0.4 0.1,0.9 -0.3,1.2 z" />
	<path
   id="XMLID_256_"
   class="st211"
   d="m 2527.4,89.4 c -0.8,-1 -0.6,-2.6 0.4,-3.3 0.1,-0.1 0.2,-0.2 0.2,-0.3 v 0 c 0.1,-0.1 0.2,-0.1 0.2,0 0.3,0.6 0.2,1.2 0.2,1.8 0,0.5 0.1,0.8 0.6,0.9 0.1,0.4 -0.3,0.4 -0.4,0.6 -0.1,0.1 -0.2,0.2 -0.4,0.2 -0.2,0.1 -0.4,0.1 -0.6,0.1 0,0.1 -0.1,0.1 -0.2,0 z" />
	<path
   id="XMLID_255_"
   class="st212"
   d="m 2551.6,107.2 c -0.4,0.4 -0.8,0.8 -1.2,1.3 -0.4,0.5 -0.6,1.2 0.1,1.6 0.9,0.5 -0.2,0.4 -0.1,0.6 1,0.4 1.7,-0.5 2.6,-0.5 -0.4,0.4 -1,0.7 -1.5,0.9 -0.9,0.3 -1.6,-0.1 -2,-0.8 -0.5,-0.8 -0.3,-1.5 0.4,-2.1 0.4,-0.5 1,-0.9 1.7,-1 z" />
	<path
   id="XMLID_254_"
   class="st213"
   d="m 2531,84.5 c 0.2,-0.3 0.6,-0.3 0.6,-0.7 1.2,-0.7 1.9,-0.6 2.5,0.5 -0.1,0.1 -0.1,0.1 -0.2,0 -0.1,-0.3 -0.3,-0.4 -0.6,-0.4 -0.4,-0.2 -0.7,-0.2 -1.1,0 -1,1 -0.5,2.2 -0.6,3.4 0,0.4 -0.3,0.3 -0.5,0.3 -0.8,-1 -0.8,-1.8 -0.1,-3.1 z" />
	<path
   id="XMLID_253_"
   class="st214"
   d="m 2560.8,104 c 0,3.4 0,6.9 0,10.3 0,0.4 0.1,0.8 -0.2,1.1 0,-3.1 0,-6.3 0,-9.4 0,-0.8 0,-1.6 -0.2,-2.4 0.3,0 0.5,0.1 0.4,0.4 z" />
	<path
   id="XMLID_252_"
   class="st187"
   d="m 2543.2,102.2 c 0.7,0.5 1,-0.6 1.7,-0.4 0.1,-0.1 0.1,-0.1 0.2,0 -1.1,0.8 -2.3,1.4 -3.6,1.9 v -0.1 c 0.1,-1 1,-1.1 1.7,-1.4 z" />
	<path
   id="XMLID_251_"
   class="st212"
   d="m 2553.2,109.9 c 0.4,-0.7 1.4,-0.7 1.9,-1.3 0.5,0 0.9,-0.5 1.5,-0.4 -1.1,0.7 -2.1,1.4 -3.4,1.7 z" />
	<path
   id="XMLID_250_"
   class="st191"
   d="m 2551.6,120.6 c 0.8,-0.4 1.5,-0.9 2.4,-1 -1,0.7 -2.1,1.2 -3.2,1.7 l -0.1,-0.1 c -0.1,-0.7 0.4,-0.6 0.9,-0.6 z" />
	<path
   id="XMLID_249_"
   class="st215"
   d="m 2544.4,83.9 c 0.4,0.5 0.5,1.1 0.2,1.7 -0.5,-0.5 -0.6,-1.1 -0.2,-1.7 z" />
	<path
   id="XMLID_248_"
   class="st216"
   d="m 2528.7,89.1 c 0,-0.3 0.3,-0.4 0.4,-0.6 0.3,-0.1 0.7,-0.3 1,-0.4 0.1,-0.1 0.1,-0.1 0.2,-0.1 0.1,0 0.2,0.1 0.2,0.1 -0.5,0.4 -1.1,0.9 -1.8,1 z" />
	<path
   id="XMLID_247_"
   class="st213"
   d="m 2532.3,87.3 c 0.3,-0.8 1.1,-0.8 1.7,-1.1 -0.4,0.6 -1.1,0.8 -1.7,1.1 z" />
	<path
   id="XMLID_246_"
   class="st217"
   d="m 2527.4,89.4 c 0.1,0 0.1,0 0.2,0 0.1,0.4 -0.4,0.2 -0.4,0.5 -0.3,0.2 -0.6,0.1 -0.8,0 0,-1 0.7,-0.3 1,-0.5 z" />
	<path
   id="XMLID_245_"
   class="st216"
   d="m 2528.3,85.8 c -0.1,0 -0.2,0 -0.2,0 0.6,-0.4 1.2,-0.8 1.9,-1 -0.5,0.5 -1,0.9 -1.7,1 z" />
	<path
   id="XMLID_244_"
   class="st218"
   d="m 2545.3,97.9 c -0.3,0.7 -1.1,0.7 -1.7,1.1 0,-0.1 0,-0.1 0,-0.2 0.5,-0.4 1,-0.7 1.7,-0.9 z" />
	<path
   id="XMLID_243_"
   class="st204"
   d="m 2535.7,99.2 c -0.8,-0.1 -1.4,-0.4 -1.9,-1 0.7,0.2 1.3,0.6 1.9,1 z" />
	<path
   id="XMLID_242_"
   class="st219"
   d="m 2561,92.9 c -0.3,-0.5 -0.4,-1 0,-1.5 0.4,0.6 0.3,1 0,1.5 z" />
	<path
   id="XMLID_241_"
   class="st207"
   d="m 2530.6,88.1 c -0.1,0 -0.2,0 -0.2,0 0,-0.6 0.4,-0.6 0.8,-0.6 0.2,0 0.3,0 0.4,-0.2 0.2,0 0.4,0 0.6,0 -0.4,0.3 -1,0.6 -1.6,0.8 z" />
	<path
   id="XMLID_240_"
   class="st220"
   d="m 2533.9,84.3 c 0.1,0 0.1,0 0.2,0 0.4,0.4 0.3,0.8 0.2,1.3 -0.2,0.1 -0.4,0.2 -0.4,-0.2 0,-0.4 0,-0.7 0,-1.1 z" />
	<path
   id="XMLID_239_"
   class="st218"
   d="m 2544.9,120.7 c -0.2,0.5 -0.6,0.7 -1,0.8 0,-0.1 0,-0.1 0,-0.2 0.2,-0.4 0.6,-0.5 1,-0.6 z" />
	<path
   id="XMLID_238_"
   class="st218"
   d="m 2545.1,101.8 c -0.1,0 -0.1,0 -0.2,0 0.4,-0.3 0.8,-0.6 1.3,-0.6 -0.3,0.3 -0.7,0.5 -1.1,0.6 z" />
	<path
   id="XMLID_237_"
   class="st221"
   d="m 2560.4,103.6 c -0.4,0 -0.9,0.1 -1.4,-0.1 0.4,-0.2 0.9,-0.1 1.3,-0.1 0.1,0.1 0.1,0.1 0.1,0.2 z" />
	<path
   id="XMLID_236_"
   class="st209"
   d="m 2527.2,89.8 c 0.1,-0.2 0.3,-0.3 0.4,-0.5 0.2,0 0.5,0 0.7,0 -0.3,0.3 -0.6,0.6 -1.1,0.5 z" />
	<path
   id="XMLID_235_"
   class="st202"
   d="m 2535.8,103 c 0.1,0 0.2,0 0.3,0 0.7,0.2 1.4,0.4 1.9,1.1 0.1,0.2 0.1,0.5 0.1,0.7 0,5.6 0,11.2 0,16.8 0,0.2 0,0.5 -0.1,0.7 0,0.3 -0.1,0.4 -0.4,0.4 -0.5,0 -1,0 -0.8,-0.8 0.4,-0.3 0.4,-0.8 0.4,-1.2 0,-5.2 0,-10.3 0,-15.5 0,-0.7 -0.2,-1.2 -0.8,-1.5 -0.3,-0.1 -0.6,-0.3 -0.6,-0.7 z" />
	<path
   id="XMLID_234_"
   class="st218"
   d="m 2542.5,122.3 c 0.5,-0.2 0.9,-0.2 0.9,0.6 0,0.6 -0.2,1.3 0.4,1.7 -0.6,0.3 -1.3,0.6 -1.9,0.9 -0.6,0.4 -1,0.2 -1.4,-0.3 -0.5,-0.9 -0.1,-2.1 0.9,-2.5 0.5,-0.1 0.9,-0.1 1.1,-0.4 z" />
	<path
   id="XMLID_233_"
   class="st218"
   d="m 2543.2,102.2 c -0.4,0.7 -1.3,0.7 -1.7,1.4 -0.8,-0.2 -1,-0.8 -1,-1.6 0,-0.8 0.2,-1.5 1,-1.7 0.7,-0.2 1.3,-0.7 1.9,-1.1 -0.2,1 -0.2,2 -0.2,3 z" />
	<path
   id="XMLID_232_"
   class="st222"
   d="m 2536.7,122.1 c 0.2,0.4 0.5,0.4 0.8,0.6 0,0.2 0,0.4 -0.1,0.5 -1.1,0.6 -0.8,1.1 -0.1,1.8 0.3,0.3 0.9,0.6 0.6,1.3 -0.6,-0.4 -1.3,-0.7 -1.9,-1.1 -0.9,-0.5 -1.1,-1.4 -1,-2.3 0,-0.6 0.1,-1.1 0.8,-1.2 0.4,0 0.7,0.1 0.9,0.4 z" />
	<path
   id="XMLID_231_"
   class="st223"
   d="m 2537.9,100.1 c 0,-6.9 0,-13.8 0,-20.6 0,-0.4 -0.2,-0.8 0.2,-1.2 0,6.9 0,13.8 0,20.6 0,0.4 0.2,0.8 -0.2,1.2 z" />
	<path
   id="XMLID_230_"
   class="st223"
   d="m 2537.9,122.3 c 0,-6.1 0,-12.2 0,-18.3 0.3,0.3 0.2,0.6 0.2,1 0,5.4 0,10.9 0,16.3 0,0.4 0.2,0.7 -0.2,1 z" />
	<path
   id="XMLID_229_"
   class="st224"
   d="m 2538.4,126.7 c 0,-0.1 0,-0.1 0,-0.2 0.5,0 1.1,0 1.6,0 0,0.1 0,0.1 0,0.2 -0.5,0 -1.1,0 -1.6,0 z" />
	<path
   id="XMLID_227_"
   class="st225"
   d="m 2520.6,113.1 c 0,-5.8 0,-11.7 0,-17.5 0.1,0 0.1,0 0.2,0 0,5.8 0,11.7 0,17.5 -0.1,0 -0.1,0 -0.2,0 z" />
	<path
   id="XMLID_226_"
   class="st226"
   d="m 2551.6,120.6 c -0.3,0.2 -0.8,0.1 -0.9,0.6 -0.1,0 -0.2,0 -0.2,0 -0.3,-0.4 -1.2,0.5 -1.3,-0.6 0,-1.6 0.1,-2 1.4,-2.4 0.1,0 0.2,-0.2 0.3,-0.3 0.3,0.4 0,0.8 0,1.2 0,0.6 0.4,1.1 0.7,1.5 z" />
	<path
   id="XMLID_225_"
   class="st227"
   d="m 2524.1,115 c 0.4,0.1 0.8,0.2 1.1,0.6 -0.5,-0.1 -0.9,-0.2 -1.1,-0.6 z" />
	<path
   id="XMLID_224_"
   class="st228"
   d="m 2532.3,83.9 c 0.3,-0.3 0.7,-0.3 1.1,0 -0.4,0 -0.8,0 -1.1,0 z" />
	<path
   id="XMLID_223_"
   class="st229"
   d="m 2531.2,87.5 c -0.2,0.3 -0.7,0.2 -0.8,0.6 -0.1,0 -0.1,0 -0.2,0 -0.1,-0.8 0.1,-1.6 -0.1,-2.4 -0.2,-0.7 0.5,-0.8 1,-1.1 -0.3,0.9 -0.6,1.9 0.1,2.9 z" />
</g>




<rect
   id="XMLID_58_"
   x="3052.3999"
   y="62.200001"
   class="st237"
   width="228"
   height="75" />

</svg>
