<?xml version="1.0" encoding="utf-8"?>
<!-- Generator: Adobe Illustrator 22.0.0, SVG Export Plug-In . SVG Version: 6.00 Build 0)  -->
<svg version="1.1" id="Layer_1" xmlns="http://www.w3.org/2000/svg" xmlns:xlink="http://www.w3.org/1999/xlink" x="0px" y="0px"
	 viewBox="0 0 1440 320" style="enable-background:new 0 0 1440 320;" xml:space="preserve">
<style type="text/css">
	.st0{fill:#FFFFFF;}
</style>
<path class="st0" d="M0,160l26.7,26.7C53.3,213,107,267,160,272c53.3,5,107-37,160-42.7C373.3,224,427,256,480,272
	c53.3,16,107,16,160,10.7c53.3-5.7,107-15.7,160-21.4c53.3-5.3,107-5.3,160-10.6c53.3-5.7,107-15.7,160-42.7c53.3-27,113-22,166-17
	c53.3,5,101,12,127,38.3l27,26.7v64h-26.7c-26.6,0-80.3,0-133.3,0c-53.3,0-107,0-160,0c-53.3,0-107,0-160,0c-53.3,0-107,0-160,0
	c-53.3,0-107,0-160,0c-53.3,0-107,0-160,0c-53.3,0-107,0-160,0c-53.3,0-107,0-160,0c-53.3,0-107,0-133,0H0V160z"/>
</svg>
